<?xml version="1.0" standalone="no"?>
<!DOCTYPE svg PUBLIC "-//W3C//DTD SVG 1.1//EN" "http://www.w3.org/Graphics/SVG/1.1/DTD/svg11.dtd" >
<svg xmlns="http://www.w3.org/2000/svg" xmlns:xlink="http://www.w3.org/1999/xlink" version="1.1">
<metadata>
Created by FontForge 20170731 at Thu Jan 14 12:16:43 2016
 By Aleksey,,,
(URW)++,Copyright 2015 by (URW)++ Design &#38; Development
</metadata>
<defs>
<font id="URWGeometric-ExtraBold" horiz-adv-x="792" >
  <font-face 
    font-family="URW Geometric ExtBd"
    font-weight="800"
    font-stretch="normal"
    units-per-em="2048"
    panose-1="0 0 0 0 0 0 0 0 0 0"
    ascent="1496"
    descent="-552"
    x-height="908"
    cap-height="1365"
    bbox="-279 -585 2519 2214"
    underline-thickness="241"
    underline-position="-565"
    unicode-range="U+0020-FB04"
  />
<missing-glyph horiz-adv-x="459" 
d="M413 0h-367v1365h367v-1365zM92 46h275v1273h-275v-1273z" />
    <glyph glyph-name="afii61352" unicode="Nr&#x2e;" horiz-adv-x="2162" 
d="M2027 544h-532v182h532v-182zM410 0h-273v1365h231l671 -889v889h273v-1365h-231l-671 889v-889zM1766 1397q131 0 220 -98q75 -83 75 -195q0 -132 -96 -218q-85 -76 -204 -76q-136 0 -224 97q-75 83 -75 199q0 126 96 215q83 76 208 76zM1760 1235q-54 0 -88.5 -37
t-34.5 -95t35 -94.5t89 -36.5q56 0 90.5 37t34.5 95t-35 94.5t-91 36.5z" />
    <glyph glyph-name="ff" unicode="ff" horiz-adv-x="1086" 
d="M536 673h-151v-673h-262v673h-84v235h84v158q0 177 88 255q70 62 179 62q62 0 143 -18v-235q-52 18 -88 18q-60 0 -60 -85v-155h151v-235zM1071 673h-151v-673h-262v673h-84v235h84v158q0 177 88 255q70 62 179 62q62 0 143 -18v-235q-52 18 -88 18q-60 0 -60 -85v-155
h151v-235z" />
    <glyph glyph-name="fi" unicode="fi" horiz-adv-x="1004" 
d="M536 673h-151v-673h-262v673h-84v235h84v158q0 177 88 255q70 62 179 62q62 0 143 -18v-235q-52 18 -88 18q-60 0 -60 -85v-155h151v-235zM769 1374q72 0 120 -53q40 -43 40 -103q0 -65 -46 -110q-46 -46 -115 -46q-66 0 -112 46t-46 112q0 62 47 109q47 45 112 45z
M639 908h262v-908h-262v908z" />
    <glyph glyph-name="fl" unicode="fl" horiz-adv-x="1023" 
d="M536 673h-151v-673h-262v673h-84v235h84v158q0 177 88 255q70 62 179 62q62 0 143 -18v-235q-52 18 -88 18q-60 0 -60 -85v-155h151v-235zM919 1365v-1365h-262v1365h262z" />
    <glyph glyph-name="ffi" unicode="ffi" horiz-adv-x="1539" 
d="M536 673h-151v-673h-262v673h-84v235h84v158q0 177 88 255q70 62 179 62q62 0 143 -18v-235q-52 18 -88 18q-60 0 -60 -85v-155h151v-235zM1071 673h-152v-673h-262v673h-83v235h83v158q0 177 88 255q70 62 179 62q63 0 144 -18v-235q-52 18 -88 18q-61 0 -61 -85v-155
h152v-235zM1304 1374q72 0 120 -53q40 -43 40 -103q0 -65 -46 -110q-46 -46 -115 -46q-66 0 -112 46t-46 112q0 62 47 109q46 45 112 45zM1173 908h262v-908h-262v908z" />
    <glyph glyph-name="ffl" unicode="ffl" horiz-adv-x="1541" 
d="M536 673h-151v-673h-262v673h-84v235h84v158q0 177 88 255q70 62 179 62q62 0 143 -18v-235q-52 18 -88 18q-60 0 -60 -85v-155h151v-235zM1071 673h-152v-673h-262v673h-83v235h83v158q0 177 88 255q70 62 179 62q63 0 144 -18v-235q-52 18 -88 18q-61 0 -61 -85v-155
h152v-235zM1437 1365v-1365h-262v1365h262z" />
    <glyph glyph-name=".notdef" horiz-adv-x="459" 
d="M413 0h-367v1365h367v-1365zM92 46h275v1273h-275v-1273z" />
    <glyph glyph-name="glyph1" horiz-adv-x="0" 
 />
    <glyph glyph-name="glyph2" horiz-adv-x="459" 
 />
    <glyph glyph-name="space" unicode=" " horiz-adv-x="459" 
 />
    <glyph glyph-name="exclam" unicode="!" horiz-adv-x="635" 
d="M440 364h-245l-23 1001h291zM317 283q72 0 120 -53q40 -43 40 -103q0 -69 -52 -115q-46 -41 -107 -41q-67 0 -113 46q-47 47 -47 112q0 62 47 109q47 45 112 45z" />
    <glyph glyph-name="quotedbl" unicode="&#x22;" horiz-adv-x="723" 
d="M331 1420l-29 -635h-211l-29 635h269zM661 1420l-29 -635h-211l-29 635h269z" />
    <glyph glyph-name="numbersign" unicode="#" horiz-adv-x="1214" 
d="M148 14l73 355h-145l42 203h145l44 215h-145l42 203h145l83 404l214 -49l-73 -355h196l83 404l215 -46l-74 -358h145l-42 -203h-145l-44 -215h145l-42 -203h-145l-83 -404l-214 49l73 355h-196l-83 -404zM487 572h196l44 215h-196z" />
    <glyph glyph-name="dollar" unicode="$" horiz-adv-x="1202" 
d="M110 387l267 70q30 -117 55 -154q56 -81 155 -81q91 0 148 64q47 55 47 124q0 43 -22 71q-34 44 -162 94l-120 46q-309 119 -309 373q0 138 84 242q85 104 226 143v191h268v-190q96 -28 162 -84q65 -54 135 -169l-224 -141q-46 72 -78 104q-53 54 -134 54q-82 0 -129 -54
q-39 -45 -39 -99q0 -83 149 -139l127 -48q213 -79 288 -200q53 -86 53 -192q0 -144 -85 -257q-85 -114 -225 -161v-206h-268v190q-149 30 -238 129t-131 280z" />
    <glyph glyph-name="percent" unicode="%" horiz-adv-x="1836" 
d="M455 52l778 1345l148 -85l-779 -1345zM409 1384q340 0 340 -424q0 -423 -335 -423q-338 0 -338 429q0 173 62 277q83 141 271 141zM412 1215q-146 0 -146 -246q0 -147 47 -217q31 -46 100 -46q59 0 94 38q22 23 37 87q15 61 15 127q0 257 -147 257zM1420 828
q340 0 340 -424q0 -423 -339 -423q-334 0 -334 429q0 173 62 277q83 141 271 141zM1423 659q-146 0 -146 -246q0 -146 47 -217q31 -46 100 -46q59 0 94 38q22 23 37 87q15 61 15 127q0 257 -147 257z" />
    <glyph glyph-name="ampersand" unicode="&#x26;" horiz-adv-x="1382" 
d="M720 752l218 -256q26 57 66 169l249 -67l-11 -32q-60 -184 -119 -285l241 -281h-335l-74 88q-163 -120 -354 -120q-153 0 -277 70q-96 53 -155 155q-52 89 -52 189q0 113 58 201t204 193q-57 74 -83 121q-46 82 -46 166q0 149 109 248q95 86 234 86q159 0 256 -108
q82 -91 82 -212q0 -91 -50 -167.5t-161 -157.5zM574 921q76 60 98 91q24 32 24 72q0 44 -29.5 72t-74.5 28q-46 0 -76.5 -30.5t-30.5 -76.5q0 -52 89 -156zM788 287l-265 317q-141 -120 -141 -210q0 -74 59 -128q59 -53 156 -53q102 0 191 74z" />
    <glyph glyph-name="quotesingle" unicode="'" horiz-adv-x="393" 
d="M331 1420l-29 -635h-211l-29 635h269z" />
    <glyph glyph-name="parenleft" unicode="(" horiz-adv-x="675" 
d="M336 1536l235 -111q-46 -118 -77 -223q-83 -290 -83 -637q0 -379 100 -692q23 -71 60 -168l-235 -111q-41 88 -55 122q-61 151 -98 387q-39 237 -39 462q0 351 83 680q22 83 38 128q17 45 71 163z" />
    <glyph glyph-name="parenright" unicode=")" horiz-adv-x="675" 
d="M103 1425l235 111q41 -88 55 -122q61 -148 99 -386q38 -240 38 -463q0 -351 -83 -680q-20 -80 -37 -128q-12 -33 -72 -163l-235 111q47 120 77 224q83 288 83 636q0 379 -100 692q-23 71 -60 168z" />
    <glyph glyph-name="asterisk" unicode="*" horiz-adv-x="1035" 
d="M187 1399l215 -80l-9 230h248l-9 -230l216 80l76 -236l-221 -62l143 -180l-201 -146l-128 191l-127 -191l-201 146l143 180l-222 62z" />
    <glyph glyph-name="plus" unicode="+" horiz-adv-x="1139" 
d="M41 758h407v409h242v-409h407v-236h-407v-410h-242v410h-407v236z" />
    <glyph glyph-name="comma" unicode="," horiz-adv-x="555" 
d="M22 -303l206 573l240 -88l-251 -563z" />
    <glyph glyph-name="hyphen" unicode="-" horiz-adv-x="579" 
d="M49 352v240h481v-240h-481z" />
    <glyph glyph-name="period" unicode="." horiz-adv-x="529" 
d="M264 283q72 0 120 -53q40 -43 40 -103q0 -69 -52 -115q-46 -41 -107 -41q-67 0 -113 46q-47 47 -47 112q0 62 47 109q46 45 112 45z" />
    <glyph glyph-name="slash" unicode="/" horiz-adv-x="1154" 
d="M299 -35l-213 126l769 1310l212 -126z" />
    <glyph glyph-name="zero" unicode="0" horiz-adv-x="1191" 
d="M596 1397q540 0 540 -715q0 -304 -103 -485q-130 -229 -435 -229q-542 0 -542 724q0 300 103 476q133 229 437 229zM595 1145q-105 0 -168 -70q-43 -47 -68 -152q-27 -107 -27 -226q0 -243 70 -370q59 -107 194 -107q133 0 195 107q69 121 69 360q0 214 -70 351
q-56 107 -195 107z" />
    <glyph glyph-name="one" unicode="1" horiz-adv-x="684" 
d="M547 1365v-1365h-272v1036l-158 -89l-130 221l348 197h212z" />
    <glyph glyph-name="two" unicode="2" horiz-adv-x="1021" 
d="M994 0h-912v212l483 532q130 142 130 256q0 67 -45 106t-122 39q-88 0 -132 -42q-44 -43 -78 -168l-253 69q33 147 102 235q53 69 140 110q103 48 222 48q133 0 243 -59q90 -48 141 -140q52 -91 52 -205q0 -196 -147 -358l-347 -382h523v-253z" />
    <glyph glyph-name="three" unicode="3" horiz-adv-x="1009" 
d="M472 592h-114v242h114q183 0 183 155q0 74 -48 116q-47 41 -124 41q-65 0 -109 -29q-43 -29 -103 -117l-226 123q62 104 124 160q124 114 313 114q132 0 245 -62q91 -49 145 -144q52 -88 52 -196q0 -155 -118 -267q60 -52 91 -104q56 -94 56 -212q0 -200 -141 -324
q-136 -120 -336 -120q-158 0 -278 81q-74 51 -117 124q-44 74 -75 200l262 69q30 -114 67 -162q45 -59 143 -59q99 0 155 62q47 53 47 131q0 178 -208 178z" />
    <glyph glyph-name="four" unicode="4" horiz-adv-x="1070" 
d="M35 498l581 913l224 -137l-476 -749h248v268h271v-268h142v-249h-142v-276h-271v276h-577v222z" />
    <glyph glyph-name="five" unicode="5" horiz-adv-x="1108" 
d="M520 1114l-37 -180q33 5 63 5q142 0 260 -70q110 -63 171 -169q63 -110 63 -239q0 -217 -161 -363q-142 -130 -351 -130q-152 0 -261 69q-110 67 -211 224l219 151q37 -61 54 -86q77 -107 203 -107q110 0 177 76q59 67 59 160q0 109 -76 178q-64 58 -156 58
q-98 0 -178 -87l-210 45l147 716h681v-251h-456z" />
    <glyph glyph-name="six" unicode="6" horiz-adv-x="1123" 
d="M173 773l462 638l212 -156l-247 -342q169 -17 275 -98q178 -133 178 -359q0 -130 -66 -244q-65 -113 -178 -178q-114 -66 -249 -66q-224 0 -371 163q-125 137 -125 324q0 167 109 318zM559 668q-105 0 -169 -73q-55 -59 -55 -148q0 -104 74 -172q62 -56 150 -56
q100 0 165 74q58 65 58 161t-68 158q-64 56 -155 56z" />
    <glyph glyph-name="seven" unicode="7" horiz-adv-x="936" 
d="M283 -46l-237 124l566 1036h-604v251h934v-191z" />
    <glyph glyph-name="eight" unicode="8" horiz-adv-x="1066" 
d="M220 728q-57 59 -80 100q-43 77 -43 167q0 173 134 293q121 109 301 109q207 0 333 -139q103 -113 103 -262q0 -79 -28.5 -140.5t-95.5 -127.5q69 -58 103 -108q63 -95 63 -214q0 -192 -141 -317q-136 -121 -336 -121q-142 0 -264 68q-102 59 -158 157q-56 97 -56 213
q0 98 38.5 172.5t126.5 149.5zM529 599q-100 0 -156 -62q-48 -53 -48 -130q0 -87 60 -143q56 -50 147 -50q104 0 160 63q48 54 48 131q0 86 -60 141q-55 50 -151 50zM531 1160q-77 0 -127 -47q-50 -48 -50 -123q0 -46 22 -83q48 -80 157 -80q88 0 138 56q40 43 40 109
q0 74 -53 124q-50 44 -127 44z" />
    <glyph glyph-name="nine" unicode="9" horiz-adv-x="1128" 
d="M951 592l-461 -638l-213 156l247 342q-167 17 -275 98q-178 133 -178 359q0 131 66 243q64 114 178 179q113 66 249 66q224 0 371 -163q125 -137 125 -324q0 -167 -109 -318zM565 1146q-99 0 -165 -74q-58 -64 -58 -161q0 -95 69 -157q63 -57 154 -57q105 0 169 72
q55 61 55 149q0 104 -74 172q-62 56 -150 56z" />
    <glyph glyph-name="colon" unicode=":" horiz-adv-x="529" 
d="M264 283q72 0 120 -53q40 -43 40 -103q0 -69 -52 -115q-46 -41 -107 -41q-67 0 -113 46q-47 47 -47 112q0 62 47 109q46 45 112 45zM264 882q72 0 120 -53q40 -43 40 -103q0 -69 -52 -115q-46 -41 -107 -41q-67 0 -113 46q-47 47 -47 112q0 62 47 109q47 45 112 45z" />
    <glyph glyph-name="semicolon" unicode=";" horiz-adv-x="544" 
d="M22 -303l206 573l240 -88l-250 -563zM308 882q72 0 119 -53q40 -43 40 -103q0 -65 -46 -110q-46 -46 -115 -46q-66 0 -112 46t-46 113q0 61 47 108q47 45 113 45z" />
    <glyph glyph-name="less" unicode="&#x3c;" horiz-adv-x="1195" 
d="M99 791l997 468v-274l-646 -295l646 -296v-274l-997 469v202z" />
    <glyph glyph-name="equal" unicode="=" horiz-adv-x="1139" 
d="M101 931h937v-238h-937v238zM101 586h937v-238h-937v238z" />
    <glyph glyph-name="greater" unicode="&#x3e;" horiz-adv-x="1195" 
d="M1096 588l-997 -468v274l646 296l-646 295v274l997 -469v-202z" />
    <glyph glyph-name="question" unicode="?" horiz-adv-x="904" 
d="M581 364h-269v128q0 100 26 157q24 52 106 121l82 69q100 84 100 170q0 63 -41 98.5t-112 35.5q-72 0 -118 -32t-112 -132l-201 161q53 92 112 144q125 113 317 113q102 0 188.5 -34t141.5 -95q95 -107 95 -258q0 -95 -32 -161q-45 -91 -145 -184l-93 -86
q-34 -32 -39 -44q-6 -13 -6 -58v-113zM445 283q72 0 120 -53q40 -43 40 -103q0 -69 -52 -115q-47 -41 -107 -41q-68 0 -114 46t-46 112q0 62 47 109q47 45 112 45z" />
    <glyph glyph-name="at" unicode="@" horiz-adv-x="1833" 
d="M1030 1092h282l-85 -663h5q119 0 189 76q37 40 58.5 110.5t21.5 150.5q0 153 -71 283q-121 223 -443 223q-214 0 -377 -91q-121 -67 -195 -197q-82 -142 -82 -320q0 -250 156 -404q166 -166 499 -166q115 0 204 16q86 14 255 62l68 -185q-270 -87 -532 -87
q-290 0 -504 115q-154 82 -247 249q-101 182 -101 398q0 232 109 420q99 175 264 266q209 118 477 118q231 0 398 -96q150 -86 232 -233q92 -167 92 -366q0 -218 -107 -357q-74 -97 -173 -138q-101 -42 -254 -42h-269q-86 0 -164.5 32t-130.5 89q-92 101 -92 267
q0 138 66 250q129 220 451 220zM916 428h105l60 470h-70q-152 0 -223 -80q-67 -76 -67 -191q0 -103 57 -153q52 -46 138 -46z" />
    <glyph glyph-name="A" unicode="A" horiz-adv-x="1316" 
d="M1040 0l-113 318h-540l-113 -318h-287l510 1365h322l510 -1365h-289zM477 571h360l-180 504z" />
    <glyph glyph-name="B" unicode="B" horiz-adv-x="1088" 
d="M528 0h-391v1365h328q202 0 311 -64q84 -48 135 -137q52 -88 52 -185q0 -140 -112 -249q61 -41 97 -89q79 -104 79 -236q0 -152 -103 -261q-72 -76 -165 -110t-231 -34zM403 1124v-314h84q102 0 143 23q75 41 75 136q0 82 -51.5 118.5t-166.5 36.5h-84zM403 585v-339h114
q113 0 162 28q82 45 82 141q0 43 -20 80.5t-53 56.5q-56 33 -189 33h-96z" />
    <glyph glyph-name="C" unicode="C" horiz-adv-x="1381" 
d="M1333 1137l-194 -182q-69 75 -123 113q-103 73 -233 73q-199 0 -330 -146q-117 -132 -117 -313q0 -210 150 -343q127 -115 298 -115q102 0 182 42t180 147l193 -182q-100 -103 -181 -155q-166 -108 -372 -108q-202 0 -375 101q-159 94 -254 256q-97 166 -97 357
q0 190 97 356q98 170 265 264q167 95 363 95q159 0 288 -61q128 -61 260 -199z" />
    <glyph glyph-name="D" unicode="D" horiz-adv-x="1270" 
d="M137 0v1365h325q311 0 505 -152q243 -191 243 -529q0 -341 -242 -532q-37 -29 -74 -49q-190 -103 -432 -103h-325zM469 1112h-59v-859h59q161 0 273 64q194 113 194 367q0 251 -194 364q-112 64 -273 64z" />
    <glyph glyph-name="E" unicode="E" horiz-adv-x="1002" 
d="M137 1365h782v-251h-510v-297h453v-252h-453v-312h529v-253h-801v1365z" />
    <glyph glyph-name="F" unicode="F" horiz-adv-x="926" 
d="M137 1365h738v-252h-465v-295h424v-253h-424v-565h-273v1365z" />
    <glyph glyph-name="G" unicode="G" horiz-adv-x="1490" 
d="M771 513v251h657v-130q0 -205 -89 -369q-73 -135 -213 -213q-153 -84 -335 -84q-204 0 -374 98q-163 94 -260 259q-97 166 -97 357q0 190 97 356q98 170 265 264q167 95 367 95q225 0 416 -138q57 -41 133 -114l-193 -183q-99 101 -178 141q-78 39 -180 39
q-205 0 -334 -146q-117 -132 -117 -314q0 -208 149 -343q127 -115 306 -115q168 0 270 113q60 66 83 176h-373z" />
    <glyph glyph-name="H" unicode="H" horiz-adv-x="1336" 
d="M137 1365h273v-547h515v547h273v-1365h-273v565h-515v-565h-273v1365z" />
    <glyph glyph-name="I" unicode="I" horiz-adv-x="548" 
d="M137 1365h273v-1365h-273v1365z" />
    <glyph glyph-name="J" unicode="J" horiz-adv-x="874" 
d="M464 1365h273v-939q0 -103 -13 -162q-14 -66 -47 -123q-44 -78 -122 -122q-87 -51 -197 -51q-105 0 -192 43q-89 44 -186 142l167 196q114 -126 203 -126q46 0 75 32q39 43 39 171v939z" />
    <glyph glyph-name="K" unicode="K" horiz-adv-x="1238" 
d="M1250 1365l-539 -579l526 -786h-322l-390 587l-115 -124v-463h-273v1365h273v-532l494 532h346z" />
    <glyph glyph-name="L" unicode="L" horiz-adv-x="902" 
d="M137 0v1365h273v-1112h490v-253h-763z" />
    <glyph glyph-name="M" unicode="M" horiz-adv-x="1639" 
d="M410 0h-273v1365h253l429 -756l429 756h253v-1365h-273v825l-308 -547h-202l-308 547v-825z" />
    <glyph glyph-name="N" unicode="N" horiz-adv-x="1450" 
d="M410 0h-273v1365h231l671 -889v889h273v-1365h-231l-671 889v-889z" />
    <glyph glyph-name="O" unicode="O" horiz-adv-x="1562" 
d="M780 1397q316 0 534 -237q188 -205 188 -478q0 -190 -98 -357q-94 -159 -257 -256q-172 -101 -364 -101q-275 0 -482 183q-241 214 -241 540q0 187 98 348q104 170 267 263q167 95 355 95zM778 1141q-192 0 -324 -148q-118 -130 -118 -318q0 -97 41 -187t115 -153
q127 -111 289 -111q113 0 217 60q108 61 167 166q61 106 61 232q0 207 -151 345q-125 114 -297 114z" />
    <glyph glyph-name="P" unicode="P" horiz-adv-x="979" 
d="M462 496h-52v-496h-273v1365h325q190 0 297 -60q91 -52 146 -146q59 -104 59 -228q0 -175 -109 -296q-67 -76 -157 -107q-93 -32 -236 -32zM409 1116v-373h70q130 0 175 53q44 52 44 134q0 97 -52.5 141.5t-166.5 44.5h-70z" />
    <glyph glyph-name="Q" unicode="Q" horiz-adv-x="1557" 
d="M1244 -105l-149 146q-155 -73 -316 -73q-192 0 -365 101q-162 96 -256 256q-98 167 -98 357t98 357t267 263q167 95 356 95t356 -95q169 -96 267 -263t98 -358q0 -272 -191 -480l122 -120zM890 240l-81 80l189 186l123 -119q105 124 105 292q0 212 -151 348
q-126 114 -294 114q-196 0 -328 -148q-117 -131 -117 -312q0 -208 152 -343q130 -115 283 -115q53 0 119 17z" />
    <glyph glyph-name="R" unicode="R" horiz-adv-x="1149" 
d="M1124 0h-307l-278 498h-9q-38 -2 -68 -2h-52v-496h-273v1365h325q208 0 323 -65q96 -56 152 -152q59 -101 59 -222q0 -110 -50.5 -203t-141.5 -152zM409 1116v-373h70q116 0 171 31q80 45 80 153q0 112 -82 158q-53 31 -169 31h-70z" />
    <glyph glyph-name="S" unicode="S" horiz-adv-x="1075" 
d="M990 1127l-224 -141q-44 69 -78 103q-52 54 -133 54q-82 0 -129 -53q-38 -46 -38 -99q0 -83 147 -139l126 -48q212 -79 289 -200q53 -86 53 -191q0 -195 -147 -325q-135 -120 -327 -120q-157 0 -278 84q-141 98 -195 335l267 71q28 -115 55 -155q56 -80 154 -80
q91 0 148 64q48 54 48 123q0 43 -22 71q-34 46 -162 94l-120 46q-308 117 -308 372q0 176 130 291q128 113 316 113q207 0 342 -151q41 -46 86 -119z" />
    <glyph glyph-name="T" unicode="T" horiz-adv-x="902" 
d="M-13 1365h928v-252h-327v-1113h-273v1113h-328v252z" />
    <glyph glyph-name="U" unicode="U" horiz-adv-x="1315" 
d="M137 1365h273v-837q0 -145 29 -195q29 -49 89 -78q61 -31 129 -31t129 31q62 32 89 78q29 52 29 195v837h273v-874q0 -172 -61 -275q-62 -108 -176 -173q-130 -75 -283 -75q-213 0 -364 133q-84 75 -119 164q-37 89 -37 226v874z" />
    <glyph glyph-name="V" unicode="V" horiz-adv-x="1195" 
d="M-13 1365h287l324 -981l323 981h287l-455 -1365h-312z" />
    <glyph glyph-name="W" unicode="W" horiz-adv-x="1796" 
d="M-13 1365h285l251 -874l262 874h225l263 -875l251 875h284l-408 -1365h-244l-259 854l-258 -854h-243z" />
    <glyph glyph-name="X" unicode="X" horiz-adv-x="1191" 
d="M1165 1365l-415 -653l453 -712h-312l-297 471l-297 -471h-310l454 710l-416 655h310l261 -415l263 415h306z" />
    <glyph glyph-name="Y" unicode="Y" horiz-adv-x="1131" 
d="M430 0v564l-456 801h305l288 -521l287 521h304l-455 -801v-564h-273z" />
    <glyph glyph-name="Z" unicode="Z" horiz-adv-x="1052" 
d="M1012 1365v-206l-635 -905h649v-254h-1005v207l646 907h-589v251h934z" />
    <glyph glyph-name="bracketleft" unicode="[" horiz-adv-x="652" 
d="M586 1503v-247h-176v-1381h176v-247h-442v1875h442z" />
    <glyph glyph-name="backslash" unicode="\" horiz-adv-x="1124" 
d="M86 1292l181 107l770 -1326l-182 -108z" />
    <glyph glyph-name="bracketright" unicode="]" horiz-adv-x="652" 
d="M242 1256h-176v247h442v-1875h-442v247h176v1381z" />
    <glyph glyph-name="asciicircum" unicode="^" horiz-adv-x="1186" 
d="M592 1125l-260 -442h-308l433 748h273l433 -748h-310z" />
    <glyph glyph-name="underscore" unicode="_" horiz-adv-x="1080" 
d="M-26 -325v241h1133v-241h-1133z" />
    <glyph glyph-name="grave" unicode="`" horiz-adv-x="975" 
d="M480 998l-333 323l245 126l265 -352z" />
    <glyph glyph-name="a" unicode="a" horiz-adv-x="1113" 
d="M1011 908v-908h-262v51q-113 -83 -236 -83q-122 0 -229 62q-110 65 -173 174q-66 114 -66 251q0 221 159 365q134 120 309 120q123 0 236 -83v51h262zM529 703q-96 0 -160 -70q-60 -65 -60 -182q0 -125 76 -191q62 -55 147 -55q97 0 159 68q61 67 61 183q0 127 -76 194
q-61 53 -147 53z" />
    <glyph glyph-name="b" unicode="b" horiz-adv-x="1113" 
d="M365 0h-262v1365h262v-509q112 84 236 84q121 0 228 -62q110 -63 173 -173q66 -114 66 -250q0 -223 -159 -366q-133 -121 -308 -121q-123 0 -236 83v-51zM578 703q-92 0 -155 -68q-60 -66 -60 -183q0 -127 76 -194q61 -53 142 -53q99 0 163 70q60 65 60 181
q0 126 -76 192q-61 55 -150 55z" />
    <glyph glyph-name="c" unicode="c" horiz-adv-x="944" 
d="M921 760l-168 -174q-65 68 -110 93q-45 24 -106 24q-104 0 -168 -70q-60 -65 -60 -182q0 -123 75 -191q61 -55 153 -55q64 0 113 28q49 26 109 96l167 -174q-72 -77 -130 -113q-118 -74 -260 -74q-226 0 -369 161q-122 139 -122 325q0 219 157 361q139 125 334 125
q111 0 197 -40q87 -40 188 -140z" />
    <glyph glyph-name="d" unicode="d" horiz-adv-x="1113" 
d="M1011 1365v-1365h-262v51q-113 -83 -236 -83q-121 0 -228 62q-110 65 -173 174q-66 114 -66 251q0 221 159 365q133 120 308 120q123 0 236 -84v509h262zM529 703q-95 0 -159 -70q-60 -65 -60 -181q0 -125 77 -193q61 -54 146 -54q96 0 158 68q60 67 60 184
q0 126 -76 193q-59 53 -146 53z" />
    <glyph glyph-name="e" unicode="e" horiz-adv-x="1010" 
d="M722 316l230 -91q-159 -257 -431 -257q-216 0 -352 154q-124 137 -124 332q0 222 156 366q130 120 308 120q201 0 334 -148q123 -138 123 -357q0 -4 -0.5 -13t-1 -26t-0.5 -33h-650q49 -163 206 -163q131 0 202 116zM314 546h392q-54 165 -196 165q-152 0 -196 -165z" />
    <glyph glyph-name="f" unicode="f" horiz-adv-x="552" 
d="M536 673h-151v-673h-262v673h-84v235h84v158q0 177 88 255q70 62 179 62q62 0 143 -18v-235q-52 18 -88 18q-60 0 -60 -85v-155h151v-235z" />
    <glyph glyph-name="g" unicode="g" horiz-adv-x="1113" 
d="M749 -18v69q-67 -48 -117 -65q-52 -18 -119 -18q-203 0 -343 156q-124 137 -124 331q0 221 159 365q133 120 308 120q67 0 119 -18q50 -17 117 -65v51h262v-926q0 -236 -150 -369q-140 -123 -344 -123q-215 0 -366 139q-37 35 -94 102l176 169q4 -5 18 -21t23 -27
q105 -125 242 -125q114 0 175 69q58 64 58 186zM531 703q-61 0 -114 -32q-107 -65 -107 -213q0 -131 77 -199q61 -54 145 -54q96 0 159 68q60 66 60 183q0 128 -75 194q-61 53 -145 53z" />
    <glyph glyph-name="h" unicode="h" horiz-adv-x="1044" 
d="M365 1365v-499q94 74 207 74q139 0 244 -93q66 -59 96 -143.5t30 -213.5v-490h-262v475q0 119 -26 169q-32 59 -122 59q-45 0 -83.5 -18.5t-55.5 -49.5q-28 -49 -28 -178v-457h-262v1365h262z" />
    <glyph glyph-name="i" unicode="i" horiz-adv-x="469" 
d="M234 1374q72 0 120 -53q40 -43 40 -103q0 -65 -46 -110q-46 -46 -115 -46q-66 0 -112 46t-46 112q0 62 47 109q46 45 112 45zM104 908h262v-908h-262v908z" />
    <glyph glyph-name="j" unicode="j" horiz-adv-x="486" 
d="M119 908h262v-1090q0 -177 -88 -255q-71 -62 -173 -62q-65 0 -149 26v244q74 -25 110 -25q18 0 25 10q13 14 13 67v1085zM250 1374q72 0 120 -53q40 -43 40 -103q0 -69 -52 -115q-46 -41 -107 -41q-67 0 -113 46q-47 47 -47 112q0 62 47 109q46 45 112 45z" />
    <glyph glyph-name="k" unicode="k" horiz-adv-x="1005" 
d="M1009 908l-395 -384l414 -524h-325l-270 349l-68 -66v-283h-262v1365h262v-746l294 289h350z" />
    <glyph glyph-name="l" unicode="l" horiz-adv-x="472" 
d="M367 1365v-1365h-262v1365h262z" />
    <glyph glyph-name="m" unicode="m" horiz-adv-x="1559" 
d="M798 840q116 100 264 100q161 0 267 -97q70 -62 98 -144q29 -84 29 -212v-487h-262v472q0 124 -27 177q-29 54 -104 54q-40 0 -74 -17.5t-49 -45.5q-28 -52 -28 -186v-454h-262v472q0 125 -27 176q-28 55 -106 55q-40 0 -74 -17.5t-50 -45.5q-28 -52 -28 -186v-454h-262
v908h261v-42q52 41 96 57.5t101 16.5q127 0 237 -100z" />
    <glyph glyph-name="n" unicode="n" horiz-adv-x="1044" 
d="M365 908v-42q94 74 207 74q139 0 244 -93q66 -59 96 -143.5t30 -213.5v-490h-262v475q0 119 -26 169q-32 59 -122 59q-45 0 -83.5 -18.5t-55.5 -49.5q-28 -49 -28 -178v-457h-262v908h262z" />
    <glyph glyph-name="o" unicode="o" horiz-adv-x="1065" 
d="M541 940q212 0 358 -161q122 -137 122 -324q0 -219 -158 -362q-139 -125 -330 -125q-222 0 -366 161q-122 137 -122 329q0 213 158 357q137 125 338 125zM531 703q-62 0 -115 -32q-107 -65 -107 -214q0 -130 76 -197q62 -55 148 -55q100 0 164 70q60 66 60 181
q0 126 -76 192q-61 55 -150 55z" />
    <glyph glyph-name="p" unicode="p" horiz-adv-x="1113" 
d="M103 -478v1386h262v-51q113 83 236 83q121 0 228 -62q110 -65 173 -174q66 -114 66 -251q0 -223 -159 -365q-133 -120 -308 -120q-123 0 -236 83v-529h-262zM581 703q-95 0 -157 -68q-61 -67 -61 -184q0 -126 76 -193q59 -53 146 -53q95 0 159 70q60 65 60 182
q0 125 -76 192q-62 54 -147 54z" />
    <glyph glyph-name="q" unicode="q" horiz-adv-x="1113" 
d="M749 908h262v-1386h-262v529q-113 -83 -236 -83q-121 0 -228 62q-110 63 -173 173q-66 114 -66 250q0 223 159 366q133 121 308 121q123 0 236 -83v51zM533 703q-98 0 -162 -70q-61 -64 -61 -181q0 -150 107 -215q53 -32 119 -32q93 0 155 68q60 66 60 183q0 127 -76 194
q-59 53 -142 53z" />
    <glyph glyph-name="r" unicode="r" horiz-adv-x="637" 
d="M365 908v-49q76 55 165 55q41 0 91 -7v-233q-65 5 -90 5q-95 0 -130 -51q-36 -52 -36 -190v-438h-262v908h262z" />
    <glyph glyph-name="s" unicode="s" horiz-adv-x="796" 
d="M34 246l220 82q37 -71 70.5 -99.5t79.5 -28.5q39 0 62 20.5t23 55.5q0 16 -9 30q-10 16 -84 45l-121 49q-186 74 -186 246q0 128 96 211q97 83 235 83q211 0 327 -212l-208 -99q-57 82 -122 82q-76 0 -76 -60q0 -16 8 -27q12 -15 81 -42l105 -40q111 -43 163.5 -105
t52.5 -151q0 -136 -104 -229q-98 -89 -246 -89q-162 0 -264 103q-59 59 -103 175z" />
    <glyph glyph-name="t" unicode="t" horiz-adv-x="561" 
d="M509 673h-136v-368q0 -44 8.5 -61.5t29.5 -17.5q35 0 110 26v-244q-78 -26 -148 -26q-121 0 -191 79q-71 80 -71 238v374h-93v235h93v188l262 102v-290h136v-235z" />
    <glyph glyph-name="u" unicode="u" horiz-adv-x="1044" 
d="M680 0v42q-95 -74 -206 -74q-140 0 -245 93q-66 59 -96 143.5t-30 213.5v490h262v-475q0 -118 26 -168q31 -60 122 -60q45 0 83.5 18.5t55.5 48.5q28 49 28 179v457h262v-908h-262z" />
    <glyph glyph-name="v" unicode="v" horiz-adv-x="960" 
d="M-25 908h281l224 -536l224 536h281l-389 -908h-232z" />
    <glyph glyph-name="w" unicode="w" horiz-adv-x="1348" 
d="M303 0l-328 908h278l157 -479l164 479h200l165 -480l157 480h277l-328 -908h-209l-162 472l-162 -472h-209z" />
    <glyph glyph-name="x" unicode="x" horiz-adv-x="1009" 
d="M1001 908l-339 -438l363 -470h-314l-206 270l-206 -270h-315l364 469l-339 439h315l182 -240l183 240h312z" />
    <glyph glyph-name="y" unicode="y" horiz-adv-x="971" 
d="M102 -478l232 524l-359 862h281l220 -542l241 542h280l-619 -1386h-276z" />
    <glyph glyph-name="z" unicode="z" horiz-adv-x="855" 
d="M63 908h757v-189l-428 -485h446v-234h-802v188l429 487h-402v233z" />
    <glyph glyph-name="braceleft" unicode="{" horiz-adv-x="658" 
d="M593 -128v-243q-26 0 -53.5 -0.5t-41.5 -1t-20 -0.5q-146 0 -224 75q-79 76 -79 252v389q0 67 -17 87q-19 21 -92 37v208l24 6q52 13 69 35q16 20 16 77v383q0 176 79 252q76 76 224 76q16 0 115 -3v-243l-63 1h-19q-49 0 -59 -10q-11 -11 -11 -55v-412q0 -74 -16 -123.5
t-54 -93.5q29 -34 42 -61q28 -60 28 -161v-407q0 -44 11 -55t54 -10q17 1 87 1z" />
    <glyph glyph-name="bar" unicode="|" horiz-adv-x="1083" 
d="M412 -360v1851h258v-1851h-258z" />
    <glyph glyph-name="braceright" unicode="}" horiz-adv-x="658" 
d="M66 -371v243h39q29 0 48 -1q43 -1 54 9q11 13 11 56v407q0 78 16 128.5t54 93.5q-25 29 -41 59q-29 61 -29 158v412q0 45 -10 55t-60 10h-19l-63 -1v243q99 3 115 3q147 0 224 -76q79 -76 79 -252v-383q0 -57 16 -77q17 -22 69 -35l24 -6v-208q-74 -17 -91 -37
q-18 -20 -18 -87v-389q0 -176 -79 -252q-78 -75 -224 -75q-6 0 -20 0.5t-41.5 1t-53.5 0.5z" />
    <glyph glyph-name="asciitilde" unicode="~" horiz-adv-x="1452" 
d="M341 1115l-177 115q81 165 147 231q34 35 89.5 56.5t112.5 21.5q97 0 252 -75q124 -59 177 -59q48 0 76 27q26 25 90 131l180 -106q-71 -146 -122 -199q-48 -49 -111 -78t-122 -29q-57 0 -120 21q-56 17 -198 82q-72 32 -116 32q-39 0 -69 -33q-29 -30 -89 -138z" />
    <glyph glyph-name="nbspace" unicode="&#xa0;" horiz-adv-x="459" 
 />
    <glyph glyph-name="exclamdown" unicode="&#xa1;" horiz-adv-x="635" 
d="M172 -377l23 1002h245l23 -1002h-291zM317 1017q72 0 120 -53q40 -43 40 -103q0 -65 -46 -110q-46 -46 -114 -46q-67 0 -113 46t-46 112q0 62 47 109q46 45 112 45z" />
    <glyph glyph-name="cent" unicode="&#xa2;" horiz-adv-x="1132" 
d="M729 211v-211h-269v217q-104 30 -180 97q-77 65 -122 163q-44 99 -44 206q0 163 95 291q94 127 251 173v218h269v-212q138 -37 261 -166l-168 -173q-64 67 -110 93q-45 24 -105 24q-105 0 -169 -70q-60 -65 -60 -181q0 -124 75 -192q61 -55 152 -55q65 0 115 28t108 96
l168 -174q-124 -133 -267 -172z" />
    <glyph glyph-name="sterling" unicode="&#xa3;" horiz-adv-x="1165" 
d="M499 808h405v-241h-355q16 -87 16 -152q0 -84 -47 -166h571v-249h-962v221q21 16 23 18q82 66 111 108q28 40 28 96q0 43 -15 124h-147v241h96q-10 69 -10 127q0 232 137 351q129 111 308 111q203 0 337 -155q39 -45 79 -115l-219 -136q-45 71 -77 102q-55 53 -128 53
q-80 0 -123 -53.5t-43 -154.5q0 -54 15 -130z" />
    <glyph glyph-name="currency" unicode="&#xa4;" horiz-adv-x="1536" 
d="M316 1295l180 -182q139 79 271 79q133 0 272 -79l180 182l155 -150l-184 -186q77 -145 77 -276q0 -132 -76 -275l182 -185l-151 -154l-181 185q-143 -81 -273 -81q-132 0 -274 81l-181 -185l-151 154l183 185q-77 146 -77 275q0 130 77 276l-184 186zM765 961
q-71 0 -130 -36q-122 -72 -122 -242q0 -141 85 -217q71 -62 169 -62q113 0 187 80q68 74 68 201q0 139 -85 214q-71 62 -172 62z" />
    <glyph glyph-name="yen" unicode="&#xa5;" horiz-adv-x="1336" 
d="M223 652h259l-33 57h-226v204h110l-257 452h305l287 -518h2l286 518h303l-256 -452h110v-204h-226l-32 -57h258v-204h-308v-448h-273v448h-309v204z" />
    <glyph glyph-name="brokenbar" unicode="&#xa6;" horiz-adv-x="1083" 
d="M412 795v696h258v-696h-258zM412 -360v696h258v-696h-258z" />
    <glyph glyph-name="section" unicode="&#xa7;" horiz-adv-x="1182" 
d="M973 124q69 -95 69 -220q0 -183 -131 -302q-122 -110 -329 -110q-206 0 -339 118q-86 76 -160 210l230 144q22 -39 58 -93q86 -125 218 -125q93 0 140 54q39 43 39 104q0 52 -42 90t-152 80l-122 47q-314 120 -314 378q0 149 99 262q-76 97 -76 226q0 178 133 295
q130 115 322 115q141 0 242 -62q100 -63 192 -206l-228 -144q-22 33 -43 60q-47 59 -81 78q-35 20 -91 20q-87 0 -134 -56q-40 -46 -40 -104q0 -84 155 -143l129 -49q154 -58 238 -138q110 -104 110 -259q0 -142 -92 -270zM595 560l-134 51l-3 -4q-50 -55 -50 -108
q0 -37 22 -65q33 -42 134 -80l140 -53l44 -19q42 58 42 110q0 43 -22 71q-36 45 -173 97z" />
    <glyph glyph-name="dieresis" unicode="&#xa8;" horiz-adv-x="975" 
d="M678 1368q62 0 108 -44q45 -43 45 -106q0 -62 -45 -106q-46 -44 -108 -44q-65 0 -109 44q-45 44 -45 108q0 62 46 105q44 43 108 43zM297 1368q69 0 115 -51q38 -43 38 -99q0 -62 -45 -106q-46 -44 -110 -44q-63 0 -107 45q-45 43 -45 107q0 62 46 105q44 43 108 43z" />
    <glyph glyph-name="copyright" unicode="&#xa9;" horiz-adv-x="1710" 
d="M1271 980l-152 -144q-43 46 -69 69q-67 61 -164 61q-124 0 -203 -90q-72 -81 -72 -194q0 -128 92 -211q80 -71 184 -71q67 0 114 26q48 26 122 105l152 -143l-35 -35q-158 -155 -352 -155q-222 0 -367 162q-124 137 -124 322q0 130 66 242q66 114 179 179q112 64 246 64
q173 0 298 -107q37 -32 85 -80zM867 1462q200 0 377 -105q183 -107 286 -285q104 -179 104 -389q0 -208 -104 -390q-105 -180 -286 -285q-181 -104 -389 -104t-389 104q-183 106 -286 285q-104 182 -104 396q0 337 258 572q220 201 533 201zM845 1285q-155 0 -291 -81
q-140 -83 -220 -220q-81 -140 -81 -301t81 -301q80 -140 220 -220q140 -81 301 -81t301 81q141 81 220 220q81 140 81 306q0 260 -200 442q-170 155 -412 155z" />
    <glyph glyph-name="ordfeminine" unicode="&#xaa;" horiz-adv-x="712" 
d="M650 1376v-545h-182v23q-62 -45 -133 -45q-129 0 -219 97q-74 80 -74 193q0 133 99 222q86 77 195 77q69 0 132 -45v23h182zM350 1236q-56 0 -90.5 -37.5t-34.5 -97.5q0 -59 33.5 -94t90.5 -35q55 0 88 36.5t33 97.5q0 58 -33.5 94t-86.5 36z" />
    <glyph glyph-name="guillemotleft" unicode="&#xab;" horiz-adv-x="1043" 
d="M965 772l-250 -317l251 -309l-178 -141l-365 449l365 458zM591 772l-250 -317l251 -309l-178 -141l-365 449l364 458z" />
    <glyph glyph-name="logicalnot" unicode="&#xac;" horiz-adv-x="1422" 
d="M1311 758v-647h-254v407h-947v240h1201z" />
    <glyph glyph-name="uni00AD" unicode="&#xad;" horiz-adv-x="579" 
d="M49 352v240h481v-240h-481z" />
    <glyph glyph-name="registered" unicode="&#xae;" horiz-adv-x="1710" 
d="M867 1462q200 0 377 -105q182 -106 286 -285t104 -389q0 -208 -104 -390q-103 -181 -286 -285q-181 -104 -389 -104t-389 104q-183 106 -286 285q-104 182 -104 396q0 337 258 572q220 201 533 201zM1242 222h-210l-180 323q-13 -1 -46 -1h-29v-322h-211v921h244
q139 0 218 -44q66 -37 105 -105q41 -71 41 -154q0 -144 -120 -236l206 -367q46 41 77 85q120 161 120 362q0 160 -81 300q-79 138 -220 220q-140 81 -301 81t-301 -81q-140 -80 -220 -220q-81 -140 -81 -301t81 -301q79 -138 220 -220q140 -81 300 -81q217 0 388 141z
M777 947v-207h44q76 0 110.5 24t34.5 78q0 55 -34.5 80t-110.5 25h-44z" />
    <glyph glyph-name="overscore" unicode="&#xaf;" horiz-adv-x="975" 
d="M156 1097v225h664v-225h-664z" />
    <glyph glyph-name="degree" unicode="&#xb0;" horiz-adv-x="671" 
d="M409 1523q125 0 214 -98q75 -83 75 -195q0 -132 -97 -220q-84 -75 -197 -75q-131 0 -219 97q-75 84 -75 200q0 127 97 215q83 76 202 76zM402 1341q-46 0 -77 -33q-33 -33 -33 -78q0 -47 33 -80t79 -33q47 0 79.5 33t32.5 81q0 45 -33 78q-35 32 -81 32z" />
    <glyph glyph-name="plusminus" unicode="&#xb1;" horiz-adv-x="1139" 
d="M41 921h407v396h242v-396h407v-236h-407v-397h-242v397h-407v236zM41 237h1056v-237h-1056v237z" />
    <glyph glyph-name="twosuperior" unicode="&#xb2;" 
d="M689 831h-572v139l293 310q75 78 75 138q0 72 -87 72q-50 0 -73 -23q-22 -24 -45 -101l-175 46q18 89 63 148q77 99 229 99q140 0 215 -83q60 -66 60 -161q0 -117 -92 -215l-188 -199h297v-170z" />
    <glyph glyph-name="threesuperior" unicode="&#xb3;" 
d="M303 1171v164h81q97 0 97 77q0 35 -24 56.5t-64 21.5q-39 0 -64 -17q-23 -16 -63 -71l-156 82q33 55 64 89q80 86 216 86q138 0 216 -87q61 -67 61 -157q0 -86 -65 -153q83 -81 83 -181q0 -118 -86 -193q-85 -75 -213 -75q-84 0 -152 36.5t-105 100.5q-17 31 -40 117
l181 45q21 -77 45 -103q23 -26 73 -26q49 0 79 27t30 71q0 90 -113 90h-81z" />
    <glyph glyph-name="acute" unicode="&#xb4;" horiz-adv-x="975" 
d="M583 1447l245 -126l-333 -323l-177 97z" />
    <glyph glyph-name="mu" unicode="&#xb5;" horiz-adv-x="1044" 
d="M365 23v-501h-262v1386h262v-479q0 -114 26 -164q31 -60 122 -60q45 0 83.5 18.5t55.5 48.5q28 49 28 179v457h262v-908h-262v42q-48 -42 -84.5 -58t-83.5 -16q-77 0 -147 55z" />
    <glyph glyph-name="paragraph" unicode="&#xb6;" horiz-adv-x="1320" 
d="M783 1143v-1621h-231v883q-114 15 -176 45q-127 63 -201 188q-65 113 -65 245q0 219 157 360q134 122 322 122h655v-222h-128v-1621h-231v1621h-102z" />
    <glyph glyph-name="middot" unicode="&#xb7;" horiz-adv-x="529" 
d="M264 839q72 0 120 -53q40 -43 40 -103q0 -69 -52 -115q-46 -41 -107 -41q-67 0 -113 46q-47 47 -47 112q0 62 47 109q47 45 112 45z" />
    <glyph glyph-name="cedilla" unicode="&#xb8;" horiz-adv-x="975" 
d="M496 -39l237 -98l-274 -336l-190 91z" />
    <glyph glyph-name="onesuperior" unicode="&#xb9;" 
d="M523 1640v-809h-188v587l-87 -47l-91 148l223 121h143z" />
    <glyph glyph-name="ordmasculine" unicode="&#xba;" horiz-adv-x="699" 
d="M354 1397q136 0 227 -99q76 -80 76 -194q0 -131 -98 -217q-88 -77 -210 -77q-139 0 -231 98q-76 82 -76 196q0 110 71 190q93 103 241 103zM349 1234q-55 0 -89 -36t-34 -94q0 -59 34 -95t90 -36t89.5 36.5t33.5 96.5q0 57 -34.5 92.5t-89.5 35.5z" />
    <glyph glyph-name="guillemotright" unicode="&#xbb;" horiz-adv-x="1043" 
d="M451 146l251 309l-250 317l177 140l365 -458l-365 -449zM77 146l250 309l-249 317l177 140l365 -458l-365 -449z" />
    <glyph glyph-name="onequarter" unicode="&#xbc;" horiz-adv-x="1707" 
d="M1256 840l155 -91l-280 -422h114v153h187v-153h85v-168h-85v-159h-187v159h-346v144zM312 52l778 1345l148 -85l-779 -1345zM461 1365v-809h-188v587l-87 -47l-91 148l223 121h143z" />
    <glyph glyph-name="onehalf" unicode="&#xbd;" horiz-adv-x="1707" 
d="M310 52l778 1345l148 -85l-779 -1345zM459 1365v-809h-188v587l-87 -47l-91 148l223 121h143zM1573 0h-572v139l293 310q75 79 75 138q0 71 -87 71q-50 0 -73 -23q-22 -22 -45 -100l-175 46q55 247 293 247q139 0 214 -83q60 -66 60 -161q0 -118 -92 -215l-188 -199h297
v-170z" />
    <glyph glyph-name="threequarters" unicode="&#xbe;" horiz-adv-x="1707" 
d="M1333 840l156 -91l-280 -422h114v153h187v-153h85v-168h-85v-159h-187v159h-346v144zM435 52l778 1345l147 -85l-778 -1345zM296 896v164h81q97 0 97 77q0 35 -24 56.5t-64 21.5q-41 0 -63 -16q-23 -16 -64 -72l-156 82q36 57 64 88q79 87 216 87t216 -87q61 -67 61 -156
q0 -87 -65 -154q83 -81 83 -181q0 -118 -86 -193t-213 -75q-84 0 -152 36.5t-105 100.5q-19 33 -40 117l181 45q21 -78 45 -103q23 -26 73 -26q49 0 79 27t30 71q0 90 -113 90h-81z" />
    <glyph glyph-name="questiondown" unicode="&#xbf;" horiz-adv-x="904" 
d="M357 625h269v-129q0 -99 -26 -156q-25 -53 -106 -121l-82 -70q-100 -82 -100 -170q0 -62 41 -98t111 -36q74 0 120 33t111 132l201 -161q-54 -94 -112 -145q-125 -113 -317 -113q-215 0 -330 129q-95 107 -95 259q0 98 31 161q43 88 146 184l92 86q33 29 40 44q6 14 6 58
v113zM494 1017q66 0 112 -46t46 -112q0 -63 -47 -108q-46 -46 -112 -46q-72 0 -120 53q-40 43 -40 103q0 64 47 111q46 45 114 45z" />
    <glyph glyph-name="Agrave" unicode="&#xc0;" horiz-adv-x="1316" 
d="M1040 0l-113 318h-540l-113 -318h-287l510 1365h322l510 -1365h-289zM477 571h360l-180 504zM646 1417l-333 323l245 126l265 -352z" />
    <glyph glyph-name="Aacute" unicode="&#xc1;" horiz-adv-x="1316" 
d="M753 1866l244 -126l-333 -323l-177 97zM1040 0l-113 318h-540l-113 -318h-287l510 1365h322l510 -1365h-289zM477 571h360l-180 504z" />
    <glyph glyph-name="Acircumflex" unicode="&#xc2;" horiz-adv-x="1316" 
d="M1040 0l-113 318h-540l-113 -318h-287l510 1365h322l510 -1365h-289zM477 571h360l-180 504zM658 1589l-179 -170l-199 95l297 314h162l297 -314l-199 -95z" />
    <glyph glyph-name="Atilde" unicode="&#xc3;" horiz-adv-x="1316" 
d="M1040 0l-113 318h-540l-113 -318h-287l510 1365h322l510 -1365h-289zM477 571h360l-180 504zM773 1788l219 -49q-7 -109 -42 -166q-24 -40 -71 -64.5t-101 -24.5q-84 0 -162 42q-33 18 -52 18q-8 0 -12 -6q-1 -3 -15 -68l-213 48q26 255 219 255q69 0 161 -47
q34 -17 49 -17q9 0 12 10q4 13 8 69z" />
    <glyph glyph-name="Adieresis" unicode="&#xc4;" horiz-adv-x="1316" 
d="M1040 0l-113 318h-540l-113 -318h-287l510 1365h322l510 -1365h-289zM477 571h360l-180 504zM849 1778q62 0 108 -44q45 -43 45 -106q0 -62 -45 -106q-46 -44 -110 -44q-63 0 -107 45q-45 44 -45 107q0 62 46 105q44 43 108 43zM468 1778q62 0 108 -44q45 -43 45 -106
q0 -62 -45 -106q-46 -44 -110 -44t-108 45q-44 44 -44 108q0 61 46 104q44 43 108 43z" />
    <glyph glyph-name="Aring" unicode="&#xc5;" horiz-adv-x="1316" 
d="M657 1851q107 0 177 -78q59 -65 59 -153q0 -103 -77 -172q-68 -60 -158 -60q-97 0 -167 68q-69 68 -69 167q0 97 78 168q64 60 157 60zM657 1725q-44 0 -74.5 -31t-30.5 -76q0 -41 32 -73q31 -31 73 -31q44 0 75 31t31 75t-31 74.5t-75 30.5zM1040 0l-113 318h-540
l-113 -318h-287l510 1365h322l510 -1365h-289zM477 571h360l-180 504z" />
    <glyph glyph-name="AE" unicode="&#xc6;" horiz-adv-x="1730" 
d="M865 0v318h-410l-164 -318h-305l719 1365h943v-251h-511v-297h454v-252h-454v-312h530v-253h-802zM587 571h278v511h-14z" />
    <glyph glyph-name="Ccedilla" unicode="&#xc7;" horiz-adv-x="1381" 
d="M1333 1137l-194 -182q-69 75 -123 113q-103 73 -233 73q-199 0 -330 -146q-117 -132 -117 -313q0 -210 150 -343q127 -115 298 -115q102 0 182 42t180 147l193 -182q-100 -103 -181 -155q-166 -108 -372 -108q-202 0 -375 101q-159 94 -254 256q-97 166 -97 357
q0 190 97 356q98 170 265 264q167 95 363 95q159 0 288 -61q128 -61 260 -199zM699 -39l238 -98l-275 -336l-189 91z" />
    <glyph glyph-name="Egrave" unicode="&#xc8;" horiz-adv-x="1002" 
d="M137 1365h782v-251h-510v-297h453v-252h-453v-312h529v-253h-801v1365zM544 1417l-334 323l245 126l265 -352z" />
    <glyph glyph-name="Eacute" unicode="&#xc9;" horiz-adv-x="1002" 
d="M137 1365h782v-251h-510v-297h453v-252h-453v-312h529v-253h-801v1365zM622 1866l245 -126l-334 -323l-176 97z" />
    <glyph glyph-name="Ecircumflex" unicode="&#xca;" horiz-adv-x="1002" 
d="M137 1365h782v-251h-510v-297h453v-252h-453v-312h529v-253h-801v1365zM538 1589l-179 -170l-199 95l298 314h162l297 -314l-199 -95z" />
    <glyph glyph-name="Edieresis" unicode="&#xcb;" horiz-adv-x="1002" 
d="M137 1365h782v-251h-510v-297h453v-252h-453v-312h529v-253h-801v1365zM728 1778q63 0 109 -44q45 -43 45 -106q0 -66 -50 -111q-44 -39 -103 -39q-65 0 -109 44q-45 44 -45 108q0 62 46 105q44 43 107 43zM347 1778q63 0 109 -44q44 -44 44 -106t-45 -106
q-46 -44 -110 -44q-63 0 -107 45q-45 43 -45 108q0 61 46 104q44 43 108 43z" />
    <glyph glyph-name="Igrave" unicode="&#xcc;" horiz-adv-x="547" 
d="M138 1365h273v-1365h-273v1365zM252 1417l-333 323l245 126l265 -352z" />
    <glyph glyph-name="Iacute" unicode="&#xcd;" horiz-adv-x="547" 
d="M137 1365h273v-1365h-273v1365zM376 1866l245 -126l-333 -323l-177 97z" />
    <glyph glyph-name="Icircumflex" unicode="&#xce;" horiz-adv-x="547" 
d="M138 1365h273v-1365h-273v1365zM274 1589l-179 -170l-199 95l297 314h162l297 -314l-199 -95z" />
    <glyph glyph-name="Idieresis" unicode="&#xcf;" horiz-adv-x="547" 
d="M138 1365h273v-1365h-273v1365zM109 1778q63 0 109 -44q44 -44 44 -106t-45 -106q-46 -44 -108 -44q-64 0 -110 44q-44 44 -44 108q0 62 46 105q44 43 108 43zM441 1778q62 0 108 -44q45 -43 45 -106q0 -62 -45 -106q-46 -44 -110 -44q-63 0 -107 45q-45 43 -45 107
q0 62 46 105q44 43 108 43z" />
    <glyph glyph-name="Eth" unicode="&#xd0;" horiz-adv-x="1295" 
d="M35 856h127v509h325q128 0 254 -32q122 -32 208 -89q286 -190 286 -561q0 -341 -243 -531q-194 -152 -505 -152h-325v610h-127v246zM435 1112v-256h292v-246h-292v-357h58q162 0 274 64q194 113 194 366t-194 364q-113 65 -274 65h-58z" />
    <glyph glyph-name="Ntilde" unicode="&#xd1;" horiz-adv-x="1450" 
d="M410 0h-273v1365h231l671 -889v889h273v-1365h-231l-671 889v-889zM847 1788l219 -49q-7 -109 -42 -166q-24 -40 -71.5 -64.5t-101.5 -24.5q-83 0 -161 42q-31 16 -53 18q-7 0 -11 -6q-3 -5 -15 -68l-214 48q25 255 220 255q67 0 161 -47q34 -17 48 -17q10 0 13 10
q3 23 8 69z" />
    <glyph glyph-name="Ograve" unicode="&#xd2;" horiz-adv-x="1562" 
d="M772 1417l-333 323l245 126l265 -352zM780 1397q316 0 534 -237q188 -205 188 -478q0 -190 -98 -357q-94 -159 -257 -256q-172 -101 -364 -101q-275 0 -482 183q-241 214 -241 540q0 187 98 348q104 170 267 263q167 95 355 95zM778 1141q-192 0 -324 -148
q-118 -130 -118 -318q0 -97 41 -187t115 -153q127 -111 289 -111q113 0 217 60q108 61 167 166q61 106 61 232q0 207 -151 345q-125 114 -297 114z" />
    <glyph glyph-name="Oacute" unicode="&#xd3;" horiz-adv-x="1562" 
d="M780 1397q316 0 534 -237q188 -205 188 -478q0 -190 -98 -357q-94 -159 -257 -256q-172 -101 -364 -101q-275 0 -482 183q-241 214 -241 540q0 187 98 348q104 170 267 263q167 95 355 95zM778 1141q-192 0 -324 -148q-118 -130 -118 -318q0 -97 41 -187t115 -153
q127 -111 289 -111q113 0 217 60q108 61 167 166q61 106 61 232q0 207 -151 345q-125 114 -297 114zM879 1866l245 -126l-333 -323l-177 97z" />
    <glyph glyph-name="Ocircumflex" unicode="&#xd4;" horiz-adv-x="1562" 
d="M780 1397q316 0 534 -237q188 -205 188 -478q0 -190 -98 -357q-94 -159 -257 -256q-172 -101 -364 -101q-275 0 -482 183q-241 214 -241 540q0 187 98 348q104 170 267 263q167 95 355 95zM778 1141q-192 0 -324 -148q-118 -130 -118 -318q0 -97 41 -187t115 -153
q127 -111 289 -111q113 0 217 60q108 61 167 166q61 106 61 232q0 207 -151 345q-125 114 -297 114zM781 1589l-179 -170l-199 95l297 314h162l297 -314l-199 -95z" />
    <glyph glyph-name="Otilde" unicode="&#xd5;" horiz-adv-x="1562" 
d="M780 1397q316 0 534 -237q188 -205 188 -478q0 -190 -98 -357q-94 -159 -257 -256q-172 -101 -364 -101q-275 0 -482 183q-241 214 -241 540q0 187 98 348q104 170 267 263q167 95 355 95zM778 1141q-192 0 -324 -148q-118 -130 -118 -318q0 -97 41 -187t115 -153
q127 -111 289 -111q113 0 217 60q108 61 167 166q61 106 61 232q0 207 -151 345q-125 114 -297 114zM897 1788l219 -49q-9 -109 -42 -166q-25 -40 -72 -64.5t-101 -24.5q-85 0 -161 42q-31 16 -53 18q-7 0 -12 -6q-3 -9 -14 -68l-214 48q25 255 220 255q67 0 161 -47
q32 -17 48 -17q10 0 13 10q3 23 8 69z" />
    <glyph glyph-name="Odieresis" unicode="&#xd6;" horiz-adv-x="1562" 
d="M780 1397q316 0 534 -237q188 -205 188 -478q0 -190 -98 -357q-94 -159 -257 -256q-172 -101 -364 -101q-275 0 -482 183q-241 214 -241 540q0 187 98 348q104 170 267 263q167 95 355 95zM778 1141q-192 0 -324 -148q-118 -130 -118 -318q0 -97 41 -187t115 -153
q127 -111 289 -111q113 0 217 60q108 61 167 166q61 106 61 232q0 207 -151 345q-125 114 -297 114zM972 1778q63 0 109 -44q44 -44 44 -106t-45 -106q-46 -44 -110 -44t-107 45q-45 43 -45 108q0 61 46 104q44 43 108 43zM591 1778q62 0 108 -44q45 -43 45 -106
q0 -62 -45 -106q-46 -44 -110 -44q-63 0 -107 45q-45 43 -45 108q0 61 46 104q44 43 108 43z" />
    <glyph glyph-name="multiply" unicode="&#xd7;" horiz-adv-x="1139" 
d="M112 350l289 289l-289 289l169 169l289 -289l288 289l169 -169l-288 -289l288 -289l-169 -169l-288 289l-289 -289z" />
    <glyph glyph-name="Oslash" unicode="&#xd8;" horiz-adv-x="1577" 
d="M1343 1371l149 -144l-125 -122q142 -193 142 -421q0 -189 -95 -353q-96 -168 -266 -266q-169 -97 -361 -97q-232 0 -432 145l-122 -119l-149 144l124 122q-141 188 -141 420q0 190 98 359q98 167 267 263q167 95 357 95q238 0 432 -146zM1172 914l-626 -614
q115 -76 243 -76q113 0 216 60q108 62 167 166q61 106 61 229t-61 235zM404 451l628 615q-112 75 -243 75q-198 0 -328 -148q-118 -130 -118 -310q0 -126 61 -232z" />
    <glyph glyph-name="Ugrave" unicode="&#xd9;" horiz-adv-x="1315" 
d="M137 1365h273v-837q0 -145 29 -195q29 -49 89 -78q61 -31 129 -31t129 31q62 32 89 78q29 52 29 195v837h273v-874q0 -172 -61 -275q-62 -108 -176 -173q-130 -75 -283 -75q-213 0 -364 133q-84 75 -119 164q-37 89 -37 226v874zM655 1417l-334 323l245 126l265 -352z
" />
    <glyph glyph-name="Uacute" unicode="&#xda;" horiz-adv-x="1315" 
d="M137 1365h273v-837q0 -145 29 -195q29 -49 89 -78q61 -31 129 -31t129 31q62 32 89 78q29 52 29 195v837h273v-874q0 -172 -61 -275q-62 -108 -176 -173q-130 -75 -283 -75q-213 0 -364 133q-84 75 -119 164q-37 89 -37 226v874zM748 1866l245 -126l-333 -323l-177 97z
" />
    <glyph glyph-name="Ucircumflex" unicode="&#xdb;" horiz-adv-x="1315" 
d="M137 1365h273v-837q0 -145 29 -195q29 -49 89 -78q61 -31 129 -31t129 31q62 32 89 78q29 52 29 195v837h273v-874q0 -172 -61 -275q-62 -108 -176 -173q-130 -75 -283 -75q-213 0 -364 133q-84 75 -119 164q-37 89 -37 226v874zM657 1589l-179 -170l-199 95l297 314h162
l297 -314l-199 -95z" />
    <glyph glyph-name="Udieresis" unicode="&#xdc;" horiz-adv-x="1315" 
d="M137 1365h273v-837q0 -145 29 -195q29 -49 89 -78q61 -31 129 -31t129 31q62 32 89 78q29 52 29 195v837h273v-874q0 -172 -61 -275q-62 -108 -176 -173q-130 -75 -283 -75q-213 0 -364 133q-84 75 -119 164q-37 89 -37 226v874zM848 1778q65 0 109 -43q44 -44 44 -107
q0 -62 -45 -106q-46 -44 -110 -44t-107 45q-45 43 -45 108q0 61 46 104q44 43 108 43zM466 1778q68 0 115 -51q39 -42 39 -99q0 -66 -50 -111q-44 -39 -103 -39q-65 0 -109 44q-45 44 -45 108q0 62 45 105q44 43 108 43z" />
    <glyph glyph-name="Yacute" unicode="&#xdd;" horiz-adv-x="1131" 
d="M430 0v564l-456 801h305l288 -521l287 521h304l-455 -801v-564h-273zM657 1866l244 -126l-333 -323l-177 97z" />
    <glyph glyph-name="Thorn" unicode="&#xde;" horiz-adv-x="979" 
d="M410 1365v-176h52q190 0 297 -60q91 -52 146 -146q59 -104 59 -228q0 -174 -109 -296q-68 -75 -157 -106q-92 -33 -236 -33h-52v-320h-273v1365h273zM479 940h-70v-373h70q130 0 175 53q44 52 44 134q0 97 -52.5 141.5t-166.5 44.5z" />
    <glyph glyph-name="germandbls" unicode="&#xdf;" horiz-adv-x="1085" 
d="M541 0h-112v242h117q108 0 164 63q47 55 47 127q0 86 -55.5 131.5t-159.5 45.5h-50v237h50q123 0 123 149q0 91 -49 134q-40 35 -101 35q-72 0 -112 -46q-38 -46 -38 -122v-996h-262v996q0 233 194 346q94 55 208 55q203 0 319 -129q98 -110 98 -267q0 -128 -86 -235
q184 -123 184 -342q0 -185 -134 -308q-128 -116 -345 -116z" />
    <glyph glyph-name="agrave" unicode="&#xe0;" horiz-adv-x="1113" 
d="M1011 908v-908h-262v51q-113 -83 -236 -83q-122 0 -229 62q-110 65 -173 174q-66 114 -66 251q0 221 159 365q134 120 309 120q123 0 236 -83v51h262zM529 703q-96 0 -160 -70q-60 -65 -60 -182q0 -125 76 -191q62 -55 147 -55q97 0 159 68q61 67 61 183q0 127 -76 194
q-61 53 -147 53zM519 999l-333 322l244 126l265 -351z" />
    <glyph glyph-name="aacute" unicode="&#xe1;" horiz-adv-x="1113" 
d="M639 1448l244 -127l-333 -322l-177 97zM1011 908v-908h-262v51q-113 -83 -236 -83q-122 0 -229 62q-110 65 -173 174q-66 114 -66 251q0 221 159 365q134 120 309 120q123 0 236 -83v51h262zM529 703q-96 0 -160 -70q-60 -65 -60 -182q0 -125 76 -191q62 -55 147 -55
q97 0 159 68q61 67 61 183q0 127 -76 194q-61 53 -147 53z" />
    <glyph glyph-name="acircumflex" unicode="&#xe2;" horiz-adv-x="1113" 
d="M1011 908v-908h-262v51q-113 -83 -236 -83q-122 0 -229 62q-110 65 -173 174q-66 114 -66 251q0 221 159 365q134 120 309 120q123 0 236 -83v51h262zM529 703q-96 0 -160 -70q-60 -65 -60 -182q0 -125 76 -191q62 -55 147 -55q97 0 159 68q61 67 61 183q0 127 -76 194
q-61 53 -147 53zM905 1096l-198 -95l-179 174l-179 -174l-198 95l296 313h162z" />
    <glyph glyph-name="atilde" unicode="&#xe3;" horiz-adv-x="1113" 
d="M1011 908v-908h-262v51q-113 -83 -236 -83q-122 0 -229 62q-110 65 -173 174q-66 114 -66 251q0 221 159 365q134 120 309 120q123 0 236 -83v51h262zM529 703q-96 0 -160 -70q-60 -65 -60 -182q0 -125 76 -191q62 -55 147 -55q97 0 159 68q61 67 61 183q0 127 -76 194
q-61 53 -147 53zM643 1369l219 -49q-8 -110 -42 -165q-24 -41 -71 -65.5t-101 -24.5q-84 0 -162 42q-33 18 -52 18q-8 0 -12 -6q-1 -3 -15 -68l-214 48q25 255 220 255q69 0 161 -48q31 -16 49 -16q9 0 12 10q3 23 8 69z" />
    <glyph glyph-name="adieresis" unicode="&#xe4;" horiz-adv-x="1113" 
d="M1011 908v-908h-262v51q-113 -83 -236 -83q-122 0 -229 62q-110 65 -173 174q-66 114 -66 251q0 221 159 365q134 120 309 120q123 0 236 -83v51h262zM529 703q-96 0 -160 -70q-60 -65 -60 -182q0 -125 76 -191q62 -55 147 -55q97 0 159 68q61 67 61 183q0 127 -76 194
q-61 53 -147 53zM736 1368q63 0 109 -44q44 -44 44 -106q0 -66 -50 -111q-43 -39 -103 -39q-65 0 -109 44q-45 44 -45 108q0 62 46 105q44 43 108 43zM355 1368q69 0 114 -51q39 -42 39 -99q0 -62 -45 -106q-46 -44 -108 -44q-65 0 -109 44q-45 44 -45 108q0 62 46 105
q44 43 108 43z" />
    <glyph glyph-name="aring" unicode="&#xe5;" horiz-adv-x="1113" 
d="M551 1441q107 0 177 -78q59 -65 59 -153q0 -103 -76 -172q-67 -60 -161 -60q-104 0 -174 78q-60 66 -60 157q0 97 78 168q64 60 157 60zM551 1315q-44 0 -74.5 -31t-30.5 -76q0 -41 32 -73q31 -31 73 -31q44 0 75 31t31 75t-31 74.5t-75 30.5zM1011 908v-908h-262v51
q-113 -83 -236 -83q-122 0 -229 62q-110 65 -173 174q-66 114 -66 251q0 221 159 365q134 120 309 120q123 0 236 -83v51h262zM529 703q-96 0 -160 -70q-60 -65 -60 -182q0 -125 76 -191q62 -55 147 -55q97 0 159 68q61 67 61 183q0 127 -76 194q-61 53 -147 53z" />
    <glyph glyph-name="ae" unicode="&#xe6;" horiz-adv-x="1640" 
d="M829 818q133 122 308 122q202 0 335 -148q67 -73 99 -187q24 -84 24 -174q0 -39 -1 -68h-651q49 -163 206 -163q129 0 203 116l229 -91q-158 -257 -434 -257q-177 0 -312 117q-115 -117 -347 -117q-172 0 -288 67q-156 89 -156 254q0 159 139 238q106 61 276 61h200
q-22 66 -66 95t-121 29q-129 0 -272 -97l-137 169q119 88 212 121q99 35 220 35q220 0 334 -122zM943 546h392q-53 165 -195 165q-155 0 -197 -165zM669 312v93h-183q-181 0 -181 -105q0 -43 29 -66q48 -39 153 -39q182 0 182 117z" />
    <glyph glyph-name="ccedilla" unicode="&#xe7;" horiz-adv-x="944" 
d="M450 -39l238 -98l-275 -336l-190 91zM921 760l-168 -174q-65 68 -112 94q-44 23 -106 23q-102 0 -166 -70q-60 -65 -60 -181q0 -124 75 -192q61 -55 152 -55q64 0 114 28t109 96l167 -174q-70 -76 -129 -112q-119 -75 -261 -75q-226 0 -369 161q-122 139 -122 325
q0 219 157 361q139 125 334 125q111 0 201 -42q89 -42 184 -138z" />
    <glyph glyph-name="egrave" unicode="&#xe8;" horiz-adv-x="1010" 
d="M507 998l-333 323l244 126l266 -352zM722 316l230 -91q-159 -257 -431 -257q-216 0 -352 154q-124 137 -124 332q0 222 156 366q130 120 308 120q201 0 334 -148q123 -138 123 -357q0 -4 -0.5 -13t-1 -26t-0.5 -33h-650q49 -163 206 -163q131 0 202 116zM314 546h392
q-54 165 -196 165q-152 0 -196 -165z" />
    <glyph glyph-name="eacute" unicode="&#xe9;" horiz-adv-x="1010" 
d="M593 1447l244 -126l-333 -323l-177 97zM722 316l230 -91q-159 -257 -431 -257q-216 0 -352 154q-124 137 -124 332q0 222 156 366q130 120 308 120q201 0 334 -148q123 -138 123 -357q0 -4 -0.5 -13t-1 -26t-0.5 -33h-650q49 -163 206 -163q131 0 202 116zM314 546h392
q-54 165 -196 165q-152 0 -196 -165z" />
    <glyph glyph-name="ecircumflex" unicode="&#xea;" horiz-adv-x="1010" 
d="M722 316l230 -91q-159 -257 -431 -257q-216 0 -352 154q-124 137 -124 332q0 222 156 366q130 120 308 120q201 0 334 -148q123 -138 123 -357q0 -4 -0.5 -13t-1 -26t-0.5 -33h-650q49 -163 206 -163q131 0 202 116zM314 546h392q-54 165 -196 165q-152 0 -196 -165z
M882 1096l-198 -95l-179 174l-179 -174l-199 95l297 313h162z" />
    <glyph glyph-name="edieresis" unicode="&#xeb;" horiz-adv-x="1010" 
d="M722 316l230 -91q-159 -257 -431 -257q-216 0 -352 154q-124 137 -124 332q0 222 156 366q130 120 308 120q201 0 334 -148q123 -138 123 -357q0 -4 -0.5 -13t-1 -26t-0.5 -33h-650q49 -163 206 -163q131 0 202 116zM314 546h392q-54 165 -196 165q-152 0 -196 -165z
M697 1368q69 0 114 -51q39 -42 39 -99q0 -62 -45 -106q-46 -44 -110 -44q-63 0 -107 45q-45 43 -45 107q0 62 46 105q44 43 108 43zM315 1368q69 0 114 -51q39 -42 39 -99q0 -62 -45 -106q-46 -44 -110 -44q-63 0 -107 45q-45 43 -45 107q0 62 46 105q44 43 108 43z" />
    <glyph glyph-name="igrave" unicode="&#xec;" horiz-adv-x="469" 
d="M214 998l-333 323l245 126l265 -352zM104 908h262v-908h-262v908z" />
    <glyph glyph-name="iacute" unicode="&#xed;" horiz-adv-x="469" 
d="M344 1447l245 -126l-333 -323l-177 97zM104 908h262v-908h-262v908z" />
    <glyph glyph-name="icircumflex" unicode="&#xee;" horiz-adv-x="469" 
d="M103 908h262v-908h-262v908zM612 1096l-198 -95l-180 174l-179 -174l-198 95l297 313h161z" />
    <glyph glyph-name="idieresis" unicode="&#xef;" horiz-adv-x="469" 
d="M104 908h262v-908h-262v908zM401 1368q69 0 114 -51q39 -42 39 -99q0 -62 -45 -106q-46 -44 -108 -44q-65 0 -109 44q-45 44 -45 108q0 62 46 105q44 43 108 43zM69 1368q69 0 115 -51q38 -43 38 -99q0 -62 -45 -106q-46 -44 -110 -44q-63 0 -108 45q-44 44 -44 107
q0 62 45 105q46 43 109 43z" />
    <glyph glyph-name="eth" unicode="&#xf0;" horiz-adv-x="1067" 
d="M929 1360l-195 -100q122 -140 198 -315q91 -210 91 -450q0 -266 -163 -407q-140 -120 -327 -120q-222 0 -366 161q-122 137 -122 325q0 218 158 361q139 125 326 125q81 0 168 -29l-3 6q-82 141 -175 233l-206 -105l-170 152l163 83q-84 34 -204 72l121 177
q184 -48 329 -126l218 108zM531 703q-62 0 -115 -32q-107 -65 -107 -214q0 -130 76 -197q62 -55 148 -55q100 0 164 70q60 66 60 181q0 126 -76 192q-61 55 -150 55z" />
    <glyph glyph-name="ntilde" unicode="&#xf1;" horiz-adv-x="1044" 
d="M365 908v-42q94 74 207 74q139 0 244 -93q66 -59 96 -143.5t30 -213.5v-490h-262v475q0 119 -26 169q-32 59 -122 59q-45 0 -83.5 -18.5t-55.5 -49.5q-28 -49 -28 -178v-457h-262v908h262zM641 1369l219 -49q-8 -110 -42 -165q-24 -41 -71 -65.5t-101 -24.5
q-84 0 -162 42q-33 18 -52 18q-8 0 -12 -6q-1 -3 -15 -68l-213 48q26 255 219 255q71 0 162 -48q31 -16 48 -16q9 0 12 10q4 13 8 69z" />
    <glyph glyph-name="ograve" unicode="&#xf2;" horiz-adv-x="1065" 
d="M524 999l-332 322l243 126l265 -351zM541 940q212 0 358 -161q122 -137 122 -324q0 -219 -158 -362q-139 -125 -330 -125q-222 0 -366 161q-122 137 -122 329q0 213 158 357q137 125 338 125zM531 703q-62 0 -115 -32q-107 -65 -107 -213q0 -131 76 -198q62 -55 148 -55
q100 0 164 70q60 66 60 181q0 126 -76 192q-61 55 -150 55z" />
    <glyph glyph-name="oacute" unicode="&#xf3;" horiz-adv-x="1065" 
d="M631 1447l243 -126l-332 -322l-176 97zM541 940q212 0 358 -161q122 -137 122 -324q0 -219 -158 -362q-139 -125 -330 -125q-222 0 -366 161q-122 137 -122 329q0 213 158 357q137 125 338 125zM531 703q-62 0 -115 -32q-107 -65 -107 -213q0 -131 76 -198
q62 -55 148 -55q100 0 164 70q60 66 60 181q0 126 -76 192q-61 55 -150 55z" />
    <glyph glyph-name="ocircumflex" unicode="&#xf4;" horiz-adv-x="1065" 
d="M910 1096l-198 -95l-179 174l-179 -174l-198 95l297 313h161zM541 940q212 0 358 -161q122 -137 122 -324q0 -219 -158 -362q-139 -125 -330 -125q-222 0 -366 161q-122 137 -122 329q0 213 158 357q137 125 338 125zM531 703q-62 0 -115 -32q-107 -65 -107 -213
q0 -131 76 -198q62 -55 148 -55q100 0 164 70q60 66 60 181q0 126 -76 192q-61 55 -150 55z" />
    <glyph glyph-name="otilde" unicode="&#xf5;" horiz-adv-x="1065" 
d="M648 1369l219 -49q-7 -110 -42 -165q-24 -41 -71 -65.5t-101 -24.5q-84 0 -162 42q-33 18 -52 18q-7 0 -12 -6q-1 -3 -15 -68l-213 48q25 255 219 255q70 0 162 -48q31 -16 48 -16q9 0 12 10q4 13 8 69zM541 940q212 0 358 -161q122 -137 122 -324q0 -219 -158 -362
q-139 -125 -330 -125q-222 0 -366 161q-122 137 -122 329q0 213 158 357q137 125 338 125zM531 703q-62 0 -115 -32q-107 -65 -107 -213q0 -131 76 -198q62 -55 148 -55q100 0 164 70q60 66 60 181q0 126 -76 192q-61 55 -150 55z" />
    <glyph glyph-name="odieresis" unicode="&#xf6;" horiz-adv-x="1065" 
d="M541 940q212 0 358 -161q122 -137 122 -324q0 -219 -158 -362q-139 -125 -330 -125q-222 0 -366 161q-122 137 -122 329q0 213 158 357q137 125 338 125zM531 703q-62 0 -115 -32q-107 -65 -107 -213q0 -131 76 -198q62 -55 148 -55q100 0 164 70q60 66 60 181
q0 126 -76 192q-61 55 -150 55zM722 1368q69 0 114 -51q39 -42 39 -99q0 -62 -45 -106q-46 -44 -108 -44q-65 0 -109 44q-45 44 -45 108q0 62 46 105q44 43 108 43zM341 1368q69 0 115 -51q38 -43 38 -99q0 -62 -45 -106q-46 -44 -108 -44q-65 0 -109 44q-45 44 -45 108
q0 62 46 105q44 43 108 43z" />
    <glyph glyph-name="divide" unicode="&#xf7;" horiz-adv-x="1139" 
d="M76 758h987v-238h-987v238zM573 1167q65 0 113 -48q48 -50 48 -116q0 -73 -55 -122q-47 -42 -109 -42q-72 0 -122 54q-42 47 -42 111q0 68 49 116q50 47 118 47zM573 440q69 0 119 -54q42 -47 42 -110q0 -73 -55 -122q-47 -42 -109 -42q-72 0 -122 54q-42 46 -42 111
q0 68 49 116q50 47 118 47z" />
    <glyph glyph-name="oslash" unicode="&#xf8;" horiz-adv-x="1093" 
d="M58 119l76 71q-76 119 -76 263q0 219 158 362q139 125 332 125q156 0 287 -91l70 65l129 -125l-76 -71q76 -113 76 -265q0 -217 -158 -360q-139 -125 -332 -125q-160 0 -287 92l-69 -66zM332 376l321 302q-50 26 -107 26q-101 0 -164 -70q-61 -67 -61 -177q0 -42 11 -81z
M760 532l-320 -302q54 -26 107 -26q97 0 162 69q62 68 62 184q0 40 -11 75z" />
    <glyph glyph-name="ugrave" unicode="&#xf9;" horiz-adv-x="1044" 
d="M518 998l-334 323l245 126l265 -352zM680 0v42q-95 -74 -206 -74q-140 0 -245 93q-66 59 -96 143.5t-30 213.5v490h262v-475q0 -118 26 -168q31 -60 122 -60q45 0 83.5 18.5t55.5 48.5q28 49 28 179v457h262v-908h-262z" />
    <glyph glyph-name="uacute" unicode="&#xfa;" horiz-adv-x="1044" 
d="M610 1447l245 -126l-334 -323l-176 97zM680 0v42q-95 -74 -206 -74q-140 0 -245 93q-66 59 -96 143.5t-30 213.5v490h262v-475q0 -118 26 -168q31 -60 122 -60q45 0 83.5 18.5t55.5 48.5q28 49 28 179v457h262v-908h-262z" />
    <glyph glyph-name="ucircumflex" unicode="&#xfb;" horiz-adv-x="1044" 
d="M680 0v42q-95 -74 -206 -74q-140 0 -245 93q-66 59 -96 143.5t-30 213.5v490h262v-475q0 -118 26 -168q31 -60 122 -60q45 0 83.5 18.5t55.5 48.5q28 49 28 179v457h262v-908h-262zM900 1096l-198 -95l-179 174l-180 -174l-198 95l297 313h162z" />
    <glyph glyph-name="udieresis" unicode="&#xfc;" horiz-adv-x="1044" 
d="M680 0v42q-95 -74 -206 -74q-140 0 -245 93q-66 59 -96 143.5t-30 213.5v490h262v-475q0 -118 26 -168q31 -60 122 -60q45 0 83.5 18.5t55.5 48.5q28 49 28 179v457h262v-908h-262zM714 1368q68 0 115 -51q38 -43 38 -99q0 -62 -45 -106q-46 -44 -110 -44t-107 45
q-45 43 -45 107q0 62 46 105q44 43 108 43zM333 1368q65 0 109 -43q44 -44 44 -107q0 -62 -45 -106q-46 -44 -108 -44q-65 0 -109 44q-45 44 -45 108q0 62 46 105q44 43 108 43z" />
    <glyph glyph-name="yacute" unicode="&#xfd;" horiz-adv-x="971" 
d="M102 -478l232 524l-359 862h281l220 -542l241 542h280l-619 -1386h-276zM578 1447l245 -126l-333 -323l-177 97z" />
    <glyph glyph-name="thorn" unicode="&#xfe;" horiz-adv-x="1115" 
d="M105 -478v1843h262v-509q112 84 236 84q121 0 228 -62q110 -65 173 -174q66 -114 66 -251q0 -221 -159 -365q-133 -120 -308 -120q-123 0 -236 83v-529h-262zM583 703q-95 0 -157 -68q-61 -67 -61 -184q0 -126 76 -193q59 -53 146 -53q95 0 159 70q60 65 60 182
q0 125 -76 192q-62 54 -147 54z" />
    <glyph glyph-name="ydieresis" unicode="&#xff;" horiz-adv-x="971" 
d="M102 -478l232 524l-359 862h281l220 -542l241 542h280l-619 -1386h-276zM677 1368q65 0 109 -43q44 -44 44 -107q0 -62 -45 -106q-46 -44 -108 -44q-65 0 -109 44q-45 44 -45 108q0 62 46 105q44 43 108 43zM296 1368q62 0 108 -44q45 -44 45 -106t-45 -106
q-46 -44 -108 -44q-65 0 -109 44q-45 44 -45 108q0 62 46 105q44 43 108 43z" />
    <glyph glyph-name="Amacron" unicode="&#x100;" horiz-adv-x="1316" 
d="M1040 0l-113 318h-540l-113 -318h-287l510 1365h322l510 -1365h-289zM477 571h360l-180 504zM326 1516v225h664v-225h-664z" />
    <glyph glyph-name="amacron" unicode="&#x101;" horiz-adv-x="1113" 
d="M1011 908v-908h-262v51q-113 -83 -236 -83q-122 0 -229 62q-110 65 -173 174q-66 114 -66 251q0 221 159 365q134 120 309 120q123 0 236 -83v51h262zM529 703q-96 0 -160 -70q-60 -65 -60 -182q0 -125 76 -191q62 -55 147 -55q97 0 159 68q61 67 61 183q0 127 -76 194
q-61 53 -147 53zM221 1097v225h663v-225h-663z" />
    <glyph glyph-name="Abreve" unicode="&#x102;" horiz-adv-x="1316" 
d="M1040 0l-113 318h-540l-113 -318h-287l510 1365h322l510 -1365h-289zM477 571h360l-180 504zM333 1784l227 18q1 -33 3 -52q5 -105 90 -105q56 0 83 55q7 15 20 102l227 -18q-9 -79 -16 -116q-6 -23 -23 -59q-43 -86 -119 -133t-171 -47q-146 0 -241 101q-69 75 -77 172
q-2 18 -3 82z" />
    <glyph glyph-name="abreve" unicode="&#x103;" horiz-adv-x="1113" 
d="M1011 908v-908h-262v51q-113 -83 -236 -83q-122 0 -229 62q-110 65 -173 174q-66 114 -66 251q0 221 159 365q134 120 309 120q123 0 236 -83v51h262zM529 703q-96 0 -160 -70q-60 -65 -60 -182q0 -125 76 -191q62 -55 147 -55q97 0 159 68q61 67 61 183q0 127 -76 194
q-61 53 -147 53zM208 1365l227 18q2 -36 3 -53q5 -107 90 -107q57 0 83 56q6 11 20 104l227 -18q-9 -79 -16 -116q-4 -23 -23 -59q-43 -86 -119 -133t-171 -47q-146 0 -241 101q-69 75 -77 171q-2 23 -3 83z" />
    <glyph glyph-name="Aogonek" unicode="&#x104;" horiz-adv-x="1316" 
d="M819 1365l510 -1365q-1 -2 -5 -6q-2 -3 -4 -5q-57 -74 -57 -110q0 -16 20 -16q34 0 88 25l79 -190q-130 -48 -196 -48q-123 0 -191 74q-50 58 -50 132q0 64 53 144h-26l-113 318h-540l-113 -318h-287l510 1365h322zM477 571h360l-180 504z" />
    <glyph glyph-name="aogonek" unicode="&#x105;" horiz-adv-x="1113" 
d="M1011 908v-908q-1 -2 -4 -5t-4 -5q-58 -74 -58 -112q0 -15 20 -15q35 0 88 25l79 -190q-131 -48 -196 -48q-124 0 -190 74q-51 56 -51 132q0 64 54 144v51q-113 -83 -236 -83q-122 0 -229 62q-110 65 -173 174q-66 114 -66 251q0 221 159 365q134 120 309 120
q123 0 236 -83v51h262zM529 703q-96 0 -160 -70q-60 -65 -60 -182q0 -125 76 -191q62 -55 147 -55q97 0 159 68q61 67 61 183q0 127 -76 194q-61 53 -147 53z" />
    <glyph glyph-name="Cacute" unicode="&#x106;" horiz-adv-x="1381" 
d="M1333 1137l-194 -182q-69 75 -123 113q-103 73 -233 73q-199 0 -330 -146q-117 -132 -117 -313q0 -210 150 -343q127 -115 298 -115q102 0 182 42t180 147l193 -182q-100 -103 -181 -155q-166 -108 -372 -108q-202 0 -375 101q-159 94 -254 256q-97 166 -97 357
q0 190 97 356q98 170 265 264q167 95 363 95q159 0 288 -61q128 -61 260 -199zM888 1866l245 -126l-333 -323l-177 97z" />
    <glyph glyph-name="cacute" unicode="&#x107;" horiz-adv-x="944" 
d="M607 1447l244 -126l-333 -323l-177 97zM921 760l-168 -174q-65 68 -112 94q-44 23 -106 23q-102 0 -166 -70q-60 -65 -60 -181q0 -124 75 -192q61 -55 152 -55q64 0 114 28t109 96l167 -174q-70 -76 -129 -112q-119 -75 -261 -75q-226 0 -369 161q-122 139 -122 325
q0 219 157 361q139 125 334 125q111 0 201 -42q89 -42 184 -138z" />
    <glyph glyph-name="Ccircumflex" unicode="&#x108;" horiz-adv-x="1381" 
d="M1333 1137l-194 -182q-69 75 -123 113q-103 73 -233 73q-199 0 -330 -146q-117 -132 -117 -313q0 -210 150 -343q127 -115 298 -115q102 0 182 42t180 147l193 -182q-100 -103 -181 -155q-166 -108 -372 -108q-202 0 -375 101q-159 94 -254 256q-97 166 -97 357
q0 190 97 356q98 170 265 264q167 95 363 95q159 0 288 -61q128 -61 260 -199zM764 1589l-179 -170l-199 95l298 314h161l297 -314l-198 -95z" />
    <glyph glyph-name="ccircumflex" unicode="&#x109;" horiz-adv-x="944" 
d="M921 760l-168 -174q-65 68 -110 93q-45 24 -106 24q-104 0 -168 -70q-60 -65 -60 -182q0 -123 75 -191q61 -55 153 -55q64 0 113 28q49 26 109 96l167 -174q-72 -77 -130 -113q-118 -74 -260 -74q-226 0 -369 161q-122 139 -122 325q0 219 157 361q139 125 334 125
q111 0 197 -40q87 -40 188 -140zM891 1096l-199 -95l-179 174l-179 -174l-198 95l297 313h161z" />
    <glyph glyph-name="Cdotaccent" unicode="&#x10a;" horiz-adv-x="1381" 
d="M1333 1137l-194 -182q-69 75 -123 113q-103 73 -233 73q-199 0 -330 -146q-117 -132 -117 -313q0 -210 150 -343q127 -115 298 -115q102 0 182 42t180 147l193 -182q-100 -103 -181 -155q-166 -108 -372 -108q-202 0 -375 101q-159 94 -254 256q-97 166 -97 357
q0 190 97 356q98 170 265 264q167 95 363 95q159 0 288 -61q128 -61 260 -199zM781 1784q72 0 120 -53q40 -43 40 -103q0 -69 -52 -115q-46 -41 -107 -41q-67 0 -113 46q-47 47 -47 112q0 62 47 109q47 45 112 45z" />
    <glyph glyph-name="cdotaccent" unicode="&#x10b;" horiz-adv-x="944" 
d="M921 760l-168 -174q-65 68 -112 94q-44 23 -106 23q-102 0 -166 -70q-60 -65 -60 -181q0 -124 75 -192q61 -55 152 -55q64 0 114 28t109 96l167 -174q-70 -76 -129 -112q-119 -75 -261 -75q-226 0 -369 161q-122 139 -122 325q0 219 157 361q139 125 334 125
q111 0 201 -42q89 -42 184 -138zM520 1374q71 0 119 -53q40 -43 40 -103q0 -65 -46 -110q-46 -46 -115 -46q-66 0 -112 46t-46 113q0 61 47 108q47 45 113 45z" />
    <glyph glyph-name="Ccaron" unicode="&#x10c;" horiz-adv-x="1381" 
d="M1333 1137l-194 -182q-69 75 -123 113q-103 73 -233 73q-199 0 -330 -146q-117 -132 -117 -313q0 -210 150 -343q127 -115 298 -115q102 0 182 42t180 147l193 -182q-100 -103 -181 -155q-166 -108 -372 -108q-202 0 -375 101q-159 94 -254 256q-97 166 -97 357
q0 190 97 356q98 170 265 264q167 95 363 95q159 0 288 -61q128 -61 260 -199zM386 1746l199 95l179 -170l180 170l198 -95l-297 -314h-161z" />
    <glyph glyph-name="ccaron" unicode="&#x10d;" horiz-adv-x="942" 
d="M921 760l-168 -174q-65 68 -112 94q-44 23 -106 23q-102 0 -166 -70q-60 -65 -60 -181q0 -124 75 -192q61 -55 152 -55q64 0 114 28t109 96l167 -174q-70 -76 -129 -112q-119 -75 -261 -75q-226 0 -369 161q-122 139 -122 325q0 219 157 361q139 125 334 125
q111 0 201 -42q89 -42 184 -138zM513 1257l179 174l199 -95l-297 -313h-161l-297 313l198 95z" />
    <glyph glyph-name="Dcaron" unicode="&#x10e;" horiz-adv-x="1270" 
d="M137 0v1365h325q311 0 505 -152q243 -191 243 -529q0 -341 -242 -532q-37 -29 -74 -49q-190 -103 -432 -103h-325zM469 1112h-59v-859h59q161 0 273 64q194 113 194 367q0 251 -194 364q-112 64 -273 64zM219 1746l199 95l179 -170l179 170l199 -95l-297 -314h-162z" />
    <glyph glyph-name="dcaron" unicode="&#x10f;" horiz-adv-x="1404" 
d="M1011 1365v-1365h-262v51q-113 -83 -236 -83q-121 0 -228 62q-110 65 -173 174q-66 114 -66 251q0 221 159 365q133 120 308 120q123 0 236 -84v509h262zM529 703q-95 0 -159 -70q-60 -65 -60 -181q0 -125 77 -193q61 -54 146 -54q96 0 158 68q60 67 60 184
q0 126 -76 193q-59 53 -146 53zM1070 1039l125 406l247 -72l-176 -393z" />
    <glyph glyph-name="Dcroat" unicode="&#x110;" horiz-adv-x="1295" 
d="M35 856h127v509h325q128 0 254 -32q122 -32 208 -89q286 -190 286 -561q0 -341 -243 -531q-194 -152 -505 -152h-325v610h-127v246zM435 1112v-256h292v-246h-292v-357h58q162 0 274 64q194 113 194 366t-194 364q-113 65 -274 65h-58z" />
    <glyph glyph-name="dslash" unicode="&#x111;" horiz-adv-x="1118" 
d="M749 857v160h-224v230h224v118h262v-118h113v-230h-113v-1017h-262v51q-113 -83 -236 -83q-120 0 -229 62q-110 65 -173 174q-66 114 -66 251q0 223 159 365q134 120 309 120q123 0 236 -83zM528 703q-93 0 -159 -70q-60 -65 -60 -181q0 -125 77 -193q62 -54 146 -54
q96 0 158 68q61 67 61 184q0 126 -76 193q-59 53 -147 53z" />
    <glyph glyph-name="Emacron" unicode="&#x112;" horiz-adv-x="1002" 
d="M137 1365h782v-251h-510v-297h453v-252h-453v-312h529v-253h-801v1365zM207 1516v225h663v-225h-663z" />
    <glyph glyph-name="emacron" unicode="&#x113;" horiz-adv-x="1010" 
d="M722 316l230 -91q-159 -257 -431 -257q-216 0 -352 154q-124 137 -124 332q0 222 156 366q130 120 308 120q201 0 334 -148q123 -138 123 -357q0 -4 -0.5 -13t-1 -26t-0.5 -33h-650q49 -163 206 -163q131 0 202 116zM314 546h392q-54 165 -196 165q-152 0 -196 -165z
M173 1097v225h664v-225h-664z" />
    <glyph glyph-name="Ebreve" unicode="&#x114;" horiz-adv-x="1001" 
d="M137 1365h782v-251h-510v-297h453v-252h-453v-312h529v-253h-801v1365zM213 1784l227 18q2 -46 2 -52q4 -105 90 -105q57 0 84 55q5 12 19 102l227 -18q-11 -93 -15 -116q-6 -25 -24 -59q-43 -86 -118.5 -133t-170.5 -47q-148 0 -241 101q-71 77 -77 172q-2 18 -3 82z
" />
    <glyph glyph-name="ebreve" unicode="&#x115;" horiz-adv-x="1010" 
d="M722 316l230 -91q-159 -257 -431 -257q-216 0 -352 154q-124 137 -124 332q0 222 156 366q130 120 308 120q201 0 334 -148q123 -138 123 -357q0 -4 -0.5 -13t-1 -26t-0.5 -33h-650q49 -163 206 -163q131 0 202 116zM314 546h392q-54 165 -196 165q-152 0 -196 -165z
M181 1365l227 18q2 -46 2 -53q5 -107 90 -107q57 0 84 56q7 16 20 104l226 -18q-11 -93 -15 -116q-6 -23 -23 -59q-44 -86 -119.5 -133t-171.5 -47q-147 0 -240 101q-71 77 -77 171q-2 23 -3 83z" />
    <glyph glyph-name="Edotaccent" unicode="&#x116;" horiz-adv-x="1002" 
d="M137 1365h782v-251h-510v-297h453v-252h-453v-312h529v-253h-801v1365zM537 1784q72 0 120 -53q40 -43 40 -103q0 -69 -52 -115q-46 -41 -107 -41q-67 0 -113 46q-47 47 -47 112q0 62 47 109q46 45 112 45z" />
    <glyph glyph-name="edotaccent" unicode="&#x117;" horiz-adv-x="1010" 
d="M722 316l230 -91q-159 -257 -431 -257q-216 0 -352 154q-124 137 -124 332q0 222 156 366q130 120 308 120q201 0 334 -148q123 -138 123 -357q0 -4 -0.5 -13t-1 -26t-0.5 -33h-650q49 -163 206 -163q131 0 202 116zM314 546h392q-54 165 -196 165q-152 0 -196 -165z
M504 1374q71 0 119 -53q40 -43 40 -103q0 -65 -46 -110q-46 -46 -115 -46q-66 0 -112 46t-46 113q0 61 47 108q47 45 113 45z" />
    <glyph glyph-name="Eogonek" unicode="&#x118;" horiz-adv-x="1002" 
d="M938 253v-253q-1 -1 -3.5 -4.5t-4.5 -6.5q-58 -73 -58 -110q0 -16 20 -16q35 0 89 25l78 -190q-131 -48 -196 -48q-123 0 -191 74q-50 56 -50 132q0 64 54 144h-539v1365h782v-251h-510v-297h453v-252h-453v-312h529z" />
    <glyph glyph-name="eogonek" unicode="&#x119;" horiz-adv-x="1010" 
d="M629 -20q-51 -68 -51 -102q0 -15 20 -15q35 0 88 25l78 -191q-130 -47 -195 -47q-123 0 -191 74q-50 58 -50 131q0 61 46 134q-98 32 -168 95q-76 68 -117 161q-44 99 -44 209q0 222 156 366q130 120 308 120q201 0 334 -148q123 -138 123 -357q0 -4 -0.5 -13t-1 -26
t-0.5 -33h-650q49 -163 206 -163q131 0 202 116l230 -91q-120 -200 -323 -245zM314 546h392q-54 165 -196 165q-152 0 -196 -165z" />
    <glyph glyph-name="Ecaron" unicode="&#x11a;" horiz-adv-x="1002" 
d="M137 1365h782v-251h-510v-297h453v-252h-453v-312h529v-253h-801v1365zM160 1746l199 95l179 -170l180 170l199 -95l-297 -314h-162z" />
    <glyph glyph-name="ecaron" unicode="&#x11b;" horiz-adv-x="1010" 
d="M722 316l230 -91q-159 -257 -431 -257q-216 0 -352 154q-124 137 -124 332q0 222 156 366q130 120 308 120q201 0 334 -148q123 -138 123 -357q0 -4 -0.5 -13t-1 -26t-0.5 -33h-650q49 -163 206 -163q131 0 202 116zM314 546h392q-54 165 -196 165q-152 0 -196 -165z
M505 1257l179 174l198 -95l-296 -313h-162l-297 313l199 95z" />
    <glyph glyph-name="Gcircumflex" unicode="&#x11c;" horiz-adv-x="1490" 
d="M771 513v251h657v-130q0 -205 -89 -369q-73 -135 -213 -213q-153 -84 -335 -84q-204 0 -374 98q-163 94 -260 259q-97 166 -97 357q0 190 97 356q98 170 265 264q167 95 367 95q225 0 416 -138q57 -41 133 -114l-193 -183q-99 101 -178 141q-78 39 -180 39
q-205 0 -334 -146q-117 -132 -117 -314q0 -208 149 -343q127 -115 306 -115q168 0 270 113q60 66 83 176h-373zM757 1589l-179 -170l-199 95l297 314h162l297 -314l-199 -95z" />
    <glyph glyph-name="gcircumflex" unicode="&#x11d;" horiz-adv-x="1113" 
d="M749 -18v69q-67 -48 -117 -65q-52 -18 -119 -18q-203 0 -343 156q-124 137 -124 331q0 221 159 365q133 120 308 120q67 0 119 -18q50 -17 117 -65v51h262v-926q0 -236 -150 -369q-140 -123 -344 -123q-215 0 -366 139q-37 35 -94 102l176 169q4 -5 18 -21t23 -27
q105 -125 242 -125q114 0 175 69q58 64 58 186zM531 703q-61 0 -114 -32q-107 -65 -107 -213q0 -131 77 -199q61 -54 145 -54q96 0 159 68q60 66 60 183q0 128 -75 194q-61 53 -145 53zM905 1096l-198 -95l-179 174l-179 -174l-199 95l297 313h162z" />
    <glyph glyph-name="Gbreve" unicode="&#x11e;" horiz-adv-x="1490" 
d="M771 513v251h657v-130q0 -205 -89 -369q-73 -135 -213 -213q-153 -84 -335 -84q-204 0 -374 98q-163 94 -260 259q-97 166 -97 357q0 190 97 356q98 170 265 264q167 95 367 95q225 0 416 -138q57 -41 133 -114l-193 -183q-99 101 -178 141q-78 39 -180 39
q-205 0 -334 -146q-117 -132 -117 -314q0 -208 149 -343q127 -115 306 -115q168 0 270 113q60 66 83 176h-373zM471 1784l227 18q1 -33 3 -52q5 -105 90 -105q57 0 84 55q7 14 19 102l227 -18q-9 -83 -16 -116q-4 -23 -23 -59q-43 -86 -118.5 -133t-171.5 -47
q-147 0 -240 101q-70 76 -78 172q-2 21 -3 82z" />
    <glyph glyph-name="gbreve" unicode="&#x11f;" horiz-adv-x="1113" 
d="M749 -18v69q-67 -48 -117 -65q-52 -18 -119 -18q-203 0 -343 156q-124 137 -124 331q0 221 159 365q133 120 308 120q67 0 119 -18q50 -17 117 -65v51h262v-926q0 -236 -150 -369q-140 -123 -344 -123q-215 0 -366 139q-37 35 -94 102l176 169q4 -5 18 -21t23 -27
q105 -125 242 -125q114 0 175 69q58 64 58 186zM531 703q-61 0 -114 -32q-107 -65 -107 -213q0 -131 77 -199q61 -54 145 -54q96 0 159 68q60 66 60 183q0 128 -75 194q-61 53 -145 53zM209 1365l227 18q2 -36 3 -53q5 -107 90 -107q56 0 83 56q6 11 20 104l227 -18
q-9 -79 -16 -116q-6 -23 -23 -59q-43 -86 -119 -133t-172 -47q-147 0 -240 101q-71 77 -77 171q-2 23 -3 83z" />
    <glyph glyph-name="Gdotaccent" unicode="&#x120;" horiz-adv-x="1490" 
d="M771 513v251h657v-130q0 -205 -89 -369q-73 -135 -213 -213q-153 -84 -335 -84q-204 0 -374 98q-163 94 -260 259q-97 166 -97 357q0 190 97 356q98 170 265 264q167 95 367 95q225 0 416 -138q57 -41 133 -114l-193 -183q-99 101 -178 141q-78 39 -180 39
q-205 0 -334 -146q-117 -132 -117 -314q0 -208 149 -343q127 -115 306 -115q168 0 270 113q60 66 83 176h-373zM790 1784q72 0 120 -53q40 -43 40 -103q0 -69 -52 -115q-46 -41 -107 -41q-67 0 -113 46q-47 47 -47 112q0 62 47 109q46 45 112 45z" />
    <glyph glyph-name="gdotaccent" unicode="&#x121;" horiz-adv-x="1113" 
d="M749 -18v69q-67 -48 -117 -65q-52 -18 -119 -18q-203 0 -343 156q-124 137 -124 331q0 221 159 365q133 120 308 120q67 0 119 -18q50 -17 117 -65v51h262v-926q0 -236 -150 -369q-140 -123 -344 -123q-215 0 -366 139q-37 35 -94 102l176 169q4 -5 18 -21t23 -27
q105 -125 242 -125q114 0 175 69q58 64 58 186zM531 703q-61 0 -114 -32q-107 -65 -107 -213q0 -131 77 -199q61 -54 145 -54q96 0 159 68q60 66 60 183q0 128 -75 194q-61 53 -145 53zM528 1374q71 0 119 -53q40 -43 40 -103q0 -65 -46 -110q-46 -46 -115 -46
q-66 0 -112 46t-46 113q0 61 47 108q47 45 113 45z" />
    <glyph glyph-name="Gcommaaccent" unicode="&#x122;" horiz-adv-x="1490" 
d="M771 513v251h657v-130q0 -205 -89 -369q-73 -135 -213 -213q-153 -84 -335 -84q-204 0 -374 98q-163 94 -260 259q-97 166 -97 357q0 190 97 356q98 170 265 264q167 95 367 95q225 0 416 -138q57 -41 133 -114l-193 -183q-99 101 -178 141q-78 39 -180 39
q-205 0 -334 -146q-117 -132 -117 -314q0 -208 149 -343q127 -115 306 -115q168 0 270 113q60 66 83 176h-373zM560 -446l124 406l247 -72l-176 -393z" />
    <glyph glyph-name="gcommaaccent" unicode="&#x123;" horiz-adv-x="1113" 
d="M749 -18v69q-67 -48 -117 -65q-52 -18 -119 -18q-203 0 -343 156q-124 137 -124 331q0 221 159 365q133 120 308 120q67 0 119 -18q50 -17 117 -65v51h262v-926q0 -236 -150 -369q-140 -123 -344 -123q-215 0 -366 139q-37 35 -94 102l176 169q4 -5 18 -21t23 -27
q105 -125 242 -125q114 0 175 69q58 64 58 186zM531 703q-61 0 -114 -32q-107 -65 -107 -213q0 -131 77 -199q61 -54 145 -54q96 0 159 68q60 66 60 183q0 128 -75 194q-61 53 -145 53zM766 1385l-125 -406l-247 71l176 394z" />
    <glyph glyph-name="Hcircumflex" unicode="&#x124;" horiz-adv-x="1336" 
d="M137 1365h273v-547h515v547h273v-1365h-273v565h-515v-565h-273v1365zM667 1589l-179 -170l-199 95l298 314h162l297 -314l-199 -95z" />
    <glyph glyph-name="hcircumflex" unicode="&#x125;" horiz-adv-x="1044" 
d="M365 1365v-499q94 74 207 74q139 0 244 -93q66 -59 96 -143.5t30 -213.5v-490h-262v475q0 119 -26 169q-32 59 -122 59q-45 0 -83.5 -18.5t-55.5 -49.5q-28 -49 -28 -178v-457h-262v1365h262zM527 1589l-179 -170l-199 95l297 314h162l297 -314l-199 -95z" />
    <glyph glyph-name="Hbar" unicode="&#x126;" horiz-adv-x="1327" 
d="M406 1248h515v117h273v-117h113v-231h-113v-1017h-273v565h-515v-565h-273v1017h-114v231h114v117h273v-117zM921 818v199h-515v-199h515z" />
    <glyph glyph-name="hbar" unicode="&#x127;" horiz-adv-x="1035" 
d="M94 0v1017h-114v230h114v118h262v-118h228v-230h-228v-151q95 74 206 74q140 0 245 -93q66 -59 96 -143.5t30 -213.5v-490h-262v475q0 119 -27 169q-32 59 -121 59q-46 0 -84 -18.5t-55 -49.5q-28 -49 -28 -178v-457h-262z" />
    <glyph glyph-name="Itilde" unicode="&#x128;" horiz-adv-x="547" 
d="M137 1365h273v-1365h-273v1365zM389 1788l219 -49q-9 -109 -42 -166q-24 -40 -71.5 -64.5t-101.5 -24.5q-83 0 -161 42q-31 16 -53 18q-7 0 -11 -6q-3 -5 -15 -68l-214 48q25 255 220 255q67 0 161 -47q32 -17 48 -17q10 0 13 10q3 23 8 69z" />
    <glyph glyph-name="itilde" unicode="&#x129;" horiz-adv-x="469" 
d="M103 908h262v-908h-262v908zM350 1369l219 -49q-9 -110 -42 -165q-24 -41 -71 -65.5t-102 -24.5q-83 0 -161 42q-35 18 -53 18q-8 0 -11 -6q-1 -3 -15 -68l-214 48q26 255 220 255q70 0 161 -48q31 -16 48 -16q10 0 13 10q3 23 8 69z" />
    <glyph glyph-name="Imacron" unicode="&#x12a;" horiz-adv-x="547" 
d="M138 1365h273v-1365h-273v1365zM-58 1516v225h664v-225h-664z" />
    <glyph glyph-name="imacron" unicode="&#x12b;" horiz-adv-x="469" 
d="M104 908h262v-908h-262v908zM-97 1097v225h664v-225h-664z" />
    <glyph glyph-name="Ibreve" unicode="&#x12c;" horiz-adv-x="547" 
d="M138 1365h273v-1365h-273v1365zM-51 1784l227 18q1 -33 3 -52q5 -105 90 -105q58 0 83 55q6 11 20 102l227 -18q-9 -79 -16 -116q-4 -23 -23 -59q-43 -86 -119 -133t-171 -47q-146 0 -241 101q-69 75 -77 172q-2 21 -3 82z" />
    <glyph glyph-name="ibreve" unicode="&#x12d;" horiz-adv-x="469" 
d="M104 908h262v-908h-262v908zM-90 1365l227 18q2 -36 3 -53q5 -107 90 -107q57 0 83 56q6 11 20 104l227 -18q-9 -79 -16 -116q-4 -23 -23 -59q-43 -86 -119 -133t-171 -47q-146 0 -241 101q-69 75 -77 171q-2 23 -3 83z" />
    <glyph glyph-name="Iogonek" unicode="&#x12e;" horiz-adv-x="547" 
d="M410 1365v-1365q-4 -6 -9 -11q-57 -73 -57 -110q0 -16 20 -16q35 0 88 25l79 -191q-132 -47 -196 -47q-123 0 -191 74q-50 56 -50 131q0 65 53 145h-10v1365h273z" />
    <glyph glyph-name="iogonek" unicode="&#x12f;" horiz-adv-x="469" 
d="M366 908v-908q-1 -2 -4 -6l-5 -5q-57 -73 -57 -110q0 -16 20 -16q35 0 88 25l79 -190q-131 -48 -196 -48q-124 0 -190 74q-51 57 -51 131q0 69 54 145v908h262zM235 1374q71 0 119 -53q40 -43 40 -103q0 -69 -52 -115q-46 -41 -107 -41q-68 0 -114 46t-46 112
q0 62 47 109q46 45 113 45z" />
    <glyph glyph-name="Idot" unicode="&#x130;" horiz-adv-x="547" 
d="M137 1365h273v-1365h-273v1365zM274 1784q71 0 119 -53q40 -43 40 -103q0 -68 -51 -115q-47 -41 -108 -41q-67 0 -113 46q-47 47 -47 112q0 62 47 109q46 45 113 45z" />
    <glyph glyph-name="dotlessi" unicode="&#x131;" horiz-adv-x="469" 
d="M103 908h262v-908h-262v908z" />
    <glyph glyph-name="IJ" unicode="&#x132;" horiz-adv-x="1415" 
d="M137 1365h273v-1365h-273v1365zM1004 1365h273v-939q0 -103 -13 -162q-14 -66 -47 -123q-44 -78 -122 -122q-87 -51 -198 -51q-104 0 -191 43q-89 44 -186 142l167 196q114 -126 203 -126q46 0 75 32q39 43 39 171v939z" />
    <glyph glyph-name="ij" unicode="&#x133;" horiz-adv-x="948" 
d="M234 1374q72 0 120 -53q40 -43 40 -103q0 -65 -46 -110q-46 -46 -115 -46q-66 0 -112 46t-46 112q0 62 47 109q46 45 112 45zM104 908h262v-908h-262v908zM582 908h262v-1090q0 -177 -88 -255q-71 -62 -173 -62q-65 0 -149 26v244q74 -25 110 -25q17 0 26 10q12 15 12 67
v1085zM713 1374q72 0 120 -53q40 -43 40 -103q0 -69 -52 -115q-46 -41 -107 -41q-67 0 -113 46q-47 47 -47 112q0 62 47 109q47 45 112 45z" />
    <glyph glyph-name="Jcircumflex" unicode="&#x134;" horiz-adv-x="874" 
d="M464 1365h273v-939q0 -103 -13 -162q-14 -66 -47 -123q-44 -78 -122 -122q-87 -51 -197 -51q-105 0 -192 43q-89 44 -186 142l167 196q114 -126 203 -126q46 0 75 32q39 43 39 171v939zM528 1589l-179 -170l-199 95l298 314h162l297 -314l-199 -95z" />
    <glyph glyph-name="jcircumflex" unicode="&#x135;" horiz-adv-x="486" 
d="M120 908h262v-1090q0 -177 -88 -255q-71 -62 -173 -62q-66 0 -150 26v244q74 -25 110 -25q19 0 26 10q13 14 13 67v1085zM603 1096l-198 -95l-180 174l-179 -174l-198 95l297 313h161z" />
    <glyph glyph-name="Kcommaaccent" unicode="&#x136;" horiz-adv-x="1238" 
d="M1250 1365l-539 -579l526 -786h-322l-390 587l-115 -124v-463h-273v1365h273v-532l494 532h346zM457 -446l125 406l247 -72l-176 -393z" />
    <glyph glyph-name="kcommaaccent" unicode="&#x137;" horiz-adv-x="1005" 
d="M1009 908l-395 -384l414 -524h-325l-270 349l-68 -66v-283h-262v1365h262v-746l294 289h350zM315 -446l125 406l246 -72l-176 -393z" />
    <glyph glyph-name="kgreenlandic" unicode="&#x138;" horiz-adv-x="1005" 
d="M1009 908l-395 -384l414 -524h-325l-270 349l-68 -66v-283h-262v908h262v-289l294 289h350z" />
    <glyph glyph-name="Lacute" unicode="&#x139;" horiz-adv-x="894" 
d="M137 0v1365h273v-1112h491v-253h-764zM384 1866l245 -126l-333 -323l-177 97z" />
    <glyph glyph-name="lacute" unicode="&#x13a;" horiz-adv-x="472" 
d="M345 1880l245 -126l-333 -322l-177 97zM367 1365v-1365h-262v1365h262z" />
    <glyph glyph-name="Lcommaaccent" unicode="&#x13b;" horiz-adv-x="902" 
d="M137 0v1365h273v-1112h490v-253h-763zM347 -446l125 406l247 -72l-176 -393z" />
    <glyph glyph-name="lcommaaccent" unicode="&#x13c;" horiz-adv-x="472" 
d="M367 1365v-1365h-262v1365h262zM20 -446l125 406l247 -72l-176 -393z" />
    <glyph glyph-name="Lcaron" unicode="&#x13d;" horiz-adv-x="902" 
d="M137 0v1365h273v-1112h490v-253h-763zM511 1023l125 406l247 -72l-176 -393z" />
    <glyph glyph-name="lcaron" unicode="&#x13e;" horiz-adv-x="761" 
d="M367 1365v-1365h-262v1365h262zM427 1039l124 406l247 -72l-176 -393z" />
    <glyph glyph-name="Ldot" unicode="&#x13f;" horiz-adv-x="902" 
d="M137 0v1365h273v-1112h490v-253h-763zM706 839q71 0 119 -53q40 -43 40 -103q0 -69 -52 -115q-46 -41 -107 -41q-68 0 -114 46t-46 112q0 62 47 109q47 45 113 45z" />
    <glyph glyph-name="ldot" unicode="&#x140;" horiz-adv-x="783" 
d="M626 839q72 0 120 -53q40 -43 40 -103q0 -69 -52 -115q-46 -41 -107 -41q-67 0 -113 46q-47 47 -47 112q0 62 47 109q47 45 112 45zM367 1365v-1365h-262v1365h262z" />
    <glyph glyph-name="Lslash" unicode="&#x141;" horiz-adv-x="927" 
d="M436 1365v-440l216 136v-270l-216 -136v-402h491v-253h-764v485l-131 -83v271l131 82v610h273z" />
    <glyph glyph-name="lslash" unicode="&#x142;" horiz-adv-x="558" 
d="M148 0v501l-123 -80v273l123 80v591h262v-423l124 80v-273l-124 -80v-669h-262z" />
    <glyph glyph-name="Nacute" unicode="&#x143;" horiz-adv-x="1450" 
d="M410 0h-273v1365h231l671 -889v889h273v-1365h-231l-671 889v-889zM857 1866l245 -126l-334 -323l-176 97z" />
    <glyph glyph-name="nacute" unicode="&#x144;" horiz-adv-x="1044" 
d="M644 1447l244 -126l-333 -323l-176 97zM365 908v-42q94 74 207 74q139 0 244 -93q66 -59 96 -143.5t30 -213.5v-490h-262v475q0 119 -26 169q-32 59 -122 59q-45 0 -83.5 -18.5t-55.5 -49.5q-28 -49 -28 -178v-457h-262v908h262z" />
    <glyph glyph-name="Ncommaaccent" unicode="&#x145;" horiz-adv-x="1450" 
d="M410 0h-273v1365h231l671 -889v889h273v-1365h-231l-671 889v-889zM540 -446l125 406l247 -72l-176 -393z" />
    <glyph glyph-name="ncommaaccent" unicode="&#x146;" horiz-adv-x="1044" 
d="M365 908v-42q94 74 207 74q139 0 244 -93q66 -59 96 -143.5t30 -213.5v-490h-262v475q0 119 -26 169q-32 59 -122 59q-45 0 -83.5 -18.5t-55.5 -49.5q-28 -49 -28 -178v-457h-262v908h262zM338 -446l125 406l247 -72l-176 -393z" />
    <glyph glyph-name="Ncaron" unicode="&#x147;" horiz-adv-x="1450" 
d="M410 0h-273v1365h231l671 -889v889h273v-1365h-231l-671 889v-889zM380 1746l199 95l179 -170l180 170l199 -95l-298 -314h-161z" />
    <glyph glyph-name="ncaron" unicode="&#x148;" horiz-adv-x="1044" 
d="M365 908v-42q94 74 207 74q139 0 244 -93q66 -59 96 -143.5t30 -213.5v-490h-262v475q0 119 -26 169q-32 59 -122 59q-45 0 -83.5 -18.5t-55.5 -49.5q-28 -49 -28 -178v-457h-262v908h262zM533 1257l179 174l198 -95l-296 -313h-162l-297 313l199 95z" />
    <glyph glyph-name="napostrophe" unicode="&#x149;" horiz-adv-x="1248" 
d="M-26 860l204 547l235 -82l-248 -538zM568 908v-42q94 74 207 74q139 0 244 -93q66 -59 96 -143.5t30 -213.5v-490h-262v475q0 119 -27 169q-32 59 -121 59q-45 0 -83.5 -18.5t-55.5 -49.5q-28 -49 -28 -178v-457h-262v908h262z" />
    <glyph glyph-name="Eng" unicode="&#x14a;" horiz-adv-x="1450" 
d="M1039 1365h273v-1365q-2 -116 -45 -197q-29 -53 -84 -84q-60 -33 -132 -33q-67 0 -150 26v245q75 -26 110 -26q17 0 26 10q12 15 12 68v32l-639 848v-889h-273v1365h231l671 -889v889z" />
    <glyph glyph-name="eng" unicode="&#x14b;" horiz-adv-x="1044" 
d="M365 908v-42q94 74 207 74q160 0 270 -119q50 -55 72 -118q20 -61 27 -183q9 -172 9 -348q0 -147 -11 -232q-10 -77 -40 -135q-29 -54 -85 -85q-59 -34 -133 -34q-66 0 -150 26v245q75 -26 110 -26q19 0 26 10q13 14 13 66v414v54q0 119 -27 169q-32 59 -121 59
q-45 0 -83.5 -18.5t-55.5 -49.5q-28 -49 -28 -178v-457h-262v908h262z" />
    <glyph glyph-name="Omacron" unicode="&#x14c;" horiz-adv-x="1562" 
d="M780 1397q316 0 534 -237q188 -205 188 -478q0 -190 -98 -357q-94 -159 -257 -256q-172 -101 -364 -101q-275 0 -482 183q-241 214 -241 540q0 187 98 348q104 170 267 263q167 95 355 95zM778 1141q-192 0 -324 -148q-118 -130 -118 -318q0 -97 41 -187t115 -153
q127 -111 289 -111q113 0 217 60q108 61 167 166q61 106 61 232q0 207 -151 345q-125 114 -297 114zM449 1516v225h664v-225h-664z" />
    <glyph glyph-name="omacron" unicode="&#x14d;" horiz-adv-x="1065" 
d="M541 940q212 0 358 -161q122 -137 122 -324q0 -219 -158 -362q-139 -125 -330 -125q-222 0 -366 161q-122 137 -122 329q0 213 158 357q137 125 338 125zM531 703q-62 0 -115 -32q-107 -65 -107 -214q0 -130 76 -197q62 -55 148 -55q100 0 164 70q60 66 60 181
q0 126 -76 192q-61 55 -150 55zM201 1097v225h664v-225h-664z" />
    <glyph glyph-name="Obreve" unicode="&#x14e;" horiz-adv-x="1562" 
d="M780 1397q316 0 534 -237q188 -205 188 -478q0 -190 -98 -357q-94 -159 -257 -256q-172 -101 -364 -101q-275 0 -482 183q-241 214 -241 540q0 187 98 348q104 170 267 263q167 95 355 95zM778 1141q-192 0 -324 -148q-118 -130 -118 -318q0 -97 41 -187t115 -153
q127 -111 289 -111q113 0 217 60q108 61 167 166q61 106 61 232q0 207 -151 345q-125 114 -297 114zM456 1784l227 18q1 -33 3 -52q4 -105 90 -105q57 0 84 55q5 12 19 102l227 -18q-9 -79 -16 -116q-4 -23 -23 -59q-43 -86 -118.5 -133t-171.5 -47q-146 0 -241 101
q-69 75 -77 172q-2 21 -3 82z" />
    <glyph glyph-name="obreve" unicode="&#x14f;" horiz-adv-x="1065" 
d="M541 940q212 0 358 -161q122 -137 122 -324q0 -219 -158 -362q-139 -125 -330 -125q-222 0 -366 161q-122 137 -122 329q0 213 158 357q137 125 338 125zM531 703q-62 0 -115 -32q-107 -65 -107 -214q0 -130 76 -197q62 -55 148 -55q100 0 164 70q60 66 60 181
q0 126 -76 192q-61 55 -150 55zM208 1365l227 18q2 -36 3 -53q5 -107 90 -107q57 0 83 56q6 11 20 104l227 -18q-9 -79 -16 -116q-4 -23 -23 -59q-43 -86 -119 -133t-171 -47q-146 0 -241 101q-69 75 -77 171q-2 23 -3 83z" />
    <glyph glyph-name="Ohungarumlaut" unicode="&#x150;" horiz-adv-x="1562" 
d="M754 1864l221 -120l86 120l215 -123l-332 -322l-142 85l171 239l-335 -324l-148 95zM780 1397q316 0 534 -237q188 -205 188 -478q0 -190 -98 -357q-94 -159 -257 -256q-172 -101 -364 -101q-275 0 -482 183q-241 214 -241 540q0 187 98 348q104 170 267 263
q167 95 355 95zM778 1141q-192 0 -324 -148q-118 -130 -118 -318q0 -97 41 -187t115 -153q127 -111 289 -111q113 0 217 60q108 61 167 166q61 106 61 232q0 207 -151 345q-125 114 -297 114z" />
    <glyph glyph-name="ohungarumlaut" unicode="&#x151;" horiz-adv-x="1085" 
d="M518 1443l221 -119l86 119l215 -123l-332 -322l-142 85l172 239l-335 -324l-149 95zM541 940q212 0 358 -161q122 -137 122 -324q0 -219 -158 -362q-139 -125 -330 -125q-222 0 -366 161q-122 137 -122 329q0 213 158 357q137 125 338 125zM531 703q-62 0 -115 -32
q-107 -65 -107 -213q0 -131 76 -198q62 -55 148 -55q100 0 164 70q60 66 60 181q0 126 -76 192q-61 55 -150 55z" />
    <glyph glyph-name="OE" unicode="&#x152;" horiz-adv-x="2091" 
d="M2028 253v-253h-801v125q-196 -157 -441 -157q-198 0 -371 101q-162 94 -257 256q-98 167 -98 358q0 189 98 356t267 263q169 95 361 95q245 0 441 -157v125h782v-251h-511v-296h454v-252h-454v-313h530zM778 1141q-191 0 -324 -148q-118 -130 -118 -318q0 -119 61 -225
q60 -105 167 -167q104 -60 217 -60q115 0 218 60q107 62 167 167q61 106 61 232q0 209 -151 345q-124 114 -298 114z" />
    <glyph glyph-name="oe" unicode="&#x153;" horiz-adv-x="1722" 
d="M886 791q142 148 333 148q204 0 336 -148q123 -137 123 -357q0 -5 -0.5 -14.5t-1 -27t-0.5 -30.5h-650q49 -163 206 -163q131 0 202 116l230 -91q-161 -257 -433 -257q-205 0 -345 149q-147 -148 -350 -148q-226 0 -369 161q-122 137 -122 325q0 218 158 361
q139 125 332 125q208 0 351 -149zM1026 545h392q-54 165 -196 165q-152 0 -196 -165zM529 703q-96 0 -160 -70q-60 -66 -60 -182q0 -125 76 -192q61 -55 148 -55q100 0 164 70q60 65 60 182q0 126 -76 192q-61 55 -152 55z" />
    <glyph glyph-name="Racute" unicode="&#x154;" horiz-adv-x="1149" 
d="M1124 0h-307l-278 498h-9q-38 -2 -68 -2h-52v-496h-273v1365h325q208 0 323 -65q96 -56 152 -152q59 -101 59 -222q0 -110 -50.5 -203t-141.5 -152zM409 1116v-373h70q116 0 171 31q80 45 80 153q0 112 -82 158q-53 31 -169 31h-70zM630 1866l245 -126l-333 -323l-177 97
z" />
    <glyph glyph-name="racute" unicode="&#x155;" horiz-adv-x="637" 
d="M405 1447l245 -126l-333 -323l-177 97zM365 908v-49q76 55 165 55q41 0 91 -7v-233q-65 5 -90 5q-95 0 -130 -51q-36 -52 -36 -190v-438h-262v908h262z" />
    <glyph glyph-name="Rcommaaccent" unicode="&#x156;" horiz-adv-x="1149" 
d="M1124 0h-307l-278 498h-9q-38 -2 -68 -2h-52v-496h-273v1365h325q208 0 323 -65q96 -56 152 -152q59 -101 59 -222q0 -110 -50.5 -203t-141.5 -152zM409 1116v-373h70q116 0 171 31q80 45 80 153q0 112 -82 158q-53 31 -169 31h-70zM395 -446l125 406l247 -72l-176 -393z
" />
    <glyph glyph-name="rcommaaccent" unicode="&#x157;" horiz-adv-x="637" 
d="M365 908v-49q76 55 165 55q41 0 91 -7v-233q-65 5 -90 5q-96 0 -130 -52q-36 -53 -36 -189v-438h-262v908h262zM5 -446l125 406l247 -72l-176 -393z" />
    <glyph glyph-name="Rcaron" unicode="&#x158;" horiz-adv-x="1149" 
d="M1124 0h-307l-278 498h-9q-38 -2 -68 -2h-52v-496h-273v1365h325q208 0 323 -65q96 -56 152 -152q59 -101 59 -222q0 -110 -50.5 -203t-141.5 -152zM409 1116v-373h70q116 0 171 31q80 45 80 153q0 112 -82 158q-53 31 -169 31h-70zM157 1746l199 95l180 -170l179 170
l199 -95l-297 -314h-162z" />
    <glyph glyph-name="rcaron" unicode="&#x159;" horiz-adv-x="637" 
d="M365 908v-49q76 55 165 55q41 0 91 -7v-233q-65 5 -90 5q-95 0 -130 -51q-36 -52 -36 -190v-438h-262v908h262zM362 1257l180 174l198 -95l-297 -313h-161l-297 313l198 95z" />
    <glyph glyph-name="Sacute" unicode="&#x15a;" horiz-adv-x="1075" 
d="M990 1127l-224 -141q-44 69 -78 103q-52 54 -133 54q-82 0 -129 -53q-38 -46 -38 -99q0 -83 147 -139l126 -48q212 -79 289 -200q53 -86 53 -191q0 -195 -147 -325q-135 -120 -327 -120q-157 0 -278 84q-141 98 -195 335l267 71q28 -115 55 -155q56 -80 154 -80
q91 0 148 64q48 54 48 123q0 43 -22 71q-34 46 -162 94l-120 46q-308 117 -308 372q0 176 130 291q128 113 316 113q207 0 342 -151q41 -46 86 -119zM666 1866l245 -126l-333 -323l-177 97z" />
    <glyph glyph-name="sacute" unicode="&#x15b;" horiz-adv-x="796" 
d="M501 1447l244 -126l-333 -323l-177 97zM34 246l220 82q37 -71 70.5 -99.5t79.5 -28.5q39 0 62 20.5t23 55.5q0 16 -9 30q-10 16 -84 45l-121 49q-186 74 -186 246q0 128 96 211q97 83 235 83q211 0 327 -212l-208 -99q-57 82 -122 82q-76 0 -76 -60q0 -16 8 -27
q12 -15 81 -42l105 -40q111 -43 163.5 -105t52.5 -151q0 -136 -104 -229q-98 -89 -246 -89q-162 0 -264 103q-59 59 -103 175z" />
    <glyph glyph-name="Scircumflex" unicode="&#x15c;" horiz-adv-x="1075" 
d="M990 1127l-224 -141q-44 69 -78 103q-52 54 -133 54q-82 0 -129 -53q-38 -46 -38 -99q0 -83 147 -139l126 -48q212 -79 289 -200q53 -86 53 -191q0 -195 -147 -325q-135 -120 -327 -120q-157 0 -278 84q-141 98 -195 335l267 71q28 -115 55 -155q56 -80 154 -80
q91 0 148 64q48 54 48 123q0 43 -22 71q-34 46 -162 94l-120 46q-308 117 -308 372q0 176 130 291q128 113 316 113q207 0 342 -151q41 -46 86 -119zM532 1589l-179 -170l-199 95l297 314h162l297 -314l-199 -95z" />
    <glyph glyph-name="scircumflex" unicode="&#x15d;" horiz-adv-x="811" 
d="M36 246l221 82q37 -71 70.5 -99.5t79.5 -28.5q39 0 62 20.5t23 55.5q0 18 -9 31q-11 16 -84 44l-122 49q-186 74 -186 246q0 127 96 211q97 83 235 83q211 0 327 -212l-208 -99q-55 82 -122 82q-76 0 -76 -60q0 -16 8 -27q12 -15 82 -42l104 -40q112 -43 164.5 -105
t52.5 -151q0 -136 -103 -229q-100 -89 -247 -89q-134 0 -223.5 67.5t-144.5 210.5zM783 1096l-198 -95l-180 174l-179 -174l-198 95l297 313h161z" />
    <glyph glyph-name="Scedilla" unicode="&#x15e;" horiz-adv-x="1075" 
d="M990 1127l-224 -141q-44 69 -78 103q-52 54 -133 54q-82 0 -129 -53q-38 -46 -38 -99q0 -83 147 -139l126 -48q212 -79 289 -200q53 -86 53 -191q0 -195 -147 -325q-135 -120 -327 -120q-157 0 -278 84q-141 98 -195 335l267 71q28 -115 55 -155q56 -80 154 -80
q91 0 148 64q48 54 48 123q0 43 -22 71q-34 46 -162 94l-120 46q-308 117 -308 372q0 176 130 291q128 113 316 113q207 0 342 -151q41 -46 86 -119zM528 -39l238 -98l-275 -336l-189 91z" />
    <glyph glyph-name="scedilla" unicode="&#x15f;" horiz-adv-x="796" 
d="M34 246l220 82q37 -71 70.5 -99.5t79.5 -28.5q39 0 62 20.5t23 55.5q0 16 -9 30q-10 16 -84 45l-121 49q-186 74 -186 246q0 128 96 211q97 83 235 83q211 0 327 -212l-208 -99q-57 82 -122 82q-76 0 -76 -60q0 -16 8 -27q12 -15 81 -42l105 -40q111 -43 163.5 -105
t52.5 -151q0 -136 -104 -229q-98 -89 -246 -89q-162 0 -264 103q-59 59 -103 175zM383 -39l237 -98l-274 -336l-190 91z" />
    <glyph glyph-name="Scaron" unicode="&#x160;" horiz-adv-x="1075" 
d="M990 1127l-224 -141q-44 69 -78 103q-52 54 -133 54q-82 0 -129 -53q-38 -46 -38 -99q0 -83 147 -139l126 -48q212 -79 289 -200q53 -86 53 -191q0 -195 -147 -325q-135 -120 -327 -120q-157 0 -278 84q-141 98 -195 335l267 71q28 -115 55 -155q56 -80 154 -80
q91 0 148 64q48 54 48 123q0 43 -22 71q-34 46 -162 94l-120 46q-308 117 -308 372q0 176 130 291q128 113 316 113q207 0 342 -151q41 -46 86 -119zM154 1746l199 95l179 -170l179 170l199 -95l-297 -314h-162z" />
    <glyph glyph-name="scaron" unicode="&#x161;" horiz-adv-x="811" 
d="M36 246l221 82q37 -71 70.5 -99.5t79.5 -28.5q39 0 62 20.5t23 55.5q0 18 -9 31q-11 16 -84 44l-122 49q-186 74 -186 246q0 127 96 211q97 83 235 83q211 0 327 -212l-208 -99q-55 82 -122 82q-76 0 -76 -60q0 -16 8 -27q12 -15 82 -42l104 -40q112 -43 164.5 -105
t52.5 -151q0 -136 -103 -229q-100 -89 -247 -89q-134 0 -223.5 67.5t-144.5 210.5zM405 1257l180 174l198 -95l-297 -313h-161l-297 313l198 95z" />
    <glyph glyph-name="Tcommaaccent" unicode="&#x162;" horiz-adv-x="902" 
d="M-13 1365h928v-252h-327v-1113h-273v1113h-328v252zM245 -446l125 406l247 -72l-176 -393z" />
    <glyph glyph-name="tcommaaccent" unicode="&#x163;" horiz-adv-x="561" 
d="M509 673h-136v-368q0 -44 8.5 -61.5t29.5 -17.5q35 0 110 26v-244q-78 -26 -148 -26q-121 0 -191 79q-71 80 -71 238v374h-93v235h93v188l262 102v-290h136v-235zM86 -446l125 406l246 -72l-176 -393z" />
    <glyph glyph-name="Tcaron" unicode="&#x164;" horiz-adv-x="902" 
d="M-13 1365h928v-252h-327v-1113h-273v1113h-328v252zM73 1746l199 95l179 -170l179 170l199 -95l-297 -314h-162z" />
    <glyph glyph-name="tcaron" unicode="&#x165;" horiz-adv-x="766" 
d="M509 673h-136v-368q0 -44 8.5 -61.5t29.5 -17.5q35 0 110 26v-244q-78 -26 -148 -26q-121 0 -191 79q-71 80 -71 238v374h-93v235h93v188l262 102v-290h136v-235zM432 1039l125 406l247 -72l-176 -393z" />
    <glyph glyph-name="Tbar" unicode="&#x166;" horiz-adv-x="902" 
d="M315 0v669h-202v239h202v205h-328v252h928v-252h-327v-205h201v-239h-201v-669h-273z" />
    <glyph glyph-name="tbar" unicode="&#x167;" horiz-adv-x="561" 
d="M18 908h93v188l262 102v-290h136v-212h-136v-59h136v-212h-136v-120q0 -43 8.5 -60.5t29.5 -17.5q35 0 110 26v-245q-78 -26 -148 -26q-121 0 -191 79q-71 80 -71 238v126h-93v212h93v59h-93v212z" />
    <glyph glyph-name="Utilde" unicode="&#x168;" horiz-adv-x="1315" 
d="M137 1365h273v-837q0 -145 29 -195q29 -49 89 -78q61 -31 129 -31t129 31q62 32 89 78q29 52 29 195v837h273v-874q0 -172 -61 -275q-62 -108 -176 -173q-130 -75 -283 -75q-213 0 -364 133q-84 75 -119 164q-37 89 -37 226v874zM773 1788l219 -49q-9 -109 -42 -166
q-25 -40 -72 -64.5t-101 -24.5q-83 0 -161 42q-31 16 -53 18q-8 0 -11 -6q-3 -5 -15 -68l-214 48q25 255 220 255q67 0 161 -47q32 -17 48 -17q10 0 13 10q3 23 8 69z" />
    <glyph glyph-name="utilde" unicode="&#x169;" horiz-adv-x="1044" 
d="M680 0v42q-95 -74 -206 -74q-140 0 -245 93q-66 59 -96 143.5t-30 213.5v490h262v-475q0 -118 26 -168q31 -60 122 -60q45 0 83.5 18.5t55.5 48.5q28 49 28 179v457h262v-908h-262zM638 1369l219 -49q-7 -110 -42 -165q-24 -41 -71 -65.5t-101 -24.5q-84 0 -162 42
q-33 18 -52 18q-7 0 -12 -6q-1 -3 -15 -68l-214 48q26 255 220 255q70 0 161 -48q31 -16 49 -16q9 0 12 10q3 23 8 69z" />
    <glyph glyph-name="Umacron" unicode="&#x16a;" horiz-adv-x="1315" 
d="M137 1365h273v-837q0 -145 29 -195q29 -49 89 -78q61 -31 129 -31t129 31q62 32 89 78q29 52 29 195v837h273v-874q0 -172 -61 -275q-62 -108 -176 -173q-130 -75 -283 -75q-213 0 -364 133q-84 75 -119 164q-37 89 -37 226v874zM325 1516v225h664v-225h-664z" />
    <glyph glyph-name="umacron" unicode="&#x16b;" horiz-adv-x="1044" 
d="M680 0v42q-95 -74 -206 -74q-140 0 -245 93q-66 59 -96 143.5t-30 213.5v490h262v-475q0 -118 26 -168q31 -60 122 -60q45 0 83.5 18.5t55.5 48.5q28 49 28 179v457h262v-908h-262zM191 1097v225h663v-225h-663z" />
    <glyph glyph-name="Ubreve" unicode="&#x16c;" horiz-adv-x="1315" 
d="M137 1365h273v-837q0 -145 29 -195q29 -49 89 -78q61 -31 129 -31t129 31q62 32 89 78q29 52 29 195v837h273v-874q0 -172 -61 -275q-62 -108 -176 -173q-130 -75 -283 -75q-213 0 -364 133q-84 75 -119 164q-37 89 -37 226v874zM332 1784l227 18q1 -33 3 -52
q4 -105 90 -105q57 0 84 55q5 12 19 102l227 -18q-9 -79 -16 -116q-4 -23 -23 -59q-43 -86 -118.5 -133t-171.5 -47q-146 0 -241 101q-69 75 -77 172q-2 21 -3 82z" />
    <glyph glyph-name="ubreve" unicode="&#x16d;" horiz-adv-x="1044" 
d="M680 0v42q-95 -74 -206 -74q-140 0 -245 93q-66 59 -96 143.5t-30 213.5v490h262v-475q0 -118 26 -168q31 -60 122 -60q45 0 83.5 18.5t55.5 48.5q28 49 28 179v457h262v-908h-262zM199 1365l227 18q2 -36 3 -53q5 -107 90 -107q57 0 83 56q6 12 20 104l227 -18
q-9 -83 -16 -116q-6 -23 -23 -59q-43 -86 -119 -133t-171 -47q-146 0 -241 101q-69 75 -77 171q-2 20 -3 83z" />
    <glyph glyph-name="Uring" unicode="&#x16e;" horiz-adv-x="1315" 
d="M657 1860q107 0 177 -78q59 -65 59 -153q0 -103 -77 -172q-68 -60 -160 -60q-104 0 -174 78q-60 66 -60 157q0 96 77 168q66 60 158 60zM657 1734q-44 0 -74.5 -31t-30.5 -76q0 -42 31 -73t74 -31q44 0 75 31t31 74q0 45 -31 75.5t-75 30.5zM137 1365h273v-837
q0 -145 29 -195q29 -49 89 -78q61 -31 129 -31t129 31q62 32 89 78q29 52 29 195v837h273v-874q0 -172 -61 -275q-62 -108 -176 -173q-130 -75 -283 -75q-213 0 -364 133q-84 75 -119 164q-37 89 -37 226v874z" />
    <glyph glyph-name="uring" unicode="&#x16f;" horiz-adv-x="1044" 
d="M680 0v42q-95 -74 -206 -74q-140 0 -245 93q-66 59 -96 143.5t-30 213.5v490h262v-475q0 -118 26 -168q31 -60 122 -60q45 0 83.5 18.5t55.5 48.5q28 49 28 179v457h262v-908h-262zM522 1441q106 0 177 -78q59 -65 59 -153q0 -103 -77 -172q-67 -60 -160 -60
q-103 0 -174 78q-60 66 -60 157q0 97 78 168q65 60 157 60zM522 1315q-44 0 -74.5 -31t-30.5 -76q0 -41 32 -73q31 -31 73 -31q44 0 75 31t31 75t-31 74.5t-75 30.5z" />
    <glyph glyph-name="Uhungarumlaut" unicode="&#x170;" horiz-adv-x="1320" 
d="M617 1864l220 -120l86 120l216 -123l-333 -322l-142 85l172 239l-335 -324l-148 95zM137 1365h273v-837q0 -145 29 -195q29 -49 89 -78q61 -31 129 -31t129 31q62 32 89 78q29 52 29 195v837h273v-874q0 -172 -61 -275q-62 -108 -176 -173q-130 -75 -283 -75
q-213 0 -364 133q-84 75 -119 164q-37 89 -37 226v874z" />
    <glyph glyph-name="uhungarumlaut" unicode="&#x171;" horiz-adv-x="1044" 
d="M475 1443l220 -119l86 119l216 -123l-333 -322l-142 85l172 239l-335 -324l-148 95zM680 0v42q-95 -74 -206 -74q-140 0 -245 93q-66 59 -96 143.5t-30 213.5v490h262v-475q0 -118 26 -168q31 -60 122 -60q45 0 83.5 18.5t55.5 48.5q28 49 28 179v457h262v-908h-262z" />
    <glyph glyph-name="Uogonek" unicode="&#x172;" horiz-adv-x="1315" 
d="M794 -16q-53 -74 -53 -105q0 -16 20 -16q34 0 87 25l79 -191q-132 -47 -196 -47q-122 0 -190 74q-50 58 -50 131q0 58 42 127q-192 41 -294 172t-102 337v874h273v-837q0 -144 29 -196q29 -47 89 -78q61 -31 129 -31t129 31q62 32 89 78q29 52 29 196v837h273v-874
q0 -118 -25 -196q-26 -79 -84 -147q-107 -124 -274 -164z" />
    <glyph glyph-name="uogonek" unicode="&#x173;" horiz-adv-x="1044" 
d="M942 908v-908q-1 -1 -3.5 -4.5t-4.5 -6.5q-58 -73 -58 -110q0 -16 20 -16q35 0 88 25l79 -190q-130 -48 -196 -48q-124 0 -190 74q-51 55 -51 131q0 64 54 145v42q-95 -74 -206 -74q-140 0 -245 93q-66 59 -96 143.5t-30 213.5v490h262v-475q0 -118 26 -168
q33 -60 122 -60q45 0 83.5 18.5t55.5 48.5q28 49 28 179v457h262z" />
    <glyph glyph-name="Wcircumflex" unicode="&#x174;" horiz-adv-x="1796" 
d="M-13 1365h285l251 -874l262 874h225l263 -875l251 875h284l-408 -1365h-244l-259 854l-258 -854h-243zM898 1589l-180 -170l-199 95l298 314h162l297 -314l-199 -95z" />
    <glyph glyph-name="wcircumflex" unicode="&#x175;" horiz-adv-x="1348" 
d="M303 0l-328 908h278l157 -479l164 479h200l165 -480l157 480h277l-328 -908h-209l-162 472l-162 -472h-209zM1051 1096l-198 -95l-179 174l-179 -174l-198 95l296 313h162z" />
    <glyph glyph-name="Ycircumflex" unicode="&#x176;" horiz-adv-x="1131" 
d="M430 0v564l-456 801h305l288 -521l287 521h304l-455 -801v-564h-273zM566 1589l-179 -170l-199 95l297 314h162l297 -314l-199 -95z" />
    <glyph glyph-name="ycircumflex" unicode="&#x177;" horiz-adv-x="971" 
d="M102 -478l232 524l-359 862h281l220 -542l241 542h280l-619 -1386h-276zM865 1096l-199 -95l-179 174l-179 -174l-198 95l296 313h162z" />
    <glyph glyph-name="Ydieresis" unicode="&#x178;" horiz-adv-x="1131" 
d="M430 0v564l-456 801h305l288 -521l287 521h304l-455 -801v-564h-273zM756 1778q63 0 109 -44q45 -43 45 -106q0 -66 -50 -111q-44 -39 -103 -39q-65 0 -109 44q-45 44 -45 108q0 62 45 105q44 43 108 43zM375 1778q63 0 109 -44q45 -43 45 -106q0 -66 -50 -111
q-44 -39 -103 -39q-65 0 -109 44q-45 44 -45 108q0 62 45 105q44 43 108 43z" />
    <glyph glyph-name="Zacute" unicode="&#x179;" horiz-adv-x="1052" 
d="M1012 1365v-206l-635 -905h649v-254h-1005v207l646 907h-589v251h934zM614 1866l245 -126l-334 -323l-176 97z" />
    <glyph glyph-name="zacute" unicode="&#x17a;" horiz-adv-x="855" 
d="M521 1447l244 -126l-333 -323l-177 97zM63 908h757v-189l-428 -485h446v-234h-802v188l429 487h-402v233z" />
    <glyph glyph-name="Zdotaccent" unicode="&#x17b;" horiz-adv-x="1052" 
d="M1012 1365v-206l-635 -905h649v-254h-1005v207l646 907h-589v251h934zM557 1784q72 0 119 -53q40 -43 40 -103q0 -65 -47 -110q-46 -46 -114 -46q-66 0 -112 46t-46 113q0 61 47 108q47 45 113 45z" />
    <glyph glyph-name="zdotaccent" unicode="&#x17c;" horiz-adv-x="855" 
d="M63 908h757v-189l-428 -485h446v-234h-802v188l429 487h-402v233zM437 1374q71 0 119 -53q40 -43 40 -103q0 -65 -46 -110q-46 -46 -115 -46q-66 0 -112 46t-46 113q0 61 47 108q46 45 113 45z" />
    <glyph glyph-name="Zcaron" unicode="&#x17d;" horiz-adv-x="1052" 
d="M1012 1365v-206l-635 -905h649v-254h-1005v207l646 907h-589v251h934zM179 1746l199 95l179 -170l179 170l200 -95l-298 -314h-162z" />
    <glyph glyph-name="zcaron" unicode="&#x17e;" horiz-adv-x="855" 
d="M62 908h757v-189l-428 -485h446v-234h-802v188l429 487h-402v233zM436 1257l179 174l199 -95l-297 -313h-162l-296 313l198 95z" />
    <glyph glyph-name="longs" unicode="&#x17f;" horiz-adv-x="509" 
d="M380 1063v-1063h-262v673h-84v235h84v158q0 177 88 255q70 62 179 62q62 0 143 -18v-235q-52 18 -88 18q-60 0 -60 -85z" />
    <glyph glyph-name="florin" unicode="&#x192;" horiz-adv-x="1009" 
d="M-9 -380l51 242q28 -8 54 -15q28 -9 48 -9q48 0 67 93l154 742h-87l48 235h88l34 164q37 181 141 256q83 60 176 60q64 0 169 -31l-51 -242q-78 25 -101 25q-49 0 -68 -94l-29 -138h157l-49 -235h-157l-159 -768q-37 -180 -142 -256q-81 -60 -176 -60q-65 0 -168 31z" />
    <glyph glyph-name="Ohorn" unicode="&#x1a0;" horiz-adv-x="1589" 
d="M1208 1482l201 101q54 -39 75 -60q86 -86 86 -213q0 -161 -163 -276q95 -170 95 -354q0 -185 -95 -349q-94 -164 -260 -262q-172 -101 -366 -101t-367 101q-162 96 -256 256q-98 167 -98 357t98 357t267 263q167 95 358 95q267 0 477 -183q77 38 77 97q0 42 -23 74
q-24 31 -106 97zM778 1141q-192 0 -324 -148q-118 -130 -118 -318q0 -97 41 -187t115 -153q127 -111 289 -111q113 0 217 60q108 61 167 166q61 106 61 232q0 207 -151 345q-125 114 -297 114z" />
    <glyph glyph-name="ohorn" unicode="&#x1a1;" horiz-adv-x="1166" 
d="M893 785q33 27 33 69t-24 74q-24 31 -106 97l202 100q52 -37 74 -59q87 -86 87 -213q0 -160 -155 -270q17 -66 17 -128q0 -221 -159 -363q-137 -124 -329 -124q-222 0 -366 161q-122 137 -122 325q0 218 158 361q139 125 332 125q212 0 358 -155zM531 703q-62 0 -115 -32
q-107 -65 -107 -214q0 -130 76 -197q62 -55 148 -55q100 0 164 70q60 66 60 181q0 126 -76 192q-61 55 -150 55z" />
    <glyph glyph-name="Uhorn" unicode="&#x1af;" horiz-adv-x="1442" 
d="M1177 1365v-137q51 34 51 83q0 43 -24 74q-29 35 -106 97l202 100q52 -36 75 -59q86 -86 86 -214q0 -224 -284 -334v-484q0 -172 -61 -275q-62 -108 -176 -173q-130 -75 -283 -75q-213 0 -364 133q-84 75 -119 164q-37 89 -37 226v874h273v-837q0 -145 29 -195
q29 -49 89 -78q61 -31 129 -31t129 31q62 32 89 78q29 52 29 195v837h273z" />
    <glyph glyph-name="uhorn" unicode="&#x1b0;" horiz-adv-x="1240" 
d="M942 908v-141q57 35 57 87q0 41 -24 74q-28 34 -105 97l201 100q52 -36 75 -59q86 -86 86 -214q0 -113 -68.5 -193t-221.5 -144v-515h-262v42q-95 -74 -206 -74q-140 0 -245 93q-66 59 -96 143.5t-30 213.5v490h262v-475q0 -118 26 -168q31 -60 122 -60q45 0 83.5 18.5
t55.5 48.5q28 49 28 179v457h262z" />
    <glyph glyph-name="uni01C4" unicode="&#x1c4;" horiz-adv-x="2311" 
d="M137 0v1365h325q311 0 505 -152q243 -191 243 -529q0 -341 -242 -532q-37 -29 -74 -49q-190 -103 -432 -103h-325zM469 1112h-59v-859h59q161 0 273 64q194 113 194 367q0 251 -194 364q-112 64 -273 64zM2282 1365v-206l-635 -905h649v-254h-1005v207l646 907h-589v251
h934zM1449 1746l199 95l179 -170l180 170l199 -95l-297 -314h-162z" />
    <glyph glyph-name="uni01C5" unicode="&#x1c5;" horiz-adv-x="2125" 
d="M137 0v1365h325q311 0 505 -152q243 -191 243 -529q0 -341 -242 -532q-37 -29 -74 -49q-190 -103 -432 -103h-325zM469 1112h-59v-859h59q161 0 273 64q194 113 194 367q0 251 -194 364q-112 64 -273 64zM1332 908h757v-189l-428 -485h446v-234h-803v188l430 487h-402
v233zM1705 1257l179 174l199 -95l-297 -313h-161l-297 313l198 95z" />
    <glyph glyph-name="uni01C6" unicode="&#x1c6;" horiz-adv-x="1968" 
d="M1010 1365v-1365h-262v51q-113 -83 -236 -83q-121 0 -228 62q-110 65 -173 174q-66 114 -66 251q0 221 159 365q134 120 308 120q124 0 236 -84v509h262zM528 703q-95 0 -159 -70q-60 -65 -60 -181q0 -125 77 -193q62 -54 146 -54q96 0 158 68q60 67 60 184
q0 126 -76 193q-59 53 -146 53zM1175 908h757v-189l-428 -485h446v-234h-802v188l429 487h-402v233zM1549 1257l179 174l198 -95l-296 -313h-162l-296 313l198 95z" />
    <glyph glyph-name="uni01C7" unicode="&#x1c7;" horiz-adv-x="1811" 
d="M137 0v1365h273v-1112h490v-253h-763zM1400 1365h273v-939q0 -103 -13 -162q-14 -66 -47 -123q-44 -78 -122 -122q-87 -51 -198 -51q-104 0 -191 43q-89 44 -186 142l166 196q116 -126 204 -126q46 0 75 32q39 43 39 171v939z" />
    <glyph glyph-name="uni01C8" unicode="&#x1c8;" horiz-adv-x="1387" 
d="M137 0v1365h273v-1112h490v-253h-763zM1021 908h262v-1090q0 -177 -88 -255q-71 -62 -173 -62q-66 0 -150 26v244q74 -25 110 -25q19 0 26 10q13 14 13 67v1085zM1151 1374q72 0 120 -53q40 -43 40 -103q0 -69 -52 -115q-46 -41 -107 -41q-67 0 -113 46q-47 47 -47 112
q0 62 47 109q47 45 112 45z" />
    <glyph glyph-name="uni01C9" unicode="&#x1c9;" horiz-adv-x="957" 
d="M367 1365v-1365h-262v1365h262zM592 908h262v-1090q0 -177 -88 -255q-71 -62 -173 -62q-66 0 -150 26v244q74 -25 110 -25q19 0 26 10q13 14 13 67v1085zM722 1374q72 0 120 -53q40 -43 40 -103q0 -65 -46 -110q-46 -46 -113 -46t-113 46q-47 47 -47 112q0 62 47 109
q46 45 112 45z" />
    <glyph glyph-name="uni01CA" unicode="&#x1ca;" horiz-adv-x="2324" 
d="M410 0h-273v1365h231l671 -889v889h273v-1365h-231l-671 889v-889zM1913 1365h273v-939q0 -103 -13 -162q-14 -66 -47 -123q-44 -78 -122 -122q-87 -51 -197 -51q-105 0 -192 43q-89 44 -186 142l167 196q114 -126 203 -126q46 0 75 32q39 43 39 171v939z" />
    <glyph glyph-name="uni01CB" unicode="&#x1cb;" horiz-adv-x="1935" 
d="M410 0h-273v1365h231l671 -889v889h273v-1365h-231l-671 889v-889zM1569 908h262v-1090q0 -177 -88 -255q-71 -62 -173 -62q-66 0 -150 26v244q74 -25 110 -25q19 0 26 10q13 14 13 67v1085zM1699 1374q72 0 120 -53q40 -43 40 -103q0 -69 -52 -115q-46 -41 -107 -41
q-67 0 -113 46q-47 47 -47 112q0 62 47 109q47 45 112 45z" />
    <glyph glyph-name="uni01CC" unicode="&#x1cc;" horiz-adv-x="1530" 
d="M365 908v-42q94 74 207 74q139 0 244 -93q66 -59 96 -143.5t30 -213.5v-490h-262v475q0 119 -26 169q-32 59 -122 59q-45 0 -83.5 -18.5t-55.5 -49.5q-28 -49 -28 -178v-457h-262v908h262zM1165 908h262v-1090q0 -177 -88 -255q-71 -62 -173 -62q-66 0 -150 26v244
q74 -25 110 -25q19 0 26 10q13 14 13 67v1085zM1295 1374q72 0 120 -53q40 -43 40 -103q0 -68 -51 -115q-47 -41 -108 -41q-67 0 -113 46q-47 47 -47 112q0 62 47 109q47 45 112 45z" />
    <glyph glyph-name="uni01CD" unicode="&#x1cd;" horiz-adv-x="1316" 
d="M1040 0l-113 318h-540l-113 -318h-287l510 1365h322l510 -1365h-289zM477 571h360l-180 504zM280 1746l199 95l179 -170l179 170l199 -95l-297 -314h-162z" />
    <glyph glyph-name="uni01CE" unicode="&#x1ce;" horiz-adv-x="1113" 
d="M1011 908v-908h-262v51q-113 -83 -236 -83q-122 0 -229 62q-110 65 -173 174q-66 114 -66 251q0 221 159 365q134 120 309 120q123 0 236 -83v51h262zM529 703q-96 0 -160 -70q-60 -65 -60 -182q0 -125 76 -191q62 -55 147 -55q97 0 159 68q61 67 61 183q0 127 -76 194
q-61 53 -147 53zM528 1257l179 174l198 -95l-296 -313h-162l-296 313l198 95z" />
    <glyph glyph-name="uni01CF" unicode="&#x1cf;" horiz-adv-x="547" 
d="M138 1365h273v-1365h-273v1365zM-104 1746l199 95l179 -170l179 170l199 -95l-297 -314h-161z" />
    <glyph glyph-name="uni01D0" unicode="&#x1d0;" horiz-adv-x="469" 
d="M103 908h262v-908h-262v908zM235 1257l179 174l198 -95l-297 -313h-161l-297 313l198 95z" />
    <glyph glyph-name="uni01D1" unicode="&#x1d1;" horiz-adv-x="1562" 
d="M780 1397q316 0 534 -237q188 -205 188 -478q0 -190 -98 -357q-94 -159 -257 -256q-172 -101 -364 -101q-275 0 -482 183q-241 214 -241 540q0 187 98 348q104 170 267 263q167 95 355 95zM778 1141q-192 0 -324 -148q-118 -130 -118 -318q0 -97 41 -187t115 -153
q127 -111 289 -111q113 0 217 60q108 61 167 166q61 106 61 232q0 207 -151 345q-125 114 -297 114zM403 1746l199 95l179 -170l179 170l199 -95l-297 -314h-162z" />
    <glyph glyph-name="uni01D2" unicode="&#x1d2;" horiz-adv-x="1065" 
d="M541 940q212 0 358 -161q122 -137 122 -324q0 -219 -158 -362q-139 -125 -330 -125q-222 0 -366 161q-122 137 -122 329q0 213 158 357q137 125 338 125zM531 703q-62 0 -115 -32q-107 -65 -107 -214q0 -130 76 -197q62 -55 148 -55q100 0 164 70q60 66 60 181
q0 126 -76 192q-61 55 -150 55zM533 1257l179 174l198 -95l-296 -313h-161l-297 313l198 95z" />
    <glyph glyph-name="uni01D3" unicode="&#x1d3;" horiz-adv-x="1315" 
d="M137 1365h273v-837q0 -145 29 -195q29 -49 89 -78q61 -31 129 -31t129 31q62 32 89 78q29 52 29 195v837h273v-874q0 -172 -61 -275q-62 -108 -176 -173q-130 -75 -283 -75q-213 0 -364 133q-84 75 -119 164q-37 89 -37 226v874zM279 1746l199 95l179 -170l179 170
l199 -95l-297 -314h-161z" />
    <glyph glyph-name="uni01D4" unicode="&#x1d4;" horiz-adv-x="1044" 
d="M680 0v42q-95 -74 -206 -74q-140 0 -245 93q-66 59 -96 143.5t-30 213.5v490h262v-475q0 -118 26 -168q31 -60 122 -60q45 0 83.5 18.5t55.5 48.5q28 49 28 179v457h262v-908h-262zM523 1257l179 174l198 -95l-296 -313h-162l-297 313l198 95z" />
    <glyph glyph-name="Gcaron" unicode="&#x1e6;" horiz-adv-x="1490" 
d="M771 513v251h657v-130q0 -205 -89 -369q-73 -135 -213 -213q-153 -84 -335 -84q-204 0 -374 98q-163 94 -260 259q-97 166 -97 357q0 190 97 356q98 170 265 264q167 95 367 95q225 0 416 -138q57 -41 133 -114l-193 -183q-99 101 -178 141q-78 39 -180 39
q-205 0 -334 -146q-117 -132 -117 -314q0 -208 149 -343q127 -115 306 -115q168 0 270 113q60 66 83 176h-373zM413 1746l199 95l179 -170l179 170l199 -95l-297 -314h-162z" />
    <glyph glyph-name="gcaron" unicode="&#x1e7;" horiz-adv-x="1113" 
d="M749 -18v69q-67 -48 -117 -65q-52 -18 -119 -18q-203 0 -343 156q-124 137 -124 331q0 221 159 365q133 120 308 120q67 0 119 -18q50 -17 117 -65v51h262v-926q0 -236 -150 -369q-140 -123 -344 -123q-215 0 -366 139q-37 35 -94 102l176 169q4 -5 18 -21t23 -27
q105 -125 242 -125q114 0 175 69q58 64 58 186zM531 703q-61 0 -114 -32q-107 -65 -107 -213q0 -131 77 -199q61 -54 145 -54q96 0 159 68q60 66 60 183q0 128 -75 194q-61 53 -145 53zM528 1257l180 174l198 -95l-297 -313h-161l-297 313l198 95z" />
    <glyph glyph-name="uni01F4" unicode="&#x1f4;" horiz-adv-x="1490" 
d="M771 513v251h657v-130q0 -205 -89 -369q-73 -135 -213 -213q-153 -84 -335 -84q-204 0 -374 98q-163 94 -260 259q-97 166 -97 357q0 190 97 356q98 170 265 264q167 95 367 95q225 0 416 -138q57 -41 133 -114l-193 -183q-99 101 -178 141q-78 39 -180 39
q-205 0 -334 -146q-117 -132 -117 -314q0 -208 149 -343q127 -115 306 -115q168 0 270 113q60 66 83 176h-373zM896 1866l245 -126l-334 -323l-176 97z" />
    <glyph glyph-name="uni01F5" unicode="&#x1f5;" horiz-adv-x="1113" 
d="M749 -18v69q-67 -48 -117 -65q-52 -18 -119 -18q-203 0 -343 156q-124 137 -124 331q0 221 159 365q133 120 308 120q67 0 119 -18q50 -17 117 -65v51h262v-926q0 -236 -150 -369q-140 -123 -344 -123q-215 0 -366 139q-37 35 -94 102l176 169q4 -5 18 -21t23 -27
q105 -125 242 -125q114 0 175 69q58 64 58 186zM531 703q-61 0 -114 -32q-107 -65 -107 -213q0 -131 77 -199q61 -54 145 -54q96 0 159 68q60 66 60 183q0 128 -75 194q-61 53 -145 53zM624 1447l245 -126l-334 -323l-176 97z" />
    <glyph glyph-name="Aringacute" unicode="&#x1fa;" horiz-adv-x="1316" 
d="M916 2092l-250 -233q63 -3 115 -32q52 -30 82 -81t30 -109q0 -97 -74 -163q-67 -60 -161 -60q-107 0 -178 77q-58 64 -58 146q0 107 95 178l-112 59l266 340zM657 1739q-44 0 -74.5 -30t-30.5 -73q0 -41 32 -71t73 -30q44 0 75 30t31 72q0 43 -31 72.5t-75 29.5zM1040 0
l-113 318h-540l-113 -318h-287l510 1365h322l510 -1365h-289zM477 571h360l-180 504z" />
    <glyph glyph-name="aringacute" unicode="&#x1fb;" horiz-adv-x="1113" 
d="M828 1740l-316 -305q26 2 33 2q97 0 167 -68q69 -67 69 -163q0 -103 -77 -172q-68 -60 -158 -60q-106 0 -176 78q-60 66 -60 153q0 77 46 138q47 62 121 84l-159 87l265 352zM545 1311q-44 0 -74.5 -31t-30.5 -76q0 -42 31 -73t74 -31q44 0 75 30.5t31 74.5
q0 45 -31 75.5t-75 30.5zM1011 908v-908h-262v51q-113 -83 -236 -83q-122 0 -229 62q-110 65 -173 174q-66 114 -66 251q0 221 159 365q134 120 309 120q123 0 236 -83v51h262zM529 703q-96 0 -160 -70q-60 -65 -60 -182q0 -125 76 -191q62 -55 147 -55q97 0 159 68
q61 67 61 183q0 127 -76 194q-61 53 -147 53z" />
    <glyph glyph-name="AEacute" unicode="&#x1fc;" horiz-adv-x="1730" 
d="M865 0v318h-410l-164 -318h-305l719 1365h943v-251h-511v-297h454v-252h-454v-312h530v-253h-802zM587 571h278v511h-14zM1168 1866l244 -126l-333 -323l-177 97z" />
    <glyph glyph-name="aeacute" unicode="&#x1fd;" horiz-adv-x="1640" 
d="M829 818q133 122 308 122q202 0 335 -148q67 -73 99 -187q24 -84 24 -174q0 -39 -1 -68h-651q49 -163 206 -163q129 0 203 116l229 -91q-158 -257 -434 -257q-177 0 -312 117q-115 -117 -347 -117q-172 0 -288 67q-156 89 -156 254q0 159 139 238q106 61 276 61h200
q-22 66 -66 95t-121 29q-129 0 -272 -97l-137 169q119 88 212 121q99 35 220 35q220 0 334 -122zM943 546h392q-53 165 -195 165q-155 0 -197 -165zM669 312v93h-183q-181 0 -181 -105q0 -43 29 -66q48 -39 153 -39q182 0 182 117zM906 1447l245 -126l-334 -323l-176 97z
" />
    <glyph glyph-name="Oslashacute" unicode="&#x1fe;" horiz-adv-x="1577" 
d="M1343 1371l149 -144l-125 -122q142 -193 142 -421q0 -189 -95 -353q-96 -168 -266 -266q-169 -97 -361 -97q-232 0 -432 145l-122 -119l-149 144l124 122q-141 188 -141 420q0 190 98 359q98 167 267 263q167 95 357 95q238 0 432 -146zM1172 914l-626 -614
q115 -76 243 -76q113 0 216 60q108 62 167 166q61 106 61 229t-61 235zM404 451l628 615q-112 75 -243 75q-198 0 -328 -148q-118 -130 -118 -310q0 -126 61 -232zM891 1866l244 -126l-333 -323l-177 97z" />
    <glyph glyph-name="oslashacute" unicode="&#x1ff;" horiz-adv-x="1093" 
d="M58 119l76 71q-76 119 -76 263q0 219 158 362q139 125 332 125q156 0 287 -91l70 65l129 -125l-76 -71q76 -113 76 -265q0 -217 -158 -360q-139 -125 -332 -125q-160 0 -287 92l-69 -66zM332 376l321 302q-50 26 -107 26q-101 0 -164 -70q-61 -67 -61 -177q0 -42 11 -81z
M760 532l-320 -302q54 -26 107 -26q97 0 162 69q62 68 62 184q0 40 -11 75zM642 1447l245 -126l-334 -323l-176 97z" />
    <glyph glyph-name="uni0200" unicode="&#x200;" horiz-adv-x="1316" 
d="M398 1864l82 -115l213 115l264 -350l-160 -95l-260 252l116 -163l-150 -89l-332 322zM1040 0l-113 318h-540l-113 -318h-287l510 1365h322l510 -1365h-289zM477 571h360l-180 504z" />
    <glyph glyph-name="uni0201" unicode="&#x201;" horiz-adv-x="1113" 
d="M239 1443l83 -115l212 115l264 -350l-160 -95l-260 251l116 -162l-149 -89l-333 322zM1010 908v-908h-262v51q-113 -83 -236 -83q-122 0 -229 62q-110 65 -173 174q-66 114 -66 251q0 223 159 365q133 120 309 120q123 0 236 -83v51h262zM528 703q-96 0 -160 -70
q-60 -65 -60 -182q0 -125 76 -191q62 -55 147 -55q97 0 159 68q61 67 61 183q0 127 -76 194q-59 53 -147 53z" />
    <glyph glyph-name="Scommaaccent" unicode="&#x218;" horiz-adv-x="1075" 
d="M990 1127l-224 -141q-44 69 -78 103q-52 54 -133 54q-82 0 -129 -53q-38 -46 -38 -99q0 -83 147 -139l126 -48q212 -79 289 -200q53 -86 53 -191q0 -195 -147 -325q-135 -120 -327 -120q-157 0 -278 84q-141 98 -195 335l267 71q28 -115 55 -155q56 -80 154 -80
q91 0 148 64q48 54 48 123q0 43 -22 71q-34 46 -162 94l-120 46q-308 117 -308 372q0 176 130 291q128 113 316 113q207 0 342 -151q41 -46 86 -119zM521 -39l238 -98l-275 -336l-189 91z" />
    <glyph glyph-name="scommaaccent" unicode="&#x219;" horiz-adv-x="796" 
d="M218 -446l125 406l247 -72l-176 -393zM34 246l220 82q37 -71 70.5 -99.5t79.5 -28.5q39 0 62 20.5t23 55.5q0 16 -9 30q-10 16 -84 45l-121 49q-186 74 -186 246q0 128 96 211q97 83 235 83q211 0 327 -212l-208 -99q-57 82 -122 82q-76 0 -76 -60q0 -16 8 -27
q12 -15 81 -42l105 -40q111 -43 163.5 -105t52.5 -151q0 -136 -104 -229q-98 -89 -246 -89q-162 0 -264 103q-59 59 -103 175z" />
    <glyph glyph-name="uni021A" unicode="&#x21a;" horiz-adv-x="902" 
d="M-13 1365h928v-252h-327v-1113h-273v1113h-328v252zM245 -446l125 406l247 -72l-176 -393z" />
    <glyph glyph-name="uni021B" unicode="&#x21b;" horiz-adv-x="561" 
d="M509 673h-136v-368q0 -44 8.5 -61.5t29.5 -17.5q35 0 110 26v-244q-78 -26 -148 -26q-121 0 -191 79q-71 80 -71 238v374h-93v235h93v188l262 102v-290h136v-235zM86 -446l125 406l246 -72l-176 -393z" />
    <glyph glyph-name="uni0226" unicode="&#x226;" horiz-adv-x="1316" 
d="M1040 0l-113 318h-540l-113 -318h-287l510 1365h322l510 -1365h-289zM477 571h360l-180 504zM657 1784q72 0 120 -53q40 -43 40 -103q0 -69 -52 -115q-46 -41 -107 -41q-67 0 -113 46q-47 47 -47 112q0 62 47 109q47 45 112 45z" />
    <glyph glyph-name="uni0227" unicode="&#x227;" horiz-adv-x="1113" 
d="M1011 908v-908h-262v51q-113 -83 -236 -83q-122 0 -229 62q-110 65 -173 174q-66 114 -66 251q0 221 159 365q134 120 309 120q123 0 236 -83v51h262zM529 703q-96 0 -160 -70q-60 -65 -60 -182q0 -125 76 -191q62 -55 147 -55q97 0 159 68q61 67 61 183q0 127 -76 194
q-61 53 -147 53zM528 1374q71 0 119 -53q40 -43 40 -103q0 -65 -46 -110q-46 -46 -115 -46q-66 0 -112 46t-46 113q0 61 47 108q47 45 113 45z" />
    <glyph glyph-name="uni0237" unicode="&#x237;" horiz-adv-x="486" 
d="M119 908h262v-1090q0 -177 -88 -255q-71 -62 -173 -62q-65 0 -149 26v244q74 -25 110 -25q18 0 25 10q13 14 13 67v1085z" />
    <glyph glyph-name="uni02BB" unicode="&#x2bb;" horiz-adv-x="551" 
d="M508 1427l-204 -547l-235 82l249 538z" />
    <glyph glyph-name="afii57929" unicode="&#x2bc;" horiz-adv-x="626" 
d="M90 931l206 573l240 -87l-250 -564z" />
    <glyph glyph-name="circumflex" unicode="&#x2c6;" horiz-adv-x="975" 
d="M865 1096l-198 -95l-180 174l-179 -174l-198 95l297 313h161z" />
    <glyph glyph-name="caron" unicode="&#x2c7;" horiz-adv-x="975" 
d="M487 1257l180 174l198 -95l-297 -313h-161l-297 313l198 95z" />
    <glyph glyph-name="uni02C9" unicode="&#x2c9;" horiz-adv-x="975" 
d="M156 1097v225h664v-225h-664z" />
    <glyph glyph-name="breve" unicode="&#x2d8;" horiz-adv-x="975" 
d="M163 1365l227 18q2 -36 3 -53q5 -107 90 -107q57 0 83 56q6 11 20 104l227 -18q-9 -79 -16 -116q-6 -23 -23 -59q-43 -86 -119 -133t-171 -47q-146 0 -241 101q-69 75 -77 171q-2 23 -3 83z" />
    <glyph glyph-name="dotaccent" unicode="&#x2d9;" horiz-adv-x="975" 
d="M487 1374q72 0 120 -53q40 -43 40 -103q0 -65 -46 -110q-46 -46 -115 -46q-66 0 -112 46t-46 112q0 62 47 109q47 45 112 45z" />
    <glyph glyph-name="ring" unicode="&#x2da;" horiz-adv-x="975" 
d="M487 1441q107 0 177 -78q59 -65 59 -153q0 -103 -77 -172q-68 -60 -158 -60q-97 0 -167 68q-69 68 -69 167q0 97 77 168q66 60 158 60zM487 1315q-44 0 -74.5 -31t-30.5 -76q0 -41 32 -73q31 -31 73 -31q44 0 75 31t31 75t-31 74.5t-75 30.5z" />
    <glyph glyph-name="ogonek" unicode="&#x2db;" horiz-adv-x="975" 
d="M661 0h262q-66 -87 -66 -121q0 -16 20 -16q35 0 88 25l79 -190q-130 -48 -196 -48q-124 0 -190 74q-51 55 -51 131q0 64 54 145z" />
    <glyph glyph-name="tilde" unicode="&#x2dc;" horiz-adv-x="975" 
d="M603 1369l219 -49q-9 -110 -42 -165q-24 -41 -71 -65.5t-102 -24.5q-83 0 -161 42q-35 18 -53 18q-8 0 -11 -6q-1 -3 -15 -68l-214 48q25 255 220 255q70 0 161 -48q31 -16 48 -16q10 0 13 10q3 23 8 69z" />
    <glyph glyph-name="hungarumlaut" unicode="&#x2dd;" horiz-adv-x="975" 
d="M443 1443l221 -119l86 119l215 -123l-332 -322l-142 85l171 239l-335 -324l-148 95z" />
    <glyph glyph-name="uni0309" unicode="&#x309;" horiz-adv-x="975" 
d="M667 1456l1 -14h-236q2 75 9 100q6 24 30 53q26 34 26 43q0 12 -21 12t-54 -12q-19 -8 -34 -12l-79 191q81 30 119 39q38 8 80 8q131 0 194 -70q44 -50 44 -114q0 -61 -40 -122l-32 -48q-7 -10 -7 -48v-6z" />
    <glyph glyph-name="uni0323" unicode="&#x323;" horiz-adv-x="975" 
d="M488 -76q71 0 119 -53q40 -43 40 -103q0 -65 -46 -111q-47 -45 -115 -45q-66 0 -112 46t-46 113q0 62 47 107q46 46 113 46z" />
    <glyph glyph-name="uni037E" unicode="&#x37e;" horiz-adv-x="544" 
d="M22 -303l206 573l240 -88l-250 -563zM308 882q72 0 119 -53q40 -43 40 -103q0 -65 -46 -110q-46 -46 -115 -46q-66 0 -112 46t-46 113q0 61 47 108q47 45 113 45z" />
    <glyph glyph-name="uni0387" unicode="&#x387;" horiz-adv-x="529" 
d="M264 839q72 0 120 -53q40 -43 40 -103q0 -69 -52 -115q-46 -41 -107 -41q-67 0 -113 46q-47 47 -47 112q0 62 47 109q47 45 112 45z" />
    <glyph glyph-name="uni1E1E" unicode="&#x1e1e;" horiz-adv-x="925" 
d="M137 1365h738v-252h-465v-295h424v-253h-424v-565h-273v1365zM506 1784q71 0 119 -53q40 -43 40 -103q0 -69 -52 -115q-46 -41 -107 -41q-67 0 -113 46q-47 47 -47 112q0 62 47 109q46 45 113 45z" />
    <glyph glyph-name="uni1E1F" unicode="&#x1e1f;" horiz-adv-x="552" 
d="M536 673h-151v-673h-262v673h-84v235h84v158q0 177 88 255q70 62 179 62q62 0 143 -18v-235q-52 18 -88 18q-60 0 -60 -85v-155h151v-235zM339 1773q71 0 119 -52q40 -43 40 -104q0 -65 -46 -110q-46 -46 -115 -46q-66 0 -112 46t-46 113q0 61 47 108q47 45 113 45z" />
    <glyph glyph-name="Wgrave" unicode="&#x1e80;" horiz-adv-x="1796" 
d="M-13 1365h285l251 -874l262 874h225l263 -875l251 875h284l-408 -1365h-244l-259 854l-258 -854h-243zM895 1417l-333 323l244 126l266 -352z" />
    <glyph glyph-name="wgrave" unicode="&#x1e81;" horiz-adv-x="1348" 
d="M303 0l-328 908h278l157 -479l164 479h200l165 -480l157 480h277l-328 -908h-209l-162 472l-162 -472h-209zM664 998l-333 323l245 126l265 -352z" />
    <glyph glyph-name="Wacute" unicode="&#x1e82;" horiz-adv-x="1796" 
d="M-13 1365h285l251 -874l262 874h225l263 -875l251 875h284l-408 -1365h-244l-259 854l-258 -854h-243zM1000 1866l245 -126l-334 -323l-176 97z" />
    <glyph glyph-name="wacute" unicode="&#x1e83;" horiz-adv-x="1352" 
d="M303 0l-328 908h278l157 -479l164 479h200l165 -480l157 480h277l-328 -908h-209l-162 472l-162 -472h-209zM705 1447l245 -126l-334 -323l-176 97z" />
    <glyph glyph-name="Wdieresis" unicode="&#x1e84;" horiz-adv-x="1796" 
d="M-13 1365h285l251 -874l262 874h225l263 -875l251 875h284l-408 -1365h-244l-259 854l-258 -854h-243zM1089 1778q65 0 109 -43q44 -44 44 -107q0 -66 -50 -111q-44 -39 -103 -39q-65 0 -109 44q-45 44 -45 108q0 62 46 105q44 43 108 43zM707 1778q62 0 108 -44
q45 -43 45 -106q0 -62 -45 -106q-46 -44 -110 -44q-63 0 -107 45q-45 43 -45 108q0 61 46 104q44 43 108 43z" />
    <glyph glyph-name="wdieresis" unicode="&#x1e85;" horiz-adv-x="1348" 
d="M303 0l-328 908h278l157 -479l164 479h200l165 -480l157 480h277l-328 -908h-209l-162 472l-162 -472h-209zM865 1368q69 0 114 -51q39 -42 39 -99q0 -62 -45 -106q-46 -44 -110 -44q-63 0 -107 45q-45 43 -45 107q0 62 46 105q44 43 108 43zM484 1368q68 0 115 -51
q38 -43 38 -99q0 -62 -45 -106q-46 -44 -110 -44t-107 45q-45 43 -45 107q0 62 46 105q44 43 108 43z" />
    <glyph glyph-name="uni1EA0" unicode="&#x1ea0;" horiz-adv-x="1316" 
d="M1040 0l-113 318h-540l-113 -318h-287l510 1365h322l510 -1365h-289zM477 571h360l-180 504zM658 -76q71 0 119 -53q40 -43 40 -103q0 -69 -52 -115q-46 -41 -107 -41q-67 0 -113 46q-47 47 -47 112q0 66 51 113q47 41 109 41z" />
    <glyph glyph-name="uni1EA1" unicode="&#x1ea1;" horiz-adv-x="1113" 
d="M1011 908v-908h-262v51q-113 -83 -236 -83q-122 0 -229 62q-110 65 -173 174q-66 114 -66 251q0 221 159 365q134 120 309 120q123 0 236 -83v51h262zM531 703q-61 0 -114 -32q-108 -65 -108 -213q0 -132 76 -198q62 -55 147 -55q97 0 159 68q61 67 61 183q0 127 -76 194
q-61 53 -145 53zM552 -76q72 0 119 -53q40 -43 40 -103q0 -68 -51 -115q-47 -41 -108 -41q-68 0 -114 46t-46 112q0 67 52 113q46 41 108 41z" />
    <glyph glyph-name="uni1EA2" unicode="&#x1ea2;" horiz-adv-x="1316" 
d="M790 1456v-14h-236q3 75 9 100q6 24 30 53q26 34 26 43q0 12 -21 12q-20 0 -54 -12q-15 -7 -34 -12l-78 191q81 30 119 39q38 8 79 8q131 0 194 -70q44 -50 44 -114q0 -63 -40 -122l-32 -48q-6 -10 -6 -48v-6zM1040 0l-113 318h-540l-113 -318h-287l510 1365h322
l510 -1365h-289zM477 571h360l-180 504z" />
    <glyph glyph-name="uni1EA3" unicode="&#x1ea3;" horiz-adv-x="1113" 
d="M1011 908v-908h-262v51q-113 -83 -236 -83q-122 0 -229 62q-110 65 -173 174q-66 114 -66 251q0 221 159 365q134 120 309 120q123 0 236 -83v51h262zM531 703q-61 0 -114 -32q-108 -65 -108 -213q0 -132 76 -198q62 -55 147 -55q97 0 159 68q61 67 61 183q0 127 -76 194
q-61 53 -145 53zM668 1019h-236q3 73 9 99q6 25 30 55q27 33 27 42q0 12 -21 12q-14 0 -89 -24l-79 191q84 30 120 39q38 8 80 8q131 0 193 -69q45 -50 45 -115q0 -60 -41 -122l-32 -48q-7 -10 -7 -43q0 -12 1 -25z" />
    <glyph glyph-name="uni1EA4" unicode="&#x1ea4;" horiz-adv-x="1316" 
d="M1211 1848l-256 -248l81 -86l-199 -95l-179 173l-179 -173l-199 95l297 314h162l65 -70l163 217zM1040 0l-113 318h-540l-113 -318h-287l510 1365h322l510 -1365h-289zM477 571h360l-180 504z" />
    <glyph glyph-name="uni1EA5" unicode="&#x1ea5;" horiz-adv-x="1113" 
d="M609 1386l56 -60l245 324l244 -126l-333 -323l-77 42l161 -170l-198 -95l-179 174l-179 -174l-198 95l296 313h162zM1011 908v-908h-262v51q-113 -83 -236 -83q-122 0 -229 62q-110 65 -173 174q-66 114 -66 251q0 221 159 365q134 120 309 120q123 0 236 -83v51h262z
M529 703q-96 0 -160 -70q-60 -65 -60 -182q0 -125 76 -191q62 -55 147 -55q97 0 159 68q61 67 61 183q0 127 -76 194q-61 53 -147 53z" />
    <glyph glyph-name="uni1EA6" unicode="&#x1ea6;" horiz-adv-x="1316" 
d="M1040 0l-113 318h-540l-113 -318h-287l510 1365h322l510 -1365h-289zM477 571h360l-180 504zM1062 1551l-333 323l245 126l265 -352zM1013 1514l-199 -95l-179 170l-179 -170l-199 95l297 314h162z" />
    <glyph glyph-name="uni1EA7" unicode="&#x1ea7;" horiz-adv-x="1113" 
d="M425 1386h161l297 -313l-199 -95l-179 174l-179 -174l-198 95zM1011 908v-908h-262v51q-113 -83 -236 -83q-122 0 -229 62q-110 65 -173 174q-66 114 -66 251q0 221 159 365q134 120 309 120q123 0 236 -83v51h262zM529 703q-96 0 -160 -70q-60 -65 -60 -182
q0 -125 76 -191q62 -55 147 -55q97 0 159 68q61 67 61 183q0 127 -76 194q-61 53 -147 53zM837 1193l-334 323l245 126l265 -352z" />
    <glyph glyph-name="uni1EA8" unicode="&#x1ea8;" horiz-adv-x="1316" 
d="M1113 1570h-130l53 -56l-199 -95l-179 170l-179 -170l-199 95l297 314h162l151 -159l13 26l2 6q12 23 25 46l1 2q11 16 11 19q-2 11 -21 11q-22 0 -54 -13q-6 -2 -17 -6t-17 -6l-79 191q88 32 121 39q37 8 77 8q132 0 195 -69q44 -50 44 -115q0 -61 -40 -122l-32 -48
q-7 -10 -7 -48v-6zM1040 0l-113 318h-540l-113 -318h-287l510 1365h322l510 -1365h-289zM477 571h360l-180 504z" />
    <glyph glyph-name="uni1EA9" unicode="&#x1ea9;" horiz-adv-x="1113" 
d="M609 1386l89 -94q7 25 24 58q8 18 24 38q14 17 14 24q0 12 -21 12t-55 -12q-15 -7 -34 -12l-78 191q81 30 119 39q38 8 80 8q131 0 194 -70q44 -50 44 -114q0 -61 -40 -122l-33 -48q-6 -10 -6 -43v-11v-14h-160l135 -143l-198 -95l-179 174l-179 -174l-198 95l296 313
h162zM1011 908v-908h-262v51q-113 -83 -236 -83q-122 0 -229 62q-110 65 -173 174q-66 114 -66 251q0 221 159 365q134 120 309 120q123 0 236 -83v51h262zM529 703q-96 0 -160 -70q-60 -65 -60 -182q0 -125 76 -191q62 -55 147 -55q97 0 159 68q61 67 61 183q0 127 -76 194
q-61 53 -147 53z" />
    <glyph glyph-name="uni1EAA" unicode="&#x1eaa;" horiz-adv-x="1316" 
d="M1040 0l-113 318h-540l-113 -318h-287l510 1365h322l510 -1365h-289zM477 571h360l-180 504zM658 1561l-180 -165l-199 92l298 303h162l297 -303l-199 -92zM773 2107l219 -47q-7 -102 -40 -158q-25 -40 -72 -64t-102 -24q-85 0 -162 41q-33 18 -52 18q-8 0 -12 -6
q-2 -5 -15 -67l-213 47q26 246 219 246q70 0 161 -46q30 -14 49 -16q9 -1 12 9q4 11 8 67z" />
    <glyph glyph-name="uni1EAB" unicode="&#x1eab;" horiz-adv-x="1113" 
d="M1011 908v-908h-262v51q-113 -83 -236 -83q-122 0 -229 62q-110 65 -173 174q-66 114 -66 251q0 221 159 365q134 120 309 120q123 0 236 -83v51h262zM529 703q-96 0 -160 -70q-60 -65 -60 -182q0 -125 76 -191q62 -55 147 -55q97 0 159 68q61 67 61 183q0 127 -76 194
q-61 53 -147 53zM528 1154l-180 -165l-199 91l298 303h162l297 -303l-199 -91zM643 1712l219 -47q-9 -104 -41 -157q-24 -41 -71 -65t-102 -24q-85 0 -162 41q-35 18 -53 18q-9 0 -12 -9q-3 -6 -14 -63l-214 46q26 246 220 246q70 0 161 -46q32 -16 49 -16q10 0 13 10
q3 20 7 66z" />
    <glyph glyph-name="uni1EAC" unicode="&#x1eac;" horiz-adv-x="1316" 
d="M1040 0l-113 318h-540l-113 -318h-287l510 1365h322l510 -1365h-289zM477 571h360l-180 504zM658 -76q71 0 119 -53q40 -43 40 -103q0 -69 -52 -115q-46 -41 -107 -41q-67 0 -113 46q-47 47 -47 112q0 66 51 113q47 41 109 41zM658 1589l-179 -170l-199 95l297 314h162
l297 -314l-199 -95z" />
    <glyph glyph-name="uni1EAD" unicode="&#x1ead;" horiz-adv-x="1113" 
d="M1011 908v-908h-262v51q-113 -83 -236 -83q-122 0 -229 62q-110 65 -173 174q-66 114 -66 251q0 221 159 365q134 120 309 120q123 0 236 -83v51h262zM531 703q-61 0 -114 -32q-108 -65 -108 -213q0 -132 76 -198q62 -55 147 -55q97 0 159 68q61 67 61 183q0 127 -76 194
q-61 53 -145 53zM536 -76q71 0 119 -53q40 -43 40 -103q0 -65 -46 -111q-47 -45 -115 -45q-66 0 -112 46t-46 113q0 66 52 112q46 41 108 41zM905 1096l-198 -95l-179 174l-180 -174l-198 95l297 313h161z" />
    <glyph glyph-name="uni1EAE" unicode="&#x1eae;" horiz-adv-x="1316" 
d="M334 1753l209 16l-64 33l265 340l245 -122l-334 -311l-93 50v-12l1 -11q4 -63 24.5 -90.5t66.5 -27.5q58 0 83 54q6 11 20 98l227 -17q-9 -76 -16 -111q-4 -20 -22 -56q-43 -84 -119 -130t-172 -46q-150 0 -243 101q-68 73 -75 162q-1 21 -3 80zM1040 0l-113 318h-540
l-113 -318h-287l510 1365h322l510 -1365h-289zM477 571h360l-180 504z" />
    <glyph glyph-name="uni1EAF" unicode="&#x1eaf;" horiz-adv-x="1113" 
d="M1011 908v-908h-262v51q-113 -83 -236 -83q-122 0 -229 62q-110 65 -173 174q-66 114 -66 251q0 221 159 365q134 120 309 120q123 0 236 -83v51h262zM531 703q-61 0 -114 -32q-108 -65 -108 -213q0 -132 76 -198q62 -55 147 -55q97 0 159 68q61 67 61 183q0 127 -76 194
q-61 53 -145 53zM206 1337l227 17q2 -34 3 -50q4 -102 90 -102q58 0 83 54q7 16 20 98l227 -17q-9 -76 -16 -111q-4 -20 -22 -56q-43 -84 -119 -130t-172 -46q-150 0 -243 101q-69 73 -75 162q-1 21 -3 80zM623 1745l245 -121l-333 -312l-177 94z" />
    <glyph glyph-name="uni1EB0" unicode="&#x1eb0;" horiz-adv-x="1316" 
d="M756 1765l-107 -56l-333 311l245 122l265 -340l-63 -33l221 -16q-9 -76 -16 -111q-4 -20 -22 -56q-43 -84 -119 -130t-172 -46q-150 0 -243 101q-68 73 -75 162q-1 21 -3 80l227 17q1 -32 3 -49q4 -103 90 -103q80 0 97 114q1 11 5 33zM1040 0l-113 318h-540l-113 -318
h-287l510 1365h322l510 -1365h-289zM477 571h360l-180 504z" />
    <glyph glyph-name="uni1EB1" unicode="&#x1eb1;" horiz-adv-x="1113" 
d="M1011 908v-908h-262v51q-113 -83 -236 -83q-122 0 -229 62q-110 65 -173 174q-66 114 -66 251q0 221 159 365q134 120 309 120q123 0 236 -83v51h262zM531 703q-61 0 -114 -32q-108 -65 -108 -213q0 -132 76 -198q62 -55 147 -55q97 0 159 68q61 67 61 183q0 127 -76 194
q-61 53 -145 53zM206 1337l227 17q2 -34 3 -50q4 -102 90 -102q58 0 83 54q7 16 20 98l227 -17q-9 -76 -16 -111q-4 -20 -22 -56q-43 -84 -119 -130t-172 -46q-150 0 -243 101q-69 73 -75 162q-1 21 -3 80zM517 1312l-334 312l245 121l265 -339z" />
    <glyph glyph-name="uni1EB2" unicode="&#x1eb2;" horiz-adv-x="1316" 
d="M334 1761l208 16q3 53 10 74q8 22 28 48q27 33 27 43q0 11 -21 11q-22 0 -55 -12q-19 -8 -34 -12l-78 183q129 46 199 46q134 0 195 -69q43 -46 43 -109q0 -60 -40 -118l-33 -47q-6 -9 -6 -39l207 -15q-9 -76 -16 -111q-4 -20 -22 -56q-43 -84 -119 -130t-172 -46
q-150 0 -243 101q-69 73 -75 162q-1 21 -3 80zM753 1750h-190v-8q1 -36 7 -55q19 -61 84 -61q69 0 88 64q6 20 11 60zM1040 0l-113 318h-540l-113 -318h-287l510 1365h322l510 -1365h-289zM477 571h360l-180 504z" />
    <glyph glyph-name="uni1EB3" unicode="&#x1eb3;" horiz-adv-x="1113" 
d="M1011 908v-908h-262v51q-113 -83 -236 -83q-122 0 -229 62q-110 65 -173 174q-66 114 -66 251q0 221 159 365q134 120 309 120q123 0 236 -83v51h262zM531 703q-61 0 -114 -32q-108 -65 -108 -213q0 -132 76 -198q62 -55 147 -55q97 0 159 68q61 67 61 183q0 127 -76 194
q-61 53 -145 53zM206 1337l227 17q2 -34 3 -50q4 -102 90 -102q58 0 83 54q7 16 20 98l227 -17q-9 -76 -16 -111q-4 -20 -22 -56q-43 -84 -119 -130t-172 -46q-149 0 -244 101q-68 74 -74 162q-1 21 -3 80zM649 1371h-236q3 71 9 95q6 25 30 53q27 35 27 43q0 12 -21 12
q-15 0 -89 -24l-79 183q94 32 122 38q37 8 77 8q135 0 196 -69q43 -46 43 -109q0 -59 -41 -118l-32 -47q-7 -10 -7 -41q0 -11 1 -24z" />
    <glyph glyph-name="uni1EB4" unicode="&#x1eb4;" horiz-adv-x="1316" 
d="M1040 0l-113 318h-540l-113 -318h-287l510 1365h322l510 -1365h-289zM477 571h360l-180 504zM333 1760l227 18q2 -34 3 -50q5 -102 90 -102q57 0 83 54q7 14 20 97l227 -17q-9 -74 -16 -110q-4 -20 -22 -56q-43 -84 -119 -130t-172 -46q-149 0 -244 101q-68 74 -74 162
q-1 16 -3 79zM773 2099l219 -46q-7 -102 -40 -158q-25 -41 -72 -65t-102 -24q-85 0 -162 41q-33 18 -52 18q-8 0 -12 -6q-2 -5 -15 -66l-213 47q26 245 217 245q82 0 158 -43q34 -19 53 -19q10 0 13 10q3 17 8 66z" />
    <glyph glyph-name="uni1EB5" unicode="&#x1eb5;" horiz-adv-x="1113" 
d="M205 1348l227 17q1 -32 3 -49q4 -103 90 -103q57 0 83 54q6 11 20 98l227 -17q-9 -74 -16 -110q-4 -19 -22 -57q-43 -84 -119 -130t-172 -46q-150 0 -243 101q-68 74 -75 163q-1 19 -3 79zM646 1700l218 -47q-7 -103 -40 -157q-24 -41 -71 -65t-103 -24q-84 0 -161 41
q-34 18 -53 18q-8 0 -12 -6q-2 -4 -15 -66l-213 46q26 246 218 246q81 0 157 -43q34 -19 54 -19q10 0 13 10q3 17 8 66zM1011 908v-908h-262v51q-113 -83 -236 -83q-122 0 -229 62q-110 65 -173 174q-66 114 -66 251q0 221 159 365q134 120 309 120q123 0 236 -83v51h262z
M529 703q-96 0 -160 -70q-60 -65 -60 -182q0 -125 76 -191q62 -55 147 -55q97 0 159 68q61 67 61 183q0 127 -76 194q-61 53 -147 53z" />
    <glyph glyph-name="uni1EB6" unicode="&#x1eb6;" horiz-adv-x="1316" 
d="M1040 0l-113 318h-540l-113 -318h-287l510 1365h322l510 -1365h-289zM477 571h360l-180 504zM333 1784l227 18q1 -33 3 -52q5 -105 90 -105q56 0 83 55q7 15 20 102l227 -18q-9 -79 -16 -116q-6 -23 -23 -59q-43 -86 -119 -133t-171 -47q-146 0 -241 101q-69 75 -77 172
q-2 18 -3 82zM658 -76q71 0 119 -53q40 -43 40 -103q0 -69 -52 -115q-46 -41 -107 -41q-67 0 -113 46q-47 47 -47 112q0 66 51 113q47 41 109 41z" />
    <glyph glyph-name="uni1EB7" unicode="&#x1eb7;" horiz-adv-x="1113" 
d="M1011 908v-908h-262v51q-113 -83 -236 -83q-122 0 -229 62q-110 65 -173 174q-66 114 -66 251q0 221 159 365q134 120 309 120q123 0 236 -83v51h262zM529 703q-96 0 -160 -70q-60 -65 -60 -182q0 -125 76 -191q62 -55 147 -55q97 0 159 68q61 67 61 183q0 127 -76 194
q-61 53 -147 53zM536 -76q71 0 119 -53q40 -43 40 -103q0 -65 -46 -111q-47 -45 -115 -45q-66 0 -112 46t-46 113q0 66 52 112q46 41 108 41zM203 1365l227 18q2 -36 3 -53q5 -107 90 -107q57 0 83 56q6 11 20 104l227 -18q-9 -79 -16 -116q-4 -23 -23 -59
q-43 -86 -119 -133t-171 -47q-146 0 -241 101q-69 75 -77 171q-2 23 -3 83z" />
    <glyph glyph-name="uni1EB8" unicode="&#x1eb8;" horiz-adv-x="998" 
d="M137 1365h782v-251h-510v-297h453v-252h-453v-312h529v-253h-801v1365zM556 -76q67 0 113 -46q46 -45 46 -110q0 -68 -51 -115q-47 -41 -108 -41q-67 0 -113 46q-47 47 -47 112q0 63 47 108q46 46 113 46z" />
    <glyph glyph-name="uni1EB9" unicode="&#x1eb9;" horiz-adv-x="1010" 
d="M722 316l230 -91q-159 -257 -431 -257q-216 0 -352 154q-124 137 -124 332q0 222 156 366q130 120 308 120q201 0 334 -148q123 -138 123 -357q0 -4 -0.5 -13t-1 -26t-0.5 -33h-650q49 -163 206 -163q131 0 202 116zM314 546h392q-54 165 -196 165q-152 0 -196 -165z
M515 -76q71 0 119 -53q40 -43 40 -103q0 -65 -46 -111q-46 -45 -115 -45q-66 0 -112 46t-46 113q0 62 47 107q46 46 113 46z" />
    <glyph glyph-name="uni1EBA" unicode="&#x1eba;" horiz-adv-x="998" 
d="M137 1365h782v-251h-510v-297h453v-252h-453v-312h529v-253h-801v1365zM677 1456l1 -14h-236q2 74 9 99q6 24 30 54q26 35 26 44q0 11 -21 11t-54 -12q-19 -8 -34 -12l-79 191q84 30 120 39q37 8 79 8q131 0 194 -70q44 -50 44 -114q0 -61 -40 -122l-32 -48
q-7 -10 -7 -48v-6z" />
    <glyph glyph-name="uni1EBB" unicode="&#x1ebb;" horiz-adv-x="1010" 
d="M722 316l230 -91q-159 -257 -431 -257q-216 0 -352 154q-124 137 -124 332q0 222 156 366q130 120 308 120q201 0 334 -148q123 -138 123 -357q0 -4 -0.5 -13t-1 -26t-0.5 -33h-650q49 -163 206 -163q131 0 202 116zM314 546h392q-54 165 -196 165q-152 0 -196 -165z
M645 1033l1 -14h-236q2 73 9 99q6 26 29 55q27 31 27 42q0 12 -21 12t-54 -12q-19 -8 -34 -12l-79 191q84 30 120 39q37 8 79 8q131 0 194 -69q44 -50 44 -115q0 -61 -40 -122l-32 -48q-7 -10 -7 -48v-6z" />
    <glyph glyph-name="uni1EBC" unicode="&#x1ebc;" horiz-adv-x="998" 
d="M137 1365h782v-251h-510v-297h453v-252h-453v-312h529v-253h-801v1365zM615 1788l219 -49q-9 -109 -42 -166q-24 -40 -71.5 -64.5t-101.5 -24.5q-83 0 -161 42q-34 18 -53 18q-8 0 -11 -6q-1 -3 -15 -68l-214 48q25 255 220 255q67 0 161 -47q32 -17 48 -17q10 0 13 10
q3 23 8 69z" />
    <glyph glyph-name="uni1EBD" unicode="&#x1ebd;" horiz-adv-x="1010" 
d="M722 316l230 -91q-159 -257 -431 -257q-216 0 -352 154q-124 137 -124 332q0 222 156 366q130 120 308 120q201 0 334 -148q123 -138 123 -357q0 -4 -0.5 -13t-1 -26t-0.5 -33h-650q49 -163 206 -163q131 0 202 116zM314 546h392q-54 165 -196 165q-152 0 -196 -165z
M621 1369l219 -49q-8 -110 -42 -165q-24 -41 -71 -65.5t-101 -24.5q-84 0 -162 42q-31 16 -52 18q-8 0 -12 -6q-3 -5 -15 -68l-214 48q25 255 220 255q70 0 161 -48q31 -16 49 -16q9 0 12 10q3 23 8 69z" />
    <glyph glyph-name="uni1EBE" unicode="&#x1ebe;" horiz-adv-x="1028" 
d="M138 1365h783v-251h-511v-297h454v-252h-454v-312h529v-253h-801v1365zM1069 1848l-257 -248l81 -86l-199 -95l-179 173l-179 -173l-199 95l297 314h162l66 -70l162 217z" />
    <glyph glyph-name="uni1EBF" unicode="&#x1ebf;" horiz-adv-x="1010" 
d="M591 1386l57 -60l244 324l244 -126l-331 -321l-126 90l208 -220l-198 -95l-179 174l-179 -174l-198 95l296 313h162zM722 316l230 -91q-159 -257 -431 -257q-216 0 -352 154q-124 137 -124 332q0 222 156 366q130 120 308 120q201 0 334 -148q123 -138 123 -357
q0 -4 -0.5 -13t-1 -26t-0.5 -33h-650q49 -163 206 -163q131 0 202 116zM314 546h392q-54 165 -196 165q-152 0 -196 -165z" />
    <glyph glyph-name="uni1EC0" unicode="&#x1ec0;" horiz-adv-x="1065" 
d="M146 1365h782v-251h-510v-297h453v-252h-453v-312h529v-253h-801v1365zM943 1551l-334 323l245 126l265 -352zM893 1514l-199 -95l-179 170l-179 -170l-199 95l297 314h162z" />
    <glyph glyph-name="uni1EC1" unicode="&#x1ec1;" horiz-adv-x="1010" 
d="M722 316l230 -91q-159 -257 -431 -257q-216 0 -352 154q-124 137 -124 332q0 222 156 366q130 120 308 120q201 0 334 -148q123 -138 123 -357q0 -4 -0.5 -13t-1 -26t-0.5 -33h-650q49 -163 206 -163q131 0 202 116zM314 546h392q-54 165 -196 165q-152 0 -196 -165z
M410 1386h161l297 -313l-198 -95l-179 174l-180 -174l-198 95zM822 1193l-333 323l244 126l266 -352z" />
    <glyph glyph-name="uni1EC2" unicode="&#x1ec2;" horiz-adv-x="1025" 
d="M596 1828l151 -159l13 26q1 2 2 6q14 29 34 58q3 4 3 8q0 12 -21 12q-22 0 -54 -13q-6 -2 -17 -6t-17 -6l-79 191q90 32 122 39q35 8 76 8q132 0 195 -69q44 -50 44 -115q0 -63 -40 -122l-32 -48q-7 -10 -7 -48v-6l1 -14h-129l52 -56l-199 -95l-179 170l-179 -170
l-199 95l297 314h162zM152 1365h782v-251h-510v-297h453v-252h-453v-312h529v-253h-801v1365z" />
    <glyph glyph-name="uni1EC3" unicode="&#x1ec3;" horiz-adv-x="1010" 
d="M583 1386l90 -94q4 22 24 58q8 17 24 38q14 17 14 24q0 12 -21 12q-20 0 -55 -12q-15 -7 -34 -12l-79 191q82 30 120 39q38 8 80 8q131 0 194 -70q44 -50 44 -114q0 -61 -40 -122l-33 -48q-6 -10 -6 -54v-14h-160l135 -143l-198 -95l-179 174l-180 -174l-198 95l297 313
h161zM722 316l230 -91q-159 -257 -431 -257q-216 0 -352 154q-124 137 -124 332q0 222 156 366q130 120 308 120q201 0 334 -148q123 -138 123 -357q0 -4 -0.5 -13t-1 -26t-0.5 -33h-650q49 -163 206 -163q131 0 202 116zM314 546h392q-54 165 -196 165q-152 0 -196 -165z
" />
    <glyph glyph-name="uni1EC4" unicode="&#x1ec4;" horiz-adv-x="998" 
d="M137 1365h782v-251h-510v-297h453v-252h-453v-312h529v-253h-801v1365zM638 2099l219 -46q-7 -103 -41 -158q-24 -41 -71 -65t-102 -24q-86 0 -162 41q-34 18 -53 18q-6 0 -11 -6q-3 -5 -15 -66l-214 47q26 245 217 245q83 0 159 -43q32 -19 53 -19q10 0 13 10q3 17 8 66
zM520 1549l-179 -165l-199 92l297 303h162l297 -303l-199 -92z" />
    <glyph glyph-name="uni1EC5" unicode="&#x1ec5;" horiz-adv-x="1010" 
d="M722 316l230 -91q-159 -257 -431 -257q-216 0 -352 154q-124 137 -124 332q0 222 156 366q130 120 308 120q201 0 334 -148q123 -138 123 -357q0 -4 -0.5 -13t-1 -26t-0.5 -33h-650q49 -163 206 -163q131 0 202 116zM314 546h392q-54 165 -196 165q-152 0 -196 -165z
M625 1700l219 -47q-7 -103 -40 -157q-25 -41 -72 -65t-102 -24q-85 0 -162 41q-34 18 -52 18q-8 0 -12 -6q-2 -4 -15 -66l-214 46q25 246 218 246q81 0 158 -43q34 -19 53 -19q10 0 13 10q4 11 8 66zM497 1154l-179 -165l-199 91l297 303h162l297 -303l-199 -91z" />
    <glyph glyph-name="uni1EC6" unicode="&#x1ec6;" horiz-adv-x="998" 
d="M565 -76q67 0 113 -46q46 -45 46 -110q0 -68 -51 -115q-47 -41 -108 -41q-67 0 -113 46q-47 47 -47 112q0 63 47 108q46 46 113 46zM538 1589l-179 -170l-199 95l298 314h162l297 -314l-199 -95zM137 1365h782v-251h-510v-297h453v-252h-453v-312h529v-253h-801v1365z
" />
    <glyph glyph-name="uni1EC7" unicode="&#x1ec7;" horiz-adv-x="1010" 
d="M722 316l230 -91q-159 -257 -431 -257q-216 0 -352 154q-124 137 -124 332q0 222 156 366q130 120 308 120q201 0 334 -148q123 -138 123 -357q0 -4 -0.5 -13t-1 -26t-0.5 -33h-650q49 -163 206 -163q131 0 202 116zM314 546h392q-54 165 -196 165q-152 0 -196 -165z
M519 -76q71 0 119 -53q40 -43 40 -103q0 -65 -46 -111q-46 -45 -115 -45q-66 0 -112 46t-46 113q0 62 47 107q46 46 113 46zM892 1096l-198 -95l-180 174l-179 -174l-198 95l297 313h161z" />
    <glyph glyph-name="uni1EC8" unicode="&#x1ec8;" horiz-adv-x="546" 
d="M136 1365h273v-1365h-273v1365zM411 1456l1 -14h-236q2 74 9 99q6 24 30 54q26 35 26 44q0 11 -21 11q-20 0 -54 -12q-19 -8 -34 -12l-79 191q81 30 119 39q38 8 80 8q131 0 194 -70q44 -50 44 -114q0 -61 -40 -122l-32 -48q-7 -10 -7 -48v-6z" />
    <glyph glyph-name="uni1EC9" unicode="&#x1ec9;" horiz-adv-x="469" 
d="M104 908h262v-908h-262v908zM373 1019h-236q3 73 9 99q6 24 29 55q27 33 27 42q0 12 -21 12q-14 0 -88 -24l-79 191q84 30 120 39q37 8 79 8q131 0 194 -69q44 -50 44 -115q0 -61 -40 -122l-32 -48q-7 -10 -7 -43q0 -14 1 -25z" />
    <glyph glyph-name="uni1ECA" unicode="&#x1eca;" horiz-adv-x="544" 
d="M135 1365h273v-1365h-273v1365zM272 -76q67 0 113 -46q46 -45 46 -110t-46 -111q-47 -45 -115 -45q-66 0 -112 46t-46 113q0 62 47 107q46 46 113 46z" />
    <glyph glyph-name="uni1ECB" unicode="&#x1ecb;" horiz-adv-x="469" 
d="M234 1374q72 0 120 -53q40 -43 40 -103q0 -65 -46 -110q-46 -46 -115 -46q-66 0 -112 46t-46 112q0 62 47 109q46 45 112 45zM104 908h262v-908h-262v908zM235 -76q72 0 120 -53q40 -43 40 -103q0 -69 -52 -115q-46 -41 -108 -41q-67 0 -113 46q-47 47 -47 112
q0 63 48 108q46 46 112 46z" />
    <glyph glyph-name="uni1ECC" unicode="&#x1ecc;" horiz-adv-x="1562" 
d="M780 1397q316 0 534 -237q188 -205 188 -478q0 -190 -98 -357q-94 -159 -257 -256q-172 -101 -364 -101q-275 0 -482 183q-241 214 -241 540q0 187 98 348q104 170 267 263q167 95 355 95zM778 1141q-192 0 -324 -148q-118 -130 -118 -318q0 -97 41 -187t115 -153
q127 -111 289 -111q113 0 217 60q108 61 167 166q61 106 61 232q0 207 -151 345q-125 114 -297 114zM781 -76q71 0 119 -53q40 -43 40 -103q0 -65 -46 -111q-46 -45 -115 -45q-66 0 -112 46t-46 113q0 62 47 107q46 46 113 46z" />
    <glyph glyph-name="uni1ECD" unicode="&#x1ecd;" horiz-adv-x="1065" 
d="M541 940q212 0 358 -161q122 -137 122 -324q0 -219 -158 -362q-139 -125 -330 -125q-222 0 -366 161q-122 137 -122 329q0 213 158 357q137 125 338 125zM531 703q-62 0 -115 -32q-107 -65 -107 -214q0 -130 76 -197q62 -55 148 -55q100 0 164 70q60 66 60 181
q0 126 -76 192q-61 55 -150 55zM533 -76q71 0 119 -53q40 -43 40 -103q0 -69 -52 -115q-46 -41 -107 -41q-67 0 -113 46q-47 47 -47 112q0 67 52 113q46 41 108 41z" />
    <glyph glyph-name="uni1ECE" unicode="&#x1ece;" horiz-adv-x="1562" 
d="M780 1397q316 0 534 -237q188 -205 188 -478q0 -190 -98 -357q-94 -159 -257 -256q-172 -101 -364 -101q-275 0 -482 183q-241 214 -241 540q0 187 98 348q104 170 267 263q167 95 355 95zM778 1141q-192 0 -324 -148q-118 -130 -118 -318q0 -97 41 -187t115 -153
q127 -111 289 -111q113 0 217 60q108 61 167 166q61 106 61 232q0 207 -151 345q-125 114 -297 114zM921 1442h-235q2 74 9 99q6 25 29 54q27 35 27 43q0 12 -21 12q-20 0 -55 -12q-15 -7 -34 -12l-78 191q81 30 119 39q38 8 80 8q131 0 194 -70q44 -50 44 -114
q0 -61 -40 -122l-33 -48q-8 -11 -6 -68z" />
    <glyph glyph-name="uni1ECF" unicode="&#x1ecf;" horiz-adv-x="1065" 
d="M541 940q212 0 358 -161q122 -137 122 -324q0 -219 -158 -362q-139 -125 -330 -125q-222 0 -366 161q-122 137 -122 329q0 213 158 357q137 125 338 125zM531 703q-62 0 -115 -32q-107 -65 -107 -214q0 -130 76 -197q62 -55 148 -55q100 0 164 70q60 66 60 181
q0 126 -76 192q-61 55 -150 55zM673 1033v-14h-235q2 73 9 99q6 24 29 55q27 33 27 42q0 12 -21 12q-14 0 -89 -24l-78 191q81 30 119 39q38 8 80 8q131 0 194 -69q44 -50 44 -115q0 -61 -40 -122l-33 -48q-6 -11 -6 -54z" />
    <glyph glyph-name="uni1ED0" unicode="&#x1ed0;" horiz-adv-x="1562" 
d="M780 1397q316 0 534 -237q188 -205 188 -478q0 -190 -98 -357q-94 -159 -257 -256q-172 -101 -364 -101q-275 0 -482 183q-241 214 -241 540q0 187 98 348q104 170 267 263q167 95 355 95zM778 1141q-192 0 -324 -148q-118 -130 -118 -318q0 -97 41 -187t115 -153
q127 -111 289 -111q113 0 217 60q108 61 167 166q61 106 61 232q0 207 -151 345q-125 114 -297 114zM1335 1848l-257 -248l81 -86l-199 -95l-179 166l-179 -166l-199 95l297 314h162l66 -70l162 217z" />
    <glyph glyph-name="uni1ED1" unicode="&#x1ed1;" horiz-adv-x="1065" 
d="M614 1386l57 -60l244 324l244 -126l-331 -321l-127 91l209 -221l-198 -95l-179 174l-179 -174l-198 95l297 313h161zM541 940q212 0 358 -161q122 -137 122 -324q0 -219 -158 -362q-139 -125 -330 -125q-222 0 -366 161q-122 137 -122 329q0 213 158 357q137 125 338 125
zM531 703q-62 0 -115 -32q-107 -65 -107 -214q0 -130 76 -197q62 -55 148 -55q100 0 164 70q60 66 60 181q0 126 -76 192q-61 55 -150 55z" />
    <glyph glyph-name="uni1ED2" unicode="&#x1ed2;" horiz-adv-x="1562" 
d="M780 1397q316 0 534 -237q188 -205 188 -478q0 -190 -98 -357q-94 -159 -257 -256q-172 -101 -364 -101q-275 0 -482 183q-241 214 -241 540q0 187 98 348q104 170 267 263q167 95 355 95zM778 1141q-192 0 -324 -148q-118 -130 -118 -318q0 -97 41 -187t115 -153
q127 -111 289 -111q113 0 217 60q108 61 167 166q61 106 61 232q0 207 -151 345q-125 114 -297 114zM1209 1551l-334 323l245 126l265 -352zM1159 1514l-199 -95l-179 170l-179 -170l-199 95l297 314h162z" />
    <glyph glyph-name="uni1ED3" unicode="&#x1ed3;" horiz-adv-x="1065" 
d="M541 940q212 0 358 -161q122 -137 122 -324q0 -219 -158 -362q-139 -125 -330 -125q-222 0 -366 161q-122 137 -122 329q0 213 158 357q137 125 338 125zM531 703q-62 0 -115 -32q-107 -65 -107 -214q0 -130 76 -197q62 -55 148 -55q100 0 164 70q60 66 60 181
q0 126 -76 192q-61 55 -150 55zM453 1386h161l296 -313l-198 -95l-179 174l-179 -174l-198 95zM865 1193l-334 323l245 126l265 -352z" />
    <glyph glyph-name="uni1ED4" unicode="&#x1ed4;" horiz-adv-x="1562" 
d="M1236 1570h-129l52 -56l-199 -95l-179 170l-179 -170l-199 95l297 314h162l151 -159l13 26q1 2 2 6q14 29 34 58q3 4 3 8q0 12 -21 12q-22 0 -54 -13q-5 -2 -17 -6t-17 -6l-79 191q90 32 122 39q35 8 76 8q132 0 195 -69q44 -50 44 -115q0 -63 -40 -122l-32 -48
q-7 -10 -7 -43q0 -12 1 -25zM780 1397q316 0 534 -237q188 -205 188 -478q0 -190 -98 -357q-94 -159 -257 -256q-172 -101 -364 -101q-275 0 -482 183q-241 214 -241 540q0 187 98 348q104 170 267 263q167 95 355 95zM778 1141q-192 0 -324 -148q-118 -130 -118 -318
q0 -97 41 -187t115 -153q127 -111 289 -111q113 0 217 60q108 61 167 166q61 106 61 232q0 207 -151 345q-125 114 -297 114z" />
    <glyph glyph-name="uni1ED5" unicode="&#x1ed5;" horiz-adv-x="1065" 
d="M605 1386l89 -95q4 19 21 49l16 28q0 2 1 5q4 11 15 24q9 12 9 15q0 12 -21 12t-55 -12q-15 -7 -34 -12l-78 191q84 31 119 39q38 8 80 8q131 0 194 -70q44 -50 44 -114q0 -61 -40 -122l-33 -48q-6 -10 -6 -54v-14h-160l135 -143l-198 -95l-179 174l-180 -174l-198 95
l297 313h162zM541 940q212 0 358 -161q122 -137 122 -324q0 -219 -158 -362q-139 -125 -330 -125q-222 0 -366 161q-122 137 -122 329q0 213 158 357q137 125 338 125zM531 703q-62 0 -115 -32q-107 -65 -107 -214q0 -130 76 -197q62 -55 148 -55q100 0 164 70q60 66 60 181
q0 126 -76 192q-61 55 -150 55z" />
    <glyph glyph-name="uni1ED6" unicode="&#x1ed6;" horiz-adv-x="1562" 
d="M780 1397q316 0 534 -237q188 -205 188 -478q0 -190 -98 -357q-94 -159 -257 -256q-172 -101 -364 -101q-275 0 -482 183q-241 214 -241 540q0 187 98 348q104 170 267 263q167 95 355 95zM778 1141q-192 0 -324 -148q-118 -130 -118 -318q0 -97 41 -187t115 -153
q127 -111 289 -111q113 0 217 60q108 61 167 166q61 106 61 232q0 207 -151 345q-125 114 -297 114zM781 1561l-179 -165l-199 92l297 303h162l297 -303l-199 -92zM897 2107l219 -47q-9 -103 -41 -158q-24 -40 -71 -64t-102 -24q-86 0 -162 41q-35 18 -53 18q-7 0 -11 -6
q-3 -4 -15 -67l-214 47q25 246 219 246q71 0 162 -46q32 -16 49 -16q9 0 12 10q3 17 8 66z" />
    <glyph glyph-name="uni1ED7" unicode="&#x1ed7;" horiz-adv-x="1065" 
d="M541 940q212 0 358 -161q122 -137 122 -324q0 -219 -158 -362q-139 -125 -330 -125q-222 0 -366 161q-122 137 -122 329q0 213 158 357q137 125 338 125zM531 703q-62 0 -115 -32q-107 -65 -107 -214q0 -130 76 -197q62 -55 148 -55q100 0 164 70q60 66 60 181
q0 126 -76 192q-61 55 -150 55zM533 1154l-179 -165l-199 91l297 303h162l297 -303l-199 -91zM649 1712l218 -47q-7 -103 -40 -157q-24 -41 -71 -65t-102 -24q-85 0 -162 41q-35 18 -53 18q-9 0 -12 -9q-3 -6 -14 -63l-214 46q25 246 219 246q70 0 162 -46q32 -16 49 -16
q9 0 12 10q3 17 8 66z" />
    <glyph glyph-name="uni1ED8" unicode="&#x1ed8;" horiz-adv-x="1562" 
d="M780 1397q316 0 534 -237q188 -205 188 -478q0 -190 -98 -357q-94 -159 -257 -256q-172 -101 -364 -101q-275 0 -482 183q-241 214 -241 540q0 187 98 348q104 170 267 263q167 95 355 95zM778 1141q-192 0 -324 -148q-118 -130 -118 -318q0 -97 41 -187t115 -153
q127 -111 289 -111q113 0 217 60q108 61 167 166q61 106 61 232q0 207 -151 345q-125 114 -297 114zM781 -76q71 0 119 -53q40 -43 40 -103q0 -65 -46 -111q-46 -45 -115 -45q-66 0 -112 46t-46 113q0 62 47 107q46 46 113 46zM781 1589l-179 -170l-199 95l297 314h162
l297 -314l-199 -95z" />
    <glyph glyph-name="uni1ED9" unicode="&#x1ed9;" horiz-adv-x="1065" 
d="M541 940q212 0 358 -161q122 -137 122 -324q0 -219 -158 -362q-139 -125 -330 -125q-222 0 -366 161q-122 137 -122 329q0 213 158 357q137 125 338 125zM531 703q-62 0 -115 -32q-107 -65 -107 -214q0 -130 76 -197q62 -55 148 -55q100 0 164 70q60 66 60 181
q0 126 -76 192q-61 55 -150 55zM910 1096l-198 -95l-179 174l-179 -174l-198 95l297 313h161zM533 -76q71 0 119 -53q40 -43 40 -103q0 -69 -52 -115q-46 -41 -107 -41q-67 0 -113 46q-47 47 -47 112q0 67 52 113q46 41 108 41z" />
    <glyph glyph-name="uni1EDA" unicode="&#x1eda;" horiz-adv-x="1589" 
d="M1208 1482l201 101q54 -39 75 -60q86 -86 86 -213q0 -161 -163 -276q95 -170 95 -354q0 -185 -95 -349q-94 -164 -260 -262q-172 -101 -366 -101t-367 101q-162 96 -256 256q-98 167 -98 357t98 357t267 263q167 95 358 95q267 0 477 -183q77 38 77 97q0 42 -23 74
q-24 31 -106 97zM778 1141q-192 0 -324 -148q-118 -130 -118 -318q0 -97 41 -187t115 -153q127 -111 289 -111q113 0 217 60q108 61 167 166q61 106 61 232q0 207 -151 345q-125 114 -297 114zM888 1866l245 -126l-334 -323l-176 97z" />
    <glyph glyph-name="uni1EDB" unicode="&#x1edb;" horiz-adv-x="1166" 
d="M893 785q33 27 33 69t-24 74q-24 31 -106 97l202 100q52 -37 74 -59q87 -86 87 -213q0 -160 -155 -270q17 -66 17 -128q0 -221 -159 -363q-137 -124 -329 -124q-222 0 -366 161q-122 137 -122 325q0 218 158 361q139 125 332 125q212 0 358 -155zM531 703q-62 0 -115 -32
q-107 -65 -107 -214q0 -130 76 -197q62 -55 148 -55q100 0 164 70q60 66 60 181q0 126 -76 192q-61 55 -150 55zM607 1447l244 -126l-333 -323l-177 97z" />
    <glyph glyph-name="uni1EDC" unicode="&#x1edc;" horiz-adv-x="1589" 
d="M1208 1482l201 101q54 -39 75 -60q86 -86 86 -213q0 -161 -163 -276q95 -170 95 -354q0 -185 -95 -349q-94 -164 -260 -262q-172 -101 -366 -101t-367 101q-162 96 -256 256q-98 167 -98 357t98 357t267 263q167 95 358 95q267 0 477 -183q77 38 77 97q0 42 -23 74
q-24 31 -106 97zM778 1141q-192 0 -324 -148q-118 -130 -118 -318q0 -97 41 -187t115 -153q127 -111 289 -111q113 0 217 60q108 61 167 166q61 106 61 232q0 207 -151 345q-125 114 -297 114zM763 1417l-334 323l245 126l266 -352z" />
    <glyph glyph-name="uni1EDD" unicode="&#x1edd;" horiz-adv-x="1166" 
d="M893 785q33 27 33 69t-24 74q-24 31 -106 97l202 100q52 -37 74 -59q87 -86 87 -213q0 -160 -155 -270q17 -66 17 -128q0 -221 -159 -363q-137 -124 -329 -124q-222 0 -366 161q-122 137 -122 325q0 218 158 361q139 125 332 125q212 0 358 -155zM531 703q-62 0 -115 -32
q-107 -65 -107 -214q0 -130 76 -197q62 -55 148 -55q100 0 164 70q60 66 60 181q0 126 -76 192q-61 55 -150 55zM527 998l-333 323l244 126l266 -352z" />
    <glyph glyph-name="uni1EDE" unicode="&#x1ede;" horiz-adv-x="1589" 
d="M1208 1482l201 101q54 -39 75 -60q86 -86 86 -213q0 -161 -163 -276q95 -170 95 -354q0 -185 -95 -349q-94 -164 -260 -262q-172 -101 -366 -101t-367 101q-162 96 -256 256q-98 167 -98 357t98 357t267 263q167 95 358 95q267 0 477 -183q77 38 77 97q0 42 -23 74
q-24 31 -106 97zM778 1141q-192 0 -324 -148q-118 -130 -118 -318q0 -97 41 -187t115 -153q127 -111 289 -111q113 0 217 60q108 61 167 166q61 106 61 232q0 207 -151 345q-125 114 -297 114zM938 1442h-235q1 74 9 100q6 24 29 53q27 35 27 43q0 12 -21 12q-13 0 -89 -24
l-78 191q81 30 119 39q38 8 80 8q131 0 194 -70q44 -50 44 -114q0 -61 -40 -122l-33 -48q-8 -12 -6 -68z" />
    <glyph glyph-name="uni1EDF" unicode="&#x1edf;" horiz-adv-x="1166" 
d="M893 785q33 27 33 69t-24 74q-24 31 -106 97l202 100q52 -37 74 -59q87 -86 87 -213q0 -160 -155 -270q17 -66 17 -128q0 -221 -159 -363q-137 -124 -329 -124q-222 0 -366 161q-122 137 -122 325q0 218 158 361q139 125 332 125q212 0 358 -155zM531 703q-62 0 -115 -32
q-107 -65 -107 -214q0 -130 76 -197q62 -55 148 -55q100 0 164 70q60 66 60 181q0 126 -76 192q-61 55 -150 55zM680 1019h-235q1 73 9 99q6 24 29 55q27 33 27 42q0 12 -21 12q-15 0 -88 -24l-79 191q84 30 120 39q37 8 79 8q131 0 194 -69q44 -50 44 -115q0 -61 -40 -122
l-32 -48q-7 -10 -7 -43v-25z" />
    <glyph glyph-name="uni1EE0" unicode="&#x1ee0;" horiz-adv-x="1589" 
d="M1208 1482l201 101q54 -39 75 -60q86 -86 86 -213q0 -161 -163 -276q95 -170 95 -354q0 -185 -95 -349q-94 -164 -260 -262q-172 -101 -366 -101t-367 101q-162 96 -256 256q-98 167 -98 357t98 357t267 263q167 95 358 95q267 0 477 -183q77 38 77 97q0 42 -23 74
q-24 31 -106 97zM778 1141q-192 0 -324 -148q-118 -130 -118 -318q0 -97 41 -187t115 -153q127 -111 289 -111q113 0 217 60q108 61 167 166q61 106 61 232q0 207 -151 345q-125 114 -297 114zM894 1788l218 -49q-7 -109 -42 -166q-24 -40 -71 -64.5t-101 -24.5
q-84 0 -162 42q-32 17 -52 18q-8 0 -12 -6q-2 -6 -15 -68l-213 48q26 255 219 255q68 0 162 -47q32 -17 48 -17q10 0 13 10q3 23 8 69z" />
    <glyph glyph-name="uni1EE1" unicode="&#x1ee1;" horiz-adv-x="1166" 
d="M893 785q33 27 33 69t-24 74q-24 31 -106 97l202 100q52 -37 74 -59q87 -86 87 -213q0 -160 -155 -270q17 -66 17 -128q0 -221 -159 -363q-137 -124 -329 -124q-222 0 -366 161q-122 137 -122 325q0 218 158 361q139 125 332 125q212 0 358 -155zM531 703q-62 0 -115 -32
q-107 -65 -107 -214q0 -130 76 -197q62 -55 148 -55q100 0 164 70q60 66 60 181q0 126 -76 192q-61 55 -150 55zM647 1369l219 -49q-8 -110 -42 -165q-24 -41 -71 -65.5t-101 -24.5q-84 0 -162 42q-31 16 -52 18q-8 0 -12 -6q-2 -6 -15 -68l-214 48q25 255 220 255
q70 0 161 -48q31 -16 49 -16q9 0 12 10q3 23 8 69z" />
    <glyph glyph-name="uni1EE2" unicode="&#x1ee2;" horiz-adv-x="1589" 
d="M1208 1482l201 101q54 -39 75 -60q86 -86 86 -213q0 -161 -163 -276q95 -170 95 -354q0 -185 -95 -349q-94 -164 -260 -262q-172 -101 -366 -101t-367 101q-162 96 -256 256q-98 167 -98 357t98 357t267 263q167 95 358 95q267 0 477 -183q77 38 77 97q0 42 -23 74
q-24 31 -106 97zM778 1141q-192 0 -324 -148q-118 -130 -118 -318q0 -97 41 -187t115 -153q127 -111 289 -111q113 0 217 60q108 61 167 166q61 106 61 232q0 207 -151 345q-125 114 -297 114zM781 -76q71 0 119 -53q40 -43 40 -103q0 -65 -46 -111q-46 -45 -115 -45
q-66 0 -112 46t-46 113q0 62 47 107q46 46 113 46z" />
    <glyph glyph-name="uni1EE3" unicode="&#x1ee3;" horiz-adv-x="1166" 
d="M893 785q33 27 33 69t-24 74q-24 31 -106 97l202 100q52 -37 74 -59q87 -86 87 -213q0 -160 -155 -270q17 -66 17 -128q0 -221 -159 -363q-137 -124 -329 -124q-222 0 -366 161q-122 137 -122 325q0 218 158 361q139 125 332 125q212 0 358 -155zM531 703q-62 0 -115 -32
q-107 -65 -107 -214q0 -130 76 -197q62 -55 148 -55q100 0 164 70q60 66 60 181q0 126 -76 192q-61 55 -150 55zM533 -76q71 0 119 -53q40 -43 40 -103q0 -68 -51 -115q-47 -41 -108 -41q-67 0 -113 46q-47 47 -47 112q0 63 47 108q46 46 113 46z" />
    <glyph glyph-name="uni1EE4" unicode="&#x1ee4;" horiz-adv-x="1315" 
d="M137 1365h273v-837q0 -145 29 -195q29 -49 89 -78q61 -31 129 -31t129 31q62 32 89 78q29 52 29 195v837h273v-874q0 -172 -61 -275q-62 -108 -176 -173q-130 -75 -283 -75q-213 0 -364 133q-84 75 -119 164q-37 89 -37 226v874zM658 -76q67 0 113 -46q46 -45 46 -110
q0 -66 -46 -111q-47 -45 -115 -45q-66 0 -112 46t-46 113q0 62 47 107q46 46 113 46z" />
    <glyph glyph-name="uni1EE5" unicode="&#x1ee5;" horiz-adv-x="1044" 
d="M680 0v42q-95 -74 -206 -74q-140 0 -245 93q-66 59 -96 143.5t-30 213.5v490h262v-475q0 -118 26 -168q31 -60 122 -60q45 0 83.5 18.5t55.5 48.5q28 49 28 179v457h262v-908h-262zM523 -76q71 0 119 -53q40 -43 40 -103q0 -68 -51 -115q-47 -41 -108 -41q-67 0 -113 46
q-47 47 -47 112q0 63 47 108q46 46 113 46z" />
    <glyph glyph-name="uni1EE6" unicode="&#x1ee6;" horiz-adv-x="1315" 
d="M137 1365h273v-837q0 -145 29 -195q29 -49 89 -78q61 -31 129 -31t129 31q62 32 89 78q29 52 29 195v837h273v-874q0 -172 -61 -275q-62 -108 -176 -173q-130 -75 -283 -75q-213 0 -364 133q-84 75 -119 164q-37 89 -37 226v874zM793 1456v-14h-235q2 74 9 99q6 25 29 54
q27 33 27 43q0 12 -21 12q-20 0 -55 -12q-15 -7 -34 -12l-78 191q81 30 119 39q38 8 80 8q131 0 194 -70q44 -50 44 -114q0 -61 -40 -122l-33 -48q-6 -10 -6 -48v-6z" />
    <glyph glyph-name="uni1EE7" unicode="&#x1ee7;" horiz-adv-x="1044" 
d="M680 0v42q-95 -74 -206 -74q-140 0 -245 93q-66 59 -96 143.5t-30 213.5v490h262v-475q0 -118 26 -168q31 -60 122 -60q45 0 83.5 18.5t55.5 48.5q28 49 28 179v457h262v-908h-262zM659 1019h-236q3 73 9 99q6 24 29 55q27 33 27 42q0 12 -21 12q-14 0 -88 -24l-79 191
q84 30 120 39q37 8 79 8q131 0 194 -69q44 -50 44 -115q0 -61 -40 -122l-32 -48q-7 -10 -7 -43q0 -14 1 -25z" />
    <glyph glyph-name="uni1EE8" unicode="&#x1ee8;" horiz-adv-x="1442" 
d="M1177 1365v-137q51 34 51 83q0 43 -24 74q-29 35 -106 97l202 100q52 -36 75 -59q86 -86 86 -214q0 -224 -284 -334v-484q0 -172 -61 -275q-62 -108 -176 -173q-130 -75 -283 -75q-213 0 -364 133q-84 75 -119 164q-37 89 -37 226v874h273v-837q0 -145 29 -195
q29 -49 89 -78q61 -31 129 -31t129 31q62 32 89 78q29 52 29 195v837h273zM754 1866l245 -126l-334 -323l-177 97z" />
    <glyph glyph-name="uni1EE9" unicode="&#x1ee9;" horiz-adv-x="1240" 
d="M942 908v-141q57 35 57 87q0 41 -24 74q-28 34 -105 97l201 100q52 -36 75 -59q86 -86 86 -214q0 -113 -68.5 -193t-221.5 -144v-515h-262v42q-95 -74 -206 -74q-140 0 -245 93q-66 59 -96 143.5t-30 213.5v490h262v-475q0 -118 26 -168q31 -60 122 -60q45 0 83.5 18.5
t55.5 48.5q28 49 28 179v457h262zM610 1447l245 -126l-334 -323l-176 97z" />
    <glyph glyph-name="uni1EEA" unicode="&#x1eea;" horiz-adv-x="1442" 
d="M1177 1365v-137q51 34 51 83q0 43 -24 74q-29 35 -106 97l202 100q52 -36 75 -59q86 -86 86 -214q0 -224 -284 -334v-484q0 -172 -61 -275q-62 -108 -176 -173q-130 -75 -283 -75q-213 0 -364 133q-84 75 -119 164q-37 89 -37 226v874h273v-837q0 -145 29 -195
q29 -49 89 -78q61 -31 129 -31t129 31q62 32 89 78q29 52 29 195v837h273zM639 1417l-333 323l245 126l265 -352z" />
    <glyph glyph-name="uni1EEB" unicode="&#x1eeb;" horiz-adv-x="1240" 
d="M942 908v-141q57 35 57 87q0 41 -24 74q-28 34 -105 97l201 100q52 -36 75 -59q86 -86 86 -214q0 -113 -68.5 -193t-221.5 -144v-515h-262v42q-95 -74 -206 -74q-140 0 -245 93q-66 59 -96 143.5t-30 213.5v490h262v-475q0 -118 26 -168q31 -60 122 -60q45 0 83.5 18.5
t55.5 48.5q28 49 28 179v457h262zM507 998l-334 323l245 126l265 -352z" />
    <glyph glyph-name="uni1EEC" unicode="&#x1eec;" horiz-adv-x="1442" 
d="M1177 1365v-137q51 34 51 83q0 43 -24 74q-29 35 -106 97l202 100q52 -36 75 -59q86 -86 86 -214q0 -224 -284 -334v-484q0 -172 -61 -275q-62 -108 -176 -173q-130 -75 -283 -75q-213 0 -364 133q-84 75 -119 164q-37 89 -37 226v874h273v-837q0 -145 29 -195
q29 -49 89 -78q61 -31 129 -31t129 31q62 32 89 78q29 52 29 195v837h273zM808 1456v-14h-235q2 75 9 100q5 23 29 53q27 33 27 43q0 12 -21 12t-54 -12q-17 -7 -35 -12l-78 191q81 30 119 39q38 8 80 8q131 0 194 -70q44 -50 44 -114q0 -61 -40 -122l-33 -48q-6 -10 -6 -48
v-6z" />
    <glyph glyph-name="uni1EED" unicode="&#x1eed;" horiz-adv-x="1240" 
d="M942 908v-141q57 35 57 87q0 41 -24 74q-28 34 -105 97l201 100q52 -36 75 -59q86 -86 86 -214q0 -113 -68.5 -193t-221.5 -144v-515h-262v42q-95 -74 -206 -74q-140 0 -245 93q-66 59 -96 143.5t-30 213.5v490h262v-475q0 -118 26 -168q31 -60 122 -60q45 0 83.5 18.5
t55.5 48.5q28 49 28 179v457h262zM666 1033l1 -14h-236q1 73 9 99q6 26 29 55q27 31 27 42q0 12 -21 12t-54 -12q-19 -8 -34 -12l-79 191q84 30 120 39q37 8 79 8q131 0 194 -69q44 -50 44 -115q0 -61 -40 -122l-32 -48q-7 -10 -7 -48v-6z" />
    <glyph glyph-name="uni1EEE" unicode="&#x1eee;" horiz-adv-x="1442" 
d="M1177 1365v-137q51 34 51 83q0 43 -24 74q-29 35 -106 97l202 100q52 -36 75 -59q86 -86 86 -214q0 -224 -284 -334v-484q0 -172 -61 -275q-62 -108 -176 -173q-130 -75 -283 -75q-213 0 -364 133q-84 75 -119 164q-37 89 -37 226v874h273v-837q0 -145 29 -195
q29 -49 89 -78q61 -31 129 -31t129 31q62 32 89 78q29 52 29 195v837h273zM773 1788l218 -49q-7 -108 -41 -166q-25 -40 -72 -64.5t-101 -24.5q-85 0 -161 42q-35 18 -53 18q-7 0 -12 -6q-1 -3 -15 -68l-213 48q25 255 220 255q67 0 161 -47q32 -17 48 -17q10 0 13 10
q3 23 8 69z" />
    <glyph glyph-name="uni1EEF" unicode="&#x1eef;" horiz-adv-x="1240" 
d="M942 908v-141q57 35 57 87q0 41 -24 74q-28 34 -105 97l201 100q52 -36 75 -59q86 -86 86 -214q0 -113 -68.5 -193t-221.5 -144v-515h-262v42q-95 -74 -206 -74q-140 0 -245 93q-66 59 -96 143.5t-30 213.5v490h262v-475q0 -118 26 -168q31 -60 122 -60q45 0 83.5 18.5
t55.5 48.5q28 49 28 179v457h262zM632 1369l219 -49q-7 -110 -42 -165q-24 -41 -71 -65.5t-101 -24.5q-84 0 -162 42q-31 16 -52 18q-7 0 -12 -6q-3 -4 -15 -68l-213 48q25 255 219 255q70 0 162 -48q31 -16 48 -16q10 0 13 10q4 26 7 69z" />
    <glyph glyph-name="uni1EF0" unicode="&#x1ef0;" horiz-adv-x="1442" 
d="M1177 1365v-137q51 34 51 83q0 43 -24 74q-29 35 -106 97l202 100q52 -36 75 -59q86 -86 86 -214q0 -224 -284 -334v-484q0 -172 -61 -275q-62 -108 -176 -173q-130 -75 -283 -75q-213 0 -364 133q-84 75 -119 164q-37 89 -37 226v874h273v-837q0 -145 29 -195
q29 -49 89 -78q61 -31 129 -31t129 31q62 32 89 78q29 52 29 195v837h273zM657 -76q71 0 119 -53q40 -43 40 -103q0 -69 -52 -115q-46 -41 -107 -41q-67 0 -113 46q-47 47 -47 112q0 67 52 113q46 41 108 41z" />
    <glyph glyph-name="uni1EF1" unicode="&#x1ef1;" horiz-adv-x="1240" 
d="M942 908v-141q57 35 57 87q0 41 -24 74q-28 34 -105 97l201 100q52 -36 75 -59q86 -86 86 -214q0 -113 -68.5 -193t-221.5 -144v-515h-262v42q-95 -74 -206 -74q-140 0 -245 93q-66 59 -96 143.5t-30 213.5v490h262v-475q0 -118 26 -168q31 -60 122 -60q45 0 83.5 18.5
t55.5 48.5q28 49 28 179v457h262zM523 -76q71 0 119 -53q40 -43 40 -103q0 -65 -46 -111q-46 -45 -115 -45q-66 0 -112 46t-46 113q0 66 52 112q46 41 108 41z" />
    <glyph glyph-name="Ygrave" unicode="&#x1ef2;" horiz-adv-x="1131" 
d="M430 0v564l-456 801h305l288 -521l287 521h304l-455 -801v-564h-273zM565 1417l-333 323l244 126l266 -352z" />
    <glyph glyph-name="ygrave" unicode="&#x1ef3;" horiz-adv-x="971" 
d="M102 -478l232 524l-359 862h281l220 -542l241 542h280l-619 -1386h-276zM492 998l-333 323l244 126l266 -352z" />
    <glyph glyph-name="uni1EF4" unicode="&#x1ef4;" horiz-adv-x="1131" 
d="M430 0v564l-456 801h305l288 -521l287 521h304l-455 -801v-564h-273zM565 -76q68 0 114 -46q46 -45 46 -110q0 -64 -47 -111q-46 -45 -114 -45q-66 0 -112 46t-46 113q0 62 47 107q46 46 112 46z" />
    <glyph glyph-name="uni1EF5" unicode="&#x1ef5;" horiz-adv-x="971" 
d="M102 -478l232 524l-359 862h281l220 -542l241 542h280l-619 -1386h-276zM732 -76q71 0 119 -53q40 -43 40 -103q0 -65 -46 -111q-47 -45 -115 -45q-66 0 -112 46t-46 113q0 66 52 112q46 41 108 41z" />
    <glyph glyph-name="uni1EF6" unicode="&#x1ef6;" horiz-adv-x="1131" 
d="M430 0v564l-456 801h305l288 -521l287 521h304l-455 -801v-564h-273zM705 1456l1 -14h-236q2 74 9 99q6 25 30 54q27 33 27 43q0 12 -22 12q-20 0 -54 -12q-15 -7 -34 -12l-79 191q83 30 120 39q38 8 79 8q131 0 194 -70q45 -50 45 -114q0 -60 -41 -122l-32 -48
q-7 -10 -7 -48v-6z" />
    <glyph glyph-name="uni1EF7" unicode="&#x1ef7;" horiz-adv-x="971" 
d="M102 -478l232 524l-359 862h281l220 -542l241 542h280l-619 -1386h-276zM626 1019h-236q3 73 9 99q6 24 29 55q27 33 27 42q0 12 -21 12q-20 0 -54 -12q-19 -8 -34 -12l-79 191q85 30 120 39q37 8 79 8q131 0 194 -69q44 -50 44 -115q0 -63 -40 -122l-32 -48
q-7 -10 -7 -43q0 -15 1 -25z" />
    <glyph glyph-name="uni1EF8" unicode="&#x1ef8;" horiz-adv-x="1131" 
d="M430 0v564l-456 801h305l288 -521l287 521h304l-455 -801v-564h-273zM681 1788l219 -49q-7 -109 -42 -166q-24 -40 -71 -64.5t-101 -24.5q-84 0 -162 42q-31 16 -52 18q-8 0 -12 -6q-2 -6 -15 -68l-214 48q25 255 220 255q67 0 161 -47q34 -17 49 -17q9 0 12 10
q3 23 8 69z" />
    <glyph glyph-name="uni1EF9" unicode="&#x1ef9;" horiz-adv-x="971" 
d="M102 -478l232 524l-359 862h281l220 -542l241 542h280l-619 -1386h-276zM601 1369l219 -49q-8 -110 -42 -165q-24 -41 -71 -65.5t-101 -24.5q-84 0 -162 42q-31 16 -52 18q-8 0 -12 -6q-2 -6 -15 -68l-214 48q25 255 220 255q69 0 161 -48q31 -16 49 -16q9 0 12 10
q3 23 8 69z" />
    <glyph glyph-name="uni2002" unicode="&#x2002;" horiz-adv-x="983" 
 />
    <glyph glyph-name="uni2003" unicode="&#x2003;" horiz-adv-x="2007" 
 />
    <glyph glyph-name="uni2004" unicode="&#x2004;" horiz-adv-x="642" 
 />
    <glyph glyph-name="uni2005" unicode="&#x2005;" horiz-adv-x="471" 
 />
    <glyph glyph-name="uni2006" unicode="&#x2006;" horiz-adv-x="96" 
 />
    <glyph glyph-name="uni2007" unicode="&#x2007;" horiz-adv-x="1098" 
 />
    <glyph glyph-name="uni2009" unicode="&#x2009;" horiz-adv-x="215" 
 />
    <glyph glyph-name="uni200A" unicode="&#x200a;" horiz-adv-x="27" 
 />
    <glyph glyph-name="uni2011" unicode="&#x2011;" horiz-adv-x="579" 
d="M49 352v240h481v-240h-481z" />
    <glyph glyph-name="figuredash" unicode="&#x2012;" horiz-adv-x="1216" 
d="M213 352v240h791v-240h-791z" />
    <glyph glyph-name="endash" unicode="&#x2013;" horiz-adv-x="1216" 
d="M213 352v240h791v-240h-791z" />
    <glyph glyph-name="emdash" unicode="&#x2014;" horiz-adv-x="1321" 
d="M49 352v240h1223v-240h-1223z" />
    <glyph glyph-name="afii00208" unicode="&#x2015;" horiz-adv-x="1321" 
d="M49 352v240h1223v-240h-1223z" />
    <glyph glyph-name="underscoredbl" unicode="&#x2017;" horiz-adv-x="1080" 
d="M-26 -288v215h1133v-215h-1133zM-26 -585v215h1133v-215h-1133z" />
    <glyph glyph-name="quoteleft" unicode="&#x2018;" horiz-adv-x="626" 
d="M536 1426l-206 -573l-240 88l251 563z" />
    <glyph glyph-name="quoteright" unicode="&#x2019;" horiz-adv-x="557" 
d="M43 931l206 573l240 -87l-250 -564z" />
    <glyph glyph-name="quotesinglbase" unicode="&#x201a;" horiz-adv-x="557" 
d="M43 -303l206 573l240 -88l-250 -563z" />
    <glyph glyph-name="quotereversed" unicode="&#x201b;" horiz-adv-x="558" 
d="M69 1417l240 87l207 -573l-196 -78z" />
    <glyph glyph-name="quotedblleft" unicode="&#x201c;" horiz-adv-x="947" 
d="M858 1426l-206 -573l-241 88l251 563zM341 1504l195 -78l-206 -573l-240 88z" />
    <glyph glyph-name="quotedblright" unicode="&#x201d;" horiz-adv-x="947" 
d="M90 931l206 573l240 -87l-251 -564zM607 853l-196 78l206 573l241 -87z" />
    <glyph glyph-name="quotedblbase" unicode="&#x201e;" horiz-adv-x="947" 
d="M90 -303l206 573l240 -88l-251 -563zM411 -303l206 573l241 -88l-251 -563z" />
    <glyph glyph-name="dagger" unicode="&#x2020;" horiz-adv-x="1143" 
d="M440 929v432h265v-432h284v-251h-284v-1055h-265v1055h-285v251h285z" />
    <glyph glyph-name="daggerdbl" unicode="&#x2021;" horiz-adv-x="1143" 
d="M440 -377v433h-285v251h285v371h-285v251h285v432h265v-432h284v-251h-284v-371h284v-251h-284v-433h-265z" />
    <glyph glyph-name="bullet" unicode="&#x2022;" horiz-adv-x="1039" 
d="M524 1024q147 0 249 -113q88 -97 88 -228q0 -153 -113 -254q-97 -88 -229 -88q-152 0 -253 113q-88 97 -88 228q0 126 80 220q104 122 266 122z" />
    <glyph glyph-name="ellipsis" unicode="&#x2026;" horiz-adv-x="1592" 
d="M286 283q72 0 120 -53q40 -43 40 -103q0 -69 -52 -115q-46 -41 -107 -41q-67 0 -113 46q-47 47 -47 112q0 62 47 109q46 45 112 45zM1305 283q72 0 120 -53q40 -43 40 -103q0 -69 -52 -115q-46 -41 -107 -41q-67 0 -113 46q-47 47 -47 112q0 67 52 113q46 41 107 41z
M795 283q72 0 120 -53q40 -43 40 -103q0 -69 -52 -115q-46 -41 -107 -41q-67 0 -113 46q-47 47 -47 112q0 62 47 109q47 45 112 45z" />
    <glyph glyph-name="perthousand" unicode="&#x2030;" horiz-adv-x="2595" 
d="M455 52l778 1345l148 -85l-779 -1345zM409 1384q340 0 340 -424q0 -423 -335 -423q-338 0 -338 429q0 173 62 277q83 141 271 141zM412 1215q-146 0 -146 -246q0 -147 47 -217q31 -46 100 -46q59 0 94 38q22 23 37 87q15 61 15 127q0 257 -147 257zM1420 828
q340 0 340 -424q0 -423 -339 -423q-334 0 -334 429q0 173 62 277q83 141 271 141zM1423 659q-146 0 -146 -246q0 -146 47 -217q31 -46 100 -46q59 0 94 38q22 23 37 87q15 61 15 127q0 257 -147 257zM2179 828q340 0 340 -424q0 -423 -338 -423q-335 0 -335 429
q0 171 62 277q82 141 271 141zM2182 659q-146 0 -146 -246q0 -147 47 -217q31 -46 100 -46q59 0 94 38q22 23 37 86q15 62 15 128q0 257 -147 257z" />
    <glyph glyph-name="minute" unicode="&#x2032;" horiz-adv-x="439" 
d="M-95 932l205 571l239 -87l-250 -561z" />
    <glyph glyph-name="second" unicode="&#x2033;" horiz-adv-x="760" 
d="M-95 932l205 571l239 -87l-250 -562zM226 932l205 571l239 -87l-251 -562z" />
    <glyph glyph-name="guilsinglleft" unicode="&#x2039;" horiz-adv-x="674" 
d="M596 772l-250 -317l250 -310l-180 -143l-367 452l366 460z" />
    <glyph glyph-name="guilsinglright" unicode="&#x203a;" horiz-adv-x="674" 
d="M77 145l250 310l-249 317l180 142l366 -460l-366 -452z" />
    <glyph glyph-name="uni203E" unicode="&#x203e;" horiz-adv-x="1080" 
d="M-26 1514v241h1133v-241h-1133z" />
    <glyph glyph-name="slash.aalt" unicode="&#x2044;" horiz-adv-x="368" 
d="M-279 52l779 1345l147 -85l-779 -1345z" />
    <glyph glyph-name="zerosuperior" unicode="&#x2070;" 
d="M393 1660q340 0 340 -424q0 -423 -339 -423q-334 0 -334 429q0 173 62 277q82 141 271 141zM396 1491q-58 0 -93 -38q-24 -26 -38.5 -87.5t-14.5 -133.5q0 -250 147 -250q146 0 146 252q0 257 -147 257z" />
    <glyph glyph-name="foursuperior" unicode="&#x2074;" 
d="M438 1671l155 -91l-279 -422h113v154h187v-154h85v-168h-85v-159h-187v159h-346v144z" />
    <glyph glyph-name="fivesuperior" unicode="&#x2075;" 
d="M376 1471l-17 -77q15 1 33 1q134 0 225 -100q73 -77 73 -186q0 -129 -99 -217q-88 -79 -220 -79q-96 0 -167 43.5t-133 140.5l152 100q27 -44 39 -59q41 -56 111 -56q56 0 92.5 35t36.5 88t-36 88t-90 35q-55 0 -92 -40l-11 -11l-145 29l93 434h431v-169h-276z" />
    <glyph glyph-name="sixsuperior" unicode="&#x2076;" 
d="M152 1296l284 376l148 -104l-143 -189q87 -12 149 -56q112 -81 112 -217q0 -126 -98 -215q-87 -78 -210 -78q-143 0 -235 101q-75 82 -75 192q0 99 68 190zM393 1216q-53 0 -87.5 -32.5t-34.5 -82.5q0 -51 35 -85t87 -34t87 35t35 87q0 48 -34.5 80t-87.5 32z" />
    <glyph glyph-name="sevensuperior" unicode="&#x2077;" 
d="M308 800l-165 82l335 589h-353v169h585v-125z" />
    <glyph glyph-name="eightsuperior" unicode="&#x2078;" 
d="M190 1263q-68 68 -68 152q0 101 80 175q77 69 193 69q135 0 212 -87q62 -71 62 -156t-68 -153q52 -47 72.5 -88.5t20.5 -97.5q0 -114 -85 -189t-213 -75q-147 0 -233 95q-66 70 -66 169q0 56 21 97t72 89zM394 1176q-50 0 -80.5 -27t-30.5 -71t31 -71.5t81 -27.5
q51 0 82 27.5t31 71.5q0 45 -31 71.5t-83 26.5zM394 1498q-41 0 -67 -24t-26 -61q0 -36 26.5 -59t67.5 -23q42 0 68.5 23t26.5 59q0 38 -26.5 61.5t-69.5 23.5z" />
    <glyph glyph-name="ninesuperior" unicode="&#x2079;" 
d="M640 1176l-284 -376l-148 104l143 189q-87 12 -149 56q-112 81 -112 217q0 126 98 215q87 78 210 78q143 0 235 -101q75 -83 75 -191q0 -100 -68 -191zM399 1490q-52 0 -87 -35t-35 -87q0 -48 34.5 -80t86.5 -32q53 0 88 32.5t35 82.5q0 51 -35 85t-87 34z" />
    <glyph glyph-name="zeroinferior" unicode="&#x2080;" 
d="M393 562q340 0 340 -423t-339 -423q-334 0 -334 428q0 173 62 277q82 141 271 141zM396 393q-58 0 -93 -38q-24 -26 -38.5 -87t-14.5 -134q0 -72 18 -134q17 -62 43 -85q35 -30 86 -30q146 0 146 251q0 257 -147 257z" />
    <glyph glyph-name="oneinferior" unicode="&#x2081;" 
d="M523 543v-808h-188v586l-87 -47l-91 148l223 121h143z" />
    <glyph glyph-name="twoinferior" unicode="&#x2082;" 
d="M689 -265h-572v139l293 310q75 78 75 138q0 72 -87 72q-50 0 -73 -23q-22 -24 -45 -101l-175 46q18 89 63 148q76 99 229 99q140 0 215 -83q60 -66 60 -161q0 -118 -92 -216l-188 -198h297v-170z" />
    <glyph glyph-name="threeinferior" unicode="&#x2083;" 
d="M303 74v164h81q97 0 97 77q0 35 -24 56.5t-64 21.5q-41 0 -64 -16q-24 -17 -63 -72l-156 82q35 57 64 89q80 86 216 86q138 0 216 -87q61 -67 61 -156q0 -87 -65 -154q83 -81 83 -181q0 -118 -86 -193q-85 -75 -213 -75q-84 0 -152 36.5t-105 100.5q-19 33 -40 117
l181 45q21 -79 45 -104q22 -25 73 -25q49 0 79 27t30 71q0 90 -113 90h-81z" />
    <glyph glyph-name="fourinferior" unicode="&#x2084;" 
d="M438 575l155 -92l-279 -421h113v153h187v-153h85v-168h-85v-159h-187v159h-346v144z" />
    <glyph glyph-name="fiveinferior" unicode="&#x2085;" 
d="M376 374l-17 -77q15 1 33 1q134 0 225 -100q73 -79 73 -187q0 -129 -99 -216q-89 -80 -220 -80q-96 0 -167.5 44t-132.5 141l152 100q25 -42 39 -60q41 -56 111 -56q56 0 92.5 35t36.5 88t-36 88.5t-90 35.5q-55 0 -92 -40l-11 -11l-145 29l93 434h431v-169h-276z" />
    <glyph glyph-name="sixinferior" unicode="&#x2086;" 
d="M152 199l284 376l148 -104l-143 -189q87 -12 149 -56q112 -81 112 -217q0 -126 -98 -215q-87 -78 -210 -78q-143 0 -235 101q-75 83 -75 191q0 99 68 191zM393 119q-53 0 -87.5 -32.5t-34.5 -82.5q0 -51 35 -85t87 -34t87 35t35 87q0 48 -34.5 80t-87.5 32z" />
    <glyph glyph-name="seveninferior" unicode="&#x2087;" 
d="M308 -297l-165 82l335 589h-353v169h585v-125z" />
    <glyph glyph-name="eightinferior" unicode="&#x2088;" 
d="M190 166q-68 68 -68 153q0 100 80 174q76 69 193 69q135 0 212 -87q62 -71 62 -156t-68 -153q51 -48 72 -89t21 -97q0 -114 -85 -189t-213 -75q-147 0 -233 95q-66 70 -66 169q0 56 21 98t72 88zM394 78q-50 0 -80.5 -27t-30.5 -71t31 -71t81 -27q51 0 82 27t31 72
q0 44 -31 70.5t-83 26.5zM394 401q-41 0 -67 -24t-26 -61q0 -36 26.5 -59t67.5 -23q42 0 68.5 23t26.5 59q0 38 -26.5 61.5t-69.5 23.5z" />
    <glyph glyph-name="nineinferior" unicode="&#x2089;" 
d="M640 80l-284 -376l-148 103l143 190q-87 10 -149 56q-112 79 -112 216q0 128 98 215q87 78 210 78q143 0 235 -101q75 -83 75 -191q0 -101 -68 -190zM399 393q-52 0 -87 -35t-35 -87q0 -48 34.5 -79.5t86.5 -31.5q53 0 88 32.5t35 81.5q0 51 -35 85t-87 34z" />
    <glyph glyph-name="franc" unicode="&#x20a3;" horiz-adv-x="1553" 
d="M219 1365h738v-252h-465v-295h351v-253h-351v-565h-273v1365zM1173 818v-49q76 55 165 55q41 0 91 -7v-233q-65 5 -89 5q-95 0 -131 -51q-36 -52 -36 -190v-348h-262v818h262z" />
    <glyph glyph-name="lira" unicode="&#x20a4;" horiz-adv-x="1165" 
d="M520 709l12 -57h372v-204h-340q1 -10 1 -28q0 -88 -47 -171h571v-249h-962v221l36 28q88 84 99 101q27 42 27 98h-162v204h129l-12 57h-117v204h87q0 15 -1 38q-5 212 138 335q127 111 308 111q203 0 336 -154q42 -50 79 -115l-219 -137q-45 71 -77 102q-55 53 -128 53
q-166 0 -166 -216q0 -12 1 -17h419v-204h-384z" />
    <glyph glyph-name="peseta" unicode="&#x20a7;" horiz-adv-x="1240" 
d="M524 0h-273v834h-107v192h107v339h325q410 7 492 -339h116v-192h-117q-36 -164 -160 -255q-113 -83 -331 -83h-52v-496zM792 834h-269v-94h70q86 0 130.5 21t68.5 73zM523 1119v-93h270q-25 52 -69 73q-45 20 -131 20h-70z" />
    <glyph glyph-name="uni20AB" unicode="&#x20ab;" horiz-adv-x="1132" 
d="M749 857v160h-229v230h229v118h262v-118h114v-230h-114v-1017h-262v51q-113 -83 -237 -83q-121 0 -228 62q-110 65 -173 174q-66 114 -66 251q0 221 159 365q134 120 308 120q122 0 237 -83zM528 703q-95 0 -159 -70q-60 -65 -60 -181q0 -125 77 -193q62 -54 146 -54
q96 0 158 68q61 67 61 184q0 126 -76 193q-59 53 -147 53zM60 -325v241h1056v-241h-1056z" />
    <glyph glyph-name="Euro" unicode="&#x20ac;" horiz-adv-x="1648" 
d="M1326 709h-756q-1 -10 -1 -29q0 -18 1 -28h732l-86 -204h-585q139 -225 389 -225q112 0 218 58q105 57 231 186v-340q-13 -9 -49 -37q-73 -55 -181 -88q-106 -34 -216 -34q-238 0 -423 130q-186 129 -267 350h-223l86 204h98v3v21v6v27h-184l86 204h136q62 159 162 264
q96 102 234 161q141 59 296 59q144 0 255 -45q113 -46 251 -160l-104 -247q-67 61 -112 93q-146 104 -298 104q-246 0 -387 -229h783z" />
    <glyph glyph-name="uni20B4" unicode="&#x20b4;" horiz-adv-x="1278" 
d="M423 989l-224 140q61 101 121 156q124 115 307 115q135 0 248 -64q94 -52 147 -145q51 -89 51 -195q0 -45 -10 -85h64v-186h-183q-32 -23 -92 -57h275v-186h-627q-39 -38 -39 -72q0 -77 58 -131q57 -54 138 -54q105 0 159 89q21 32 50 146l267 -70q-38 -163 -109 -255
q-59 -76 -154 -119q-96 -46 -210 -46q-222 0 -361 154q-113 125 -113 282q0 32 6 76h-48v186h147q43 40 70 57h-217v186h614q44 36 44 83q0 66 -48 109q-47 43 -120 43q-66 0 -107 -31q-42 -30 -104 -126z" />
    <glyph glyph-name="uni2101" unicode="&#x2101;" horiz-adv-x="1922" 
d="M765 552l-70 184h-307l-70 -184h-201l319 817h212l238 -609zM452 908h179l-90 243zM1185 241l188 47q3 -15 10 -39q15 -54 40.5 -77.5t68.5 -23.5q45 0 76 28t31 69q0 19 -11 33q-20 24 -94 51l-73 27q-197 72 -197 230q0 106 81 177q83 72 203 72q170 0 266 -152l14 -23
l-158 -95q-39 59 -64 79q-25 17 -64 17q-36 0 -61.5 -22t-25.5 -54q0 -40 82 -70l77 -27q218 -80 218 -242q0 -118 -90 -197q-85 -76 -213 -76q-88 0 -159 41t-108 113q-18 35 -37 114zM582 52l779 1345l147 -85l-778 -1345z" />
    <glyph glyph-name="afii61248" unicode="&#x2105;" horiz-adv-x="2149" 
d="M602 52l779 1345l147 -85l-778 -1345zM1583 831q203 0 339 -148q110 -122 110 -279q0 -186 -144 -312q-130 -115 -308 -115q-118 0 -224 60q-108 62 -166 162q-55 97 -55 211q0 176 143 305q130 116 305 116zM1581 658q-113 0 -189 -85q-65 -73 -65 -174q0 -107 83 -181
q77 -68 174 -68q114 0 193 87q63 70 63 166q0 113 -84 189q-72 66 -175 66zM917 1224l-135 -123q-63 66 -107 90q-46 24 -110 24q-117 0 -191 -84q-65 -73 -65 -170q0 -114 82 -187q74 -67 176 -67q104 0 193 89l26 26l135 -123q-1 -2 -10 -10.5t-17 -15.5
q-140 -139 -326 -139q-206 0 -340 147q-111 121 -111 280q0 184 142 311q130 116 310 116q150 0 278 -101q32 -25 70 -63z" />
    <glyph glyph-name="uni2117" unicode="&#x2117;" horiz-adv-x="1710" 
d="M607 222v921h244q127 0 201 -41q64 -36 101 -102q41 -71 41 -156q0 -120 -75 -204q-46 -52 -109 -74t-163 -22h-29v-322h-211zM818 947v-208h44q77 0 101 29q24 28 24 76q0 55 -29 79t-96 24h-44zM867 1462q200 0 377 -105q183 -107 286 -285q104 -179 104 -389
q0 -208 -104 -390q-105 -180 -286 -285q-181 -104 -389 -104t-389 104q-183 106 -286 285q-104 182 -104 396q0 337 258 572q220 201 533 201zM845 1285q-155 0 -291 -81q-140 -83 -220 -220q-81 -140 -81 -301t81 -301q80 -140 220 -220q140 -81 301 -81t301 81
q141 81 220 220q81 140 81 306q0 260 -200 442q-170 155 -412 155z" />
    <glyph glyph-name="trademark" unicode="&#x2122;" horiz-adv-x="1369" 
d="M110 1378h441v-118h-155v-521h-130v521h-156v118zM741 739h-130v639h121l203 -354l203 354h121v-639h-130v387l-147 -257h-94l-147 256v-386z" />
    <glyph glyph-name="Omega" unicode="&#x2126;" horiz-adv-x="1625" 
d="M888 0v334q134 38 201 87q165 121 165 314q0 177 -136 295q-128 112 -305 112q-203 0 -337 -143q-104 -113 -104 -264q0 -135 88 -241q51 -61 109 -94q59 -34 168 -66v-334h-608v253h201q-110 103 -157 189q-76 140 -76 293q0 165 85 310q89 156 254 251q175 101 377 101
t377 -100q164 -95 254 -251q85 -146 85 -311q0 -178 -97 -329q-42 -65 -137 -153h202v-253h-609z" />
    <glyph glyph-name="estimated" unicode="&#x212e;" horiz-adv-x="1522" 
d="M1405 601h-961v-185q38 -101 86 -146q81 -72 239 -72q214 0 322 151q21 31 59 114h239q-32 -109 -56 -164q-24 -53 -60 -102q-71 -95 -172 -151q-143 -78 -329 -78q-359 0 -534 256q-121 175 -121 449q0 303 146 490q64 79 142 130q160 104 367 104q220 0 387 -117
q192 -136 230 -400q13 -93 16 -279zM444 811h653v153q-41 98 -124.5 150.5t-199.5 52.5q-127 0 -195 -43q-69 -43 -134 -163v-150z" />
    <glyph glyph-name="onethird" unicode="&#x2153;" horiz-adv-x="1707" 
d="M329 53l778 1346l147 -86l-778 -1345zM1192 339v164h81q97 0 97 77q0 36 -24 57.5t-64 21.5q-41 0 -63 -16q-24 -17 -63 -72l-157 82q34 54 65 88q80 87 215 87q138 0 216 -87q61 -67 61 -157q0 -87 -65 -154q83 -80 83 -181q0 -118 -86 -193t-213 -75q-84 0 -152 36.5
t-105 101.5q-18 31 -40 116l181 45q21 -77 45 -103q23 -26 73 -26q49 0 79 27t30 71q0 90 -113 90h-81zM457 1365v-809h-188v587l-87 -47l-91 148l223 121h143z" />
    <glyph glyph-name="twothirds" unicode="&#x2154;" horiz-adv-x="1707" 
d="M400 52l778 1345l147 -85l-778 -1345zM664 556h-572v139l293 310q75 78 75 138q0 71 -87 71q-50 0 -73 -23q-22 -22 -45 -100l-175 46q18 89 63 148q76 99 229 99q140 0 215 -83q60 -66 60 -161q0 -118 -92 -216l-188 -198h297v-170zM1189 339v164h81q97 0 97 78
q0 35 -24 56.5t-64 21.5q-41 0 -63 -16q-24 -17 -63 -72l-157 82q38 60 65 88q78 87 215 87q138 0 216 -87q61 -67 61 -157q0 -87 -64 -154q82 -79 82 -181q0 -118 -86 -193q-85 -75 -213 -75q-84 0 -151.5 36.5t-104.5 101.5q-22 36 -41 116l181 45q21 -78 45 -103
q23 -26 73 -26q49 0 79 27t30 71q0 90 -113 90h-81z" />
    <glyph glyph-name="onefifth" unicode="&#x2155;" horiz-adv-x="1707" 
d="M310 52l778 1345l148 -85l-779 -1345zM1238 640l-17 -77q15 1 33 1q134 0 225 -100q73 -77 73 -187q0 -129 -99 -216q-89 -80 -220 -80q-143 0 -240 105q-33 37 -61 79l153 101q25 -44 39 -60q41 -56 111 -56q56 0 92.5 35t36.5 88t-36 88.5t-90 35.5q-55 0 -92 -40
l-11 -11l-145 29l93 434h431v-169h-276zM459 1365v-809h-188v587l-87 -47l-91 148l223 121h143z" />
    <glyph glyph-name="twofifth" unicode="&#x2156;" horiz-adv-x="1707" 
d="M411 52l778 1345l148 -85l-779 -1345zM667 556h-572v139l293 310q75 78 75 138q0 71 -87 71q-50 0 -73 -23q-22 -22 -45 -100l-175 46q18 89 63 148q77 99 229 99q140 0 215 -83q60 -66 60 -161q0 -118 -92 -216l-188 -198h297v-170zM1235 640l-17 -77q15 1 33 1
q134 0 225 -100q73 -77 73 -187q0 -129 -98 -216q-91 -80 -222 -80q-140 0 -239 106q-28 31 -60 78l152 101q26 -42 39 -60q41 -56 111 -56q56 0 92.5 35t36.5 88t-36 88.5t-90 35.5q-55 0 -92 -40l-11 -11l-145 29l93 434h431v-169h-276z" />
    <glyph glyph-name="threefifth" unicode="&#x2157;" horiz-adv-x="1707" 
d="M368 52l778 1345l148 -85l-779 -1345zM1234 640l-17 -77q15 1 33 1q134 0 225 -100q73 -77 73 -187q0 -129 -99 -217q-88 -79 -220 -79q-143 0 -240 105q-33 37 -61 79l153 101q25 -40 39 -60q41 -56 110 -56q56 0 93 35t37 88t-36 88.5t-90 35.5q-55 0 -92 -40l-11 -11
l-145 29l93 434h431v-169h-276zM293 896v164h81q97 0 97 77q0 35 -24 56.5t-64 21.5q-41 0 -63 -16q-23 -16 -64 -72l-156 82q36 57 64 88q80 87 216 87t216 -87q61 -67 61 -156q0 -87 -65 -154q83 -81 83 -181q0 -118 -86 -193q-85 -75 -213 -75q-84 0 -152 36.5
t-105 100.5q-19 33 -40 117l181 45q21 -78 45 -103q23 -26 73 -26q49 0 79 27t30 71q0 90 -113 90h-81z" />
    <glyph glyph-name="fourfifth" unicode="&#x2158;" horiz-adv-x="1707" 
d="M448 1396l155 -91l-279 -422h113v154h187v-154h85v-168h-85v-159h-187v159h-346v144zM395 52l779 1345l147 -85l-778 -1345zM1232 640l-17 -77q15 1 33 1q134 0 225 -100q73 -77 73 -187q0 -128 -98 -217q-89 -79 -221 -79q-143 0 -240 105q-33 37 -61 79l153 101
q25 -40 39 -60q41 -56 111 -56q56 0 92.5 35t36.5 88t-36 88.5t-90 35.5q-55 0 -92 -40l-11 -11l-145 29l93 434h431v-169h-276z" />
    <glyph glyph-name="onesixth" unicode="&#x2159;" horiz-adv-x="1707" 
d="M339 52l778 1345l148 -85l-779 -1345zM1000 464l284 376l148 -103l-143 -190q86 -12 148 -56q113 -81 113 -217q0 -126 -98 -215q-87 -78 -210 -78q-143 0 -235 101q-75 82 -75 192q0 99 68 190zM1242 384q-53 0 -88 -32.5t-35 -82.5q0 -51 35 -85t87 -34t87 35t35 87
q0 48 -34.5 80t-86.5 32zM461 1365v-809h-188v587l-87 -47l-91 148l223 121h143z" />
    <glyph glyph-name="fivesixth" unicode="&#x215a;" horiz-adv-x="1707" 
d="M418 52l778 1345l148 -85l-779 -1345zM998 464l284 376l148 -103l-143 -190q87 -12 149 -56q112 -81 112 -217q0 -126 -98 -215q-87 -78 -210 -78q-143 0 -235 101q-75 82 -75 192q0 99 68 190zM1239 384q-52 0 -87 -32.5t-35 -82.5q0 -51 35 -85t87 -34t87 35t35 87
q0 48 -34.5 80t-87.5 32zM385 1196l-17 -77q14 1 33 1q134 0 225 -100q73 -79 73 -187q0 -129 -99 -216q-89 -80 -220 -80q-184 0 -300 185l152 100l39 -60q41 -56 111 -56q56 0 92.5 35t36.5 88t-36 88.5t-90 35.5q-56 0 -92 -40l-11 -11l-145 29l93 434h431v-169h-276z
" />
    <glyph glyph-name="oneeighth" unicode="&#x215b;" horiz-adv-x="1707" 
d="M309 52l778 1345l148 -85l-779 -1345zM458 1365v-809h-188v587l-87 -47l-91 148l223 121h143zM1067 431q-68 70 -68 154q0 102 80 174q77 69 194 69q134 0 212 -87q62 -71 62 -157t-69 -153q52 -46 73 -87.5t21 -97.5q0 -115 -85 -190t-214 -75q-147 0 -233 95
q-66 70 -66 170q0 56 21 97.5t72 87.5zM1271 344q-50 0 -80.5 -27t-30.5 -71t31 -71.5t82 -27.5t82 27.5t31 71.5q0 45 -31.5 71.5t-83.5 26.5zM1272 667q-42 0 -68 -24t-26 -62q0 -35 26.5 -58t68.5 -23t68.5 23t26.5 59q0 38 -26.5 61.5t-69.5 23.5z" />
    <glyph glyph-name="threeeighths" unicode="&#x215c;" horiz-adv-x="1707" 
d="M359 52l778 1345l148 -85l-779 -1345zM1045 431q-68 70 -68 153q0 101 80 175q77 69 194 69q134 0 212 -87q62 -71 62 -156q0 -87 -69 -154q52 -46 73 -87.5t21 -97.5q0 -115 -86 -190t-213 -75q-147 0 -233 95q-66 70 -66 170q0 56 21 97.5t72 87.5zM1249 344
q-50 0 -80.5 -27t-30.5 -71t31 -71.5t82 -27.5t82 27.5t31 71.5q0 45 -31.5 71.5t-83.5 26.5zM1250 667q-42 0 -68 -24t-26 -61q0 -36 26.5 -59t67.5 -23q43 0 69.5 23t26.5 59q0 38 -26.5 61.5t-69.5 23.5zM293 896v164h81q97 0 97 77q0 35 -24 56.5t-64 21.5
q-41 0 -63 -16q-23 -16 -64 -72l-156 82q36 57 64 88q80 87 216 87t216 -87q61 -67 61 -156q0 -87 -65 -154q83 -81 83 -181q0 -118 -86 -193q-85 -75 -213 -75q-84 0 -152 36.5t-105 100.5q-19 33 -40 117l181 45q21 -78 45 -103q23 -26 73 -26q49 0 79 27t30 71
q0 90 -113 90h-81z" />
    <glyph glyph-name="fiveeighths" unicode="&#x215d;" horiz-adv-x="1707" 
d="M366 52l779 1345l147 -85l-778 -1345zM382 1196l-17 -77q14 1 33 1q134 0 225 -100q73 -79 73 -187q0 -129 -99 -216q-89 -80 -220 -80q-184 0 -300 185l152 100q25 -40 39 -60q41 -56 111 -56q56 0 92.5 35t36.5 88t-36 88.5t-90 35.5q-56 0 -92 -40l-11 -11l-145 29
l93 434h431v-169h-276zM1047 431q-68 70 -68 153q0 101 80 175q77 69 194 69q135 0 211 -87q62 -71 62 -156q0 -84 -68 -154q52 -46 72.5 -87.5t20.5 -97.5q0 -115 -85 -190q-86 -75 -213 -75q-147 0 -233 95q-66 70 -66 170q0 56 21 97.5t72 87.5zM1251 344
q-50 0 -80.5 -27t-30.5 -71t31 -71.5t81 -27.5q51 0 82 27.5t31 71.5q0 45 -31 71.5t-83 26.5zM1251 667q-41 0 -67 -24t-26 -61q0 -36 26.5 -59t67.5 -23q42 0 68.5 23t26.5 59q0 38 -26.5 61.5t-69.5 23.5z" />
    <glyph glyph-name="seveneighths" unicode="&#x215e;" horiz-adv-x="1707" 
d="M287 52l778 1345l148 -85l-779 -1345zM1040 431q-68 70 -68 154q0 100 80 174q76 69 194 69q134 0 212 -87q62 -71 62 -157t-69 -153q52 -46 73 -87.5t21 -97.5q0 -115 -85 -190q-86 -75 -214 -75q-146 0 -233 95q-66 70 -66 170q0 56 21 97.5t72 87.5zM1246 344
q-51 0 -82 -27t-31 -72q0 -44 31 -71t82 -27t82 27.5t31 71.5t-31 71t-82 27zM1245 667q-42 0 -68 -24t-26 -62q0 -35 27 -58t69 -23q41 0 67.5 23t26.5 59q0 38 -26.5 61.5t-69.5 23.5zM318 525l-165 82l335 589h-353v169h585v-125z" />
    <glyph glyph-name="partialdiff" unicode="&#x2202;" horiz-adv-x="1196" 
d="M214 1129l36 236q182 -23 291 -59q114 -37 212 -107q333 -234 333 -693q0 -278 -163 -419q-139 -119 -324 -119q-224 0 -367 161q-122 137 -122 325q0 212 153 355q140 129 310 129q37 0 73 -11l-16 17q-88 83 -174 122q-89 38 -242 63zM596 703q-62 0 -115 -32
q-107 -65 -107 -214q0 -130 76 -197q62 -55 148 -55q100 0 164 70q60 66 60 181q0 126 -76 192q-61 55 -150 55z" />
    <glyph glyph-name="emptyset" unicode="&#x2205;" horiz-adv-x="1321" 
d="M513 150l-110 -216l-195 100l110 218q-95 89 -133 152q-75 124 -75 274q0 251 181 414q157 141 374 141q62 0 142 -19l108 214l196 -100l-110 -217q97 -86 143 -166q67 -122 67 -261q0 -147 -75 -276q-74 -128 -197 -199q-133 -77 -294 -77q-61 0 -132 18zM898 909
l-278 -550q32 -4 51 -4q134 0 234 109q84 92 84 217q0 127 -91 228zM424 459l277 547q-31 4 -50 4q-136 0 -235 -111q-84 -95 -84 -216q0 -117 92 -224z" />
    <glyph glyph-name="increment" unicode="&#x2206;" horiz-adv-x="1411" 
d="M850 1365l526 -1365h-1341l526 1365h289zM704 1032l-289 -778h579z" />
    <glyph glyph-name="product" unicode="&#x220f;" horiz-adv-x="1353" 
d="M473 1113v-1113h-273v1113h-158v252h1269v-252h-158v-1113h-273v1113h-407z" />
    <glyph glyph-name="summation" unicode="&#x2211;" horiz-adv-x="1374" 
d="M198 207l356 499l-318 453v206h929v-252l-583 1l289 -408l-317 -452h649v-254h-1005v207z" />
    <glyph glyph-name="minus" unicode="&#x2212;" horiz-adv-x="1139" 
d="M105 758h928v-238h-928v238z" />
    <glyph glyph-name="fraction" unicode="&#x2215;" horiz-adv-x="368" 
d="M-279 52l779 1345l147 -85l-779 -1345z" />
    <glyph glyph-name="uni2218" unicode="&#x2218;" horiz-adv-x="1039" 
d="M524 1024q147 0 249 -113q88 -97 88 -228q0 -153 -113 -254q-97 -88 -229 -88q-152 0 -253 113q-88 97 -88 228q0 126 80 220q104 122 266 122zM516 871q-80 0 -137 -62q-48 -54 -48 -126q0 -85 62 -141q54 -48 126 -48q85 0 141 62q48 54 48 128q0 82 -62 139
q-52 48 -130 48z" />
    <glyph glyph-name="radical" unicode="&#x221a;" horiz-adv-x="1289" 
d="M421 0l-215 629h-164v249h366l159 -475l435 1293h655v-253h-453l-492 -1443h-291z" />
    <glyph glyph-name="infinity" unicode="&#x221e;" horiz-adv-x="1483" 
d="M744 498q-75 -83 -132 -118q-92 -58 -205 -58q-170 0 -273 115q-92 103 -92 257q0 172 116 274q107 93 250 93q95 0 171 -40q74 -40 160 -135q61 71 116 108q101 67 223 67q167 0 272 -115q92 -101 92 -257q0 -173 -117 -277q-101 -91 -246 -91q-98 0 -177 41.5
t-158 135.5zM884 692q39 -54 68 -82q53 -48 112 -48q56 0 93 37t37 93q0 59 -41 94q-40 34 -92 34q-88 0 -177 -128zM599 691q-36 52 -67 82q-52 48 -112 48q-56 0 -93 -37t-37 -93q0 -59 41 -94t92 -35q87 0 176 129z" />
    <glyph glyph-name="integral" unicode="&#x222b;" horiz-adv-x="642" 
d="M42 -364v235q53 -18 88 -18q60 0 60 85v1258q0 177 88 255q71 62 179 62q63 0 144 -18v-235q-55 18 -89 18q-60 0 -60 -85v-1258q0 -177 -88 -255q-71 -62 -179 -62q-62 0 -143 18z" />
    <glyph glyph-name="similar" unicode="&#x223c;" horiz-adv-x="1227" 
d="M230 421l-179 117q70 157 143 231q36 37 92.5 59.5t113.5 22.5q100 0 254 -75q122 -60 174 -60q46 0 74 26q26 24 91 132l184 -108q-73 -147 -124 -200q-48 -49 -111 -78t-122 -29q-58 0 -121 21q-60 18 -199 83q-69 32 -113 32q-39 0 -69 -33q-29 -33 -88 -141z" />
    <glyph glyph-name="uni2243" unicode="&#x2243;" horiz-adv-x="1227" 
d="M230 602l-180 116q72 157 143 231q37 37 93 59t114 22q100 0 253 -75q121 -59 174 -59q47 0 75 26q26 26 90 133l184 -108q-74 -150 -123 -201q-49 -49 -112 -78t-122 -29q-58 0 -121 21q-54 17 -199 82q-69 32 -113 32q-39 0 -69 -33q-31 -34 -87 -139zM65 557h1094
v-236h-1094v236z" />
    <glyph glyph-name="approxequal" unicode="&#x2248;" horiz-adv-x="1227" 
d="M231 636l-180 117q72 157 143 230q37 37 93 59t114 22q100 0 253 -75q121 -59 174 -59q47 0 75 26q26 26 90 133l184 -108q-73 -149 -123 -201q-48 -49 -111.5 -78t-122.5 -29q-58 0 -121 21q-54 17 -199 82q-69 32 -113 32q-39 0 -69 -33q-31 -34 -87 -139zM231 223
l-180 117q72 157 143 231q37 37 93 59t114 22q99 0 253 -75q123 -59 175 -59q46 0 74 26q27 26 90 132l184 -108q-73 -147 -124 -200q-48 -49 -111 -78t-122 -29q-58 0 -121 21q-54 17 -199 82q-69 32 -113 32q-39 0 -69 -33q-33 -36 -87 -140z" />
    <glyph glyph-name="notequal" unicode="&#x2260;" horiz-adv-x="1195" 
d="M1145 693h-395l-54 -107h449v-238h-568l-125 -251l-206 84l82 167h-277v238h396l53 107h-449v238h568l125 252l206 -86l-83 -166h278v-238z" />
    <glyph glyph-name="lessequal" unicode="&#x2264;" horiz-adv-x="1195" 
d="M99 237h996l-996 447v203l997 453v-267l-643 -285l643 -285v-503h-997v237z" />
    <glyph glyph-name="greaterequal" unicode="&#x2265;" horiz-adv-x="1195" 
d="M1096 684l-996 -447h996v-237h-997v503l643 285l-643 285v267l997 -453v-203z" />
    <glyph glyph-name="dotmath" unicode="&#x22c5;" horiz-adv-x="529" 
d="M264 839q72 0 120 -53q40 -43 40 -103q0 -69 -52 -115q-46 -41 -107 -41q-67 0 -113 46q-47 47 -47 112q0 62 47 109q47 45 112 45z" />
    <glyph glyph-name="lozenge" unicode="&#x25ca;" horiz-adv-x="1370" 
d="M1258 683l-574 -764l-571 764l571 764zM685 335l261 348l-261 347l-260 -347z" />
    <glyph glyph-name="openbullet" unicode="&#x25e6;" horiz-adv-x="1039" 
d="M524 1024q147 0 249 -113q88 -97 88 -228q0 -153 -113 -254q-97 -88 -229 -88q-152 0 -253 113q-88 97 -88 228q0 126 80 220q104 122 266 122zM516 871q-80 0 -137 -62q-48 -54 -48 -126q0 -85 62 -141q54 -48 126 -48q85 0 141 62q48 54 48 128q0 82 -62 139
q-52 48 -130 48z" />
    <glyph glyph-name="glyph155" horiz-adv-x="459" 
 />
    <glyph glyph-name="glyph172" horiz-adv-x="1191" 
 />
    <glyph glyph-name="glyph210" horiz-adv-x="459" 
 />
    <glyph glyph-name="seven.denominator" 
d="M308 -31l-165 82l335 589h-353v169h585v-125z" />
    <glyph glyph-name="eight.denominator" 
d="M190 431q-68 70 -68 153q0 101 80 175q77 69 193 69q135 0 212 -87q62 -71 62 -156q0 -84 -68 -154q51 -45 72 -87.5t21 -97.5q0 -115 -85 -190t-213 -75q-147 0 -233 95q-66 70 -66 170q0 56 21 97.5t72 87.5zM394 344q-50 0 -80.5 -27t-30.5 -71q0 -45 31 -72t81 -27
q51 0 82 27.5t31 71.5q0 45 -31 71.5t-83 26.5zM394 667q-41 0 -67 -24t-26 -62q0 -35 26.5 -58t68.5 -23t68 23t26 59q0 38 -26.5 61.5t-69.5 23.5z" />
    <glyph glyph-name="nine.denominator" 
d="M640 345l-284 -376l-148 104l143 189q-87 12 -149 56q-112 81 -112 217q0 126 98 215q87 78 210 78q143 0 235 -101q75 -83 75 -192q0 -99 -68 -190zM399 659q-52 0 -87 -35t-35 -87q0 -48 34.5 -80t87.5 -32q52 0 87 33t35 82q0 51 -35 85t-87 34z" />
    <glyph glyph-name="four.fitted" horiz-adv-x="1147" 
d="M71 498l581 913l224 -137l-476 -749h248v268h271v-268h142v-249h-142v-276h-271v276h-577v222z" />
    <glyph glyph-name="three.fitted" horiz-adv-x="1147" 
d="M547 592h-114v242h114q183 0 183 155q0 74 -48 116q-47 41 -124 41q-65 0 -109 -29q-43 -29 -103 -117l-226 123q62 104 124 160q124 114 313 114q132 0 245 -62q91 -49 145 -144q52 -88 52 -196q0 -155 -118 -267q60 -52 91 -104q56 -94 56 -212q0 -200 -141 -324
q-137 -120 -336 -120q-158 0 -278 81q-74 51 -117 124q-44 74 -75 200l262 69q30 -114 67 -162q45 -59 143 -59q99 0 155 62q47 53 47 131q0 178 -208 178z" />
    <glyph glyph-name="zero.denominator" 
d="M393 828q340 0 340 -424q0 -423 -335 -423q-338 0 -338 429q0 173 62 277q82 141 271 141zM396 659q-146 0 -146 -246q0 -147 47 -217q31 -46 100 -46q59 0 94 38q22 23 37 87q15 61 15 127q0 257 -147 257z" />
    <glyph glyph-name="two.fitted" horiz-adv-x="1147" 
d="M1056 0h-912v212l483 532q130 142 130 256q0 67 -45 106t-122 39q-88 0 -132 -42q-44 -43 -78 -168l-253 69q33 147 102 235q53 69 140 110q103 48 222 48q133 0 243 -59q90 -48 141 -140q52 -91 52 -205q0 -196 -147 -358l-347 -382h523v-253z" />
    <glyph glyph-name="one.fitted" horiz-adv-x="1147" 
d="M493 250v786l-158 -89l-130 221l348 197h212v-1115h221v-250h-737v250h244z" />
    <glyph glyph-name="Dieresis" horiz-adv-x="975" 
d="M678 1778q62 0 108 -44q45 -43 45 -106q0 -66 -50 -111q-43 -39 -103 -39q-65 0 -109 44q-45 44 -45 108q0 62 46 105q44 43 108 43zM297 1778q62 0 108 -44q45 -43 45 -106q0 -62 -45 -106q-46 -44 -110 -44q-65 0 -108 45q-44 44 -44 108q0 61 46 104q44 43 108 43z
" />
    <glyph glyph-name="Dotaccent" horiz-adv-x="975" 
d="M487 1784q72 0 120 -53q40 -43 40 -103q0 -65 -46 -110q-46 -46 -115 -46q-66 0 -112 46t-46 112q0 62 47 109q47 45 112 45z" />
    <glyph glyph-name="Ring" horiz-adv-x="975" 
d="M487 1860q107 0 177 -78q59 -65 59 -153q0 -103 -77 -172q-68 -60 -158 -60q-97 0 -167 68q-69 67 -69 167q0 96 77 168q66 60 158 60zM487 1734q-44 0 -74.5 -31t-30.5 -76q0 -42 31 -73t74 -31q44 0 75 31t31 74q0 45 -31 75.5t-75 30.5z" />
    <glyph glyph-name="Acute" horiz-adv-x="975" 
d="M583 1866l245 -126l-333 -323l-177 97z" />
    <glyph glyph-name="Grave" horiz-adv-x="975" 
d="M480 1417l-333 323l245 126l265 -352z" />
    <glyph glyph-name="five.fitted" horiz-adv-x="1147" 
d="M522 1114l-37 -180q35 5 63 5q142 0 260 -70q110 -63 171 -169q63 -110 63 -239q0 -217 -161 -363q-142 -130 -351 -130q-152 0 -261 69q-110 67 -211 224l219 151q37 -61 54 -86q77 -107 203 -107q110 0 177 76q59 67 59 160q0 109 -76 178q-64 58 -156 58
q-97 0 -178 -87l-210 45l147 716h681v-251h-456z" />
    <glyph glyph-name="Caron" horiz-adv-x="975" 
d="M109 1746l199 95l179 -170l179 170l199 -95l-297 -314h-162z" />
    <glyph glyph-name="Breve" horiz-adv-x="975" 
d="M162 1784l227 18q1 -33 3 -52q4 -105 90 -105q58 0 83 55q6 11 20 102l227 -18q-9 -79 -16 -116q-4 -23 -23 -59q-43 -86 -119 -133t-171 -47q-146 0 -241 101q-69 75 -77 172q-2 21 -3 82z" />
    <glyph glyph-name="Tilde" horiz-adv-x="975" 
d="M603 1788l219 -49q-9 -109 -42 -166q-24 -40 -71.5 -64.5t-101.5 -24.5q-83 0 -161 42q-35 18 -53 18q-8 0 -11 -6q-1 -3 -15 -68l-214 48q25 255 220 255q67 0 161 -47q32 -17 48 -17q10 0 13 10q3 23 8 69z" />
    <glyph glyph-name="Hungarumlaut" horiz-adv-x="975" 
d="M443 1864l221 -120l86 120l215 -123l-332 -322l-142 85l171 239l-335 -324l-148 95z" />
    <glyph glyph-name="Cedilla" horiz-adv-x="975" 
d="M496 -39l237 -98l-274 -336l-190 91z" />
    <glyph glyph-name="Ogonek" horiz-adv-x="975" 
d="M661 0h262q-66 -87 -66 -121q0 -16 20 -16q35 0 88 25l79 -190q-130 -48 -196 -48q-124 0 -190 74q-51 57 -51 131q0 64 54 145z" />
    <glyph glyph-name="Macron" horiz-adv-x="975" 
d="M156 1516v225h664v-225h-664z" />
    <glyph glyph-name="Commaaccent" horiz-adv-x="975" 
d="M267 -446l125 406l247 -72l-176 -393z" />
    <glyph glyph-name="Comma.high" horiz-adv-x="975" 
d="M514 1457l125 406l247 -72l-176 -393z" />
    <glyph glyph-name="Dieresis.alt" horiz-adv-x="975" 
d="M315 1778q63 0 109 -44q44 -44 44 -106t-45 -106q-46 -44 -108 -44q-65 0 -109 44q-45 44 -45 108q0 62 46 105q44 43 108 43zM647 1778q62 0 108 -44q45 -43 45 -106q0 -62 -45 -106q-46 -44 -110 -44q-63 0 -107 45q-45 44 -45 107q0 62 46 105q44 43 108 43z" />
    <glyph glyph-name="commaaccent" horiz-adv-x="975" 
d="M267 -446l125 406l247 -72l-176 -393z" />
    <glyph glyph-name="comma.high" horiz-adv-x="975" 
d="M514 1039l125 406l247 -72l-176 -393z" />
    <glyph glyph-name="dieresis.alt" horiz-adv-x="975" 
d="M647 1368q69 0 114 -51q39 -42 39 -99q0 -62 -45 -106q-46 -44 -108 -44q-65 0 -109 44q-45 44 -45 108q0 62 46 105q44 43 108 43zM315 1368q69 0 115 -51q38 -43 38 -99q0 -62 -45 -106q-46 -44 -110 -44q-63 0 -107 45q-45 43 -45 107q0 62 46 105q44 43 108 43z" />
    <glyph glyph-name="commareversed" horiz-adv-x="975" 
d="M886 1385l-125 -406l-247 71l176 394z" />
    <glyph glyph-name="G.salt" horiz-adv-x="1497" 
d="M1338 1145l-194 -183q-73 74 -127 111q-103 69 -230 69q-205 0 -334 -146q-117 -132 -117 -314q0 -208 150 -343q127 -115 296 -115q184 0 327 144v145h-338v251h609v-490q-34 -44 -61 -74q-74 -84 -176 -138q-170 -94 -362 -94q-195 0 -362 97q-164 94 -262 260
q-97 166 -97 358q0 189 97 355q98 170 265 264q167 95 365 95q245 0 440 -153q41 -32 111 -99z" />
    <glyph glyph-name="M.salt" horiz-adv-x="1705" 
d="M385 0h-275l140 1365h242l361 -739l360 739h243l139 -1365h-275l-84 847l-279 -569h-208l-279 568z" />
    <glyph glyph-name="y.salt" horiz-adv-x="971" 
d="M227 -197l107 243l-359 862h281l220 -541l241 541h280l-539 -1205q-95 -213 -251 -213q-63 0 -156 31l41 249q8 -4 14 -6q45 -22 68 -22q26 0 53 61z" />
    <glyph glyph-name="parenleft.salt" horiz-adv-x="675" 
d="M336 1654l235 -111q-47 -120 -77 -224q-83 -288 -83 -636q0 -379 100 -692q24 -76 60 -169l-235 -110q-49 105 -55 122q-61 151 -98 386q-39 239 -39 463q0 351 83 680q20 79 37 127q15 39 72 164z" />
    <glyph glyph-name="parenright.salt" horiz-adv-x="675" 
d="M103 1542l235 111q14 -31 26.5 -58.5t20 -44.5t8.5 -19q61 -148 99 -386q38 -240 38 -462q0 -352 -83 -681q-22 -88 -36 -127q-10 -27 -73 -164l-235 111q47 120 77 224q83 288 83 636q0 379 -100 692q-23 70 -60 168z" />
    <glyph glyph-name="bracketleft.salt" horiz-adv-x="642" 
d="M579 1620v-247h-176v-1381h176v-247h-442v1875h442z" />
    <glyph glyph-name="bracketright.salt" horiz-adv-x="642" 
d="M238 1373h-176v247h442v-1875h-442v247h176v1381z" />
    <glyph glyph-name="afii61248.salt" horiz-adv-x="1529" 
d="M1112 553q133 0 225 -98q75 -83 75 -194q0 -130 -97 -215q-86 -77 -208 -77q-140 0 -230 98q-75 82 -75 197q0 125 97 212q86 77 213 77zM1105 392q-53 0 -86.5 -36.5t-33.5 -94.5q0 -59 33.5 -95t88.5 -36t88.5 36.5t33.5 96.5q0 58 -34 93.5t-90 35.5zM672 1208
l-118 -118q-47 47 -70 59q-26 14 -61 14q-56 0 -89.5 -36t-33.5 -96q0 -59 34 -94.5t90 -35.5q65 0 133 77l118 -118q-115 -120 -251 -120q-142 0 -232 98q-75 82 -75 194q0 130 96 215q88 77 211 77q71 0 127.5 -26.5t120.5 -89.5zM291 52l778 1345l148 -85l-779 -1345z
" />
    <glyph glyph-name="braceleft.salt" horiz-adv-x="642" 
d="M605 -12v-242q-91 -3 -115 -3q-148 0 -224 76q-79 76 -79 251v389q0 68 -17 88q-19 21 -92 37v208l24 6q52 13 69 35q16 19 16 77v383q0 175 79 251q76 76 224 76q18 0 115 -3v-242h-63h-19q-49 0 -59 -9q-11 -11 -11 -56v-411q0 -74 -16 -123.5t-54 -93.5q29 -34 42 -61
q28 -60 28 -162v-406q0 -44 11 -57q10 -10 54 -9q25 1 87 1z" />
    <glyph glyph-name="braceright.salt" horiz-adv-x="642" 
d="M37 -252v242q15 1 39 1q2 0 8 -0.5t17.5 -1t22.5 -0.5q42 -2 53.5 9.5t11.5 55.5v407q0 77 16 128t54 95q-25 27 -41 58q-29 61 -29 158v412q0 45 -10 55t-60 10h-19h-63v242q98 3 115 3q148 0 224 -76q79 -76 79 -251v-384q0 -57 16 -77t69 -34l24 -7v-207
q-75 -18 -91 -37q-18 -19 -18 -88v-389q0 -176 -79 -252q-78 -75 -224 -75q-18 0 -115 3z" />
    <glyph glyph-name="copyright.salt" horiz-adv-x="927" 
d="M706 1288l-88 -83q-37 41 -60.5 55t-56.5 14q-55 0 -92 -39q-38 -40 -38 -95t38 -95q38 -39 92 -39t100 49q5 5 11.5 12t7.5 8l88 -83l-26 -26q-77 -77 -180 -77q-114 0 -191 84q-64 70 -64 167q0 112 84 187q73 64 171 64q107 0 204 -103zM496 1565q186 0 314 -141
q110 -122 110 -293q0 -107 -58 -207t-156 -156q-98 -57 -213 -57q-189 0 -317 141q-110 124 -110 286q0 188 142 318q118 109 288 109zM490 1452q-138 0 -229 -103q-82 -91 -82 -216q0 -135 105 -229q89 -80 209 -80q140 0 233 104q81 88 81 210q0 138 -104 233
q-89 81 -213 81z" />
    <glyph glyph-name="registered.salt" horiz-adv-x="927" 
d="M496 1565q186 0 314 -141q110 -122 110 -293q0 -107 -58 -207t-156 -156q-98 -57 -213 -57q-191 0 -317 141q-110 124 -110 286q0 188 142 318q118 109 288 109zM599 1100l108 -192q100 93 100 231q0 139 -104 232q-89 81 -211 81q-140 0 -231 -103q-82 -91 -82 -211
q0 -140 105 -234q89 -80 208 -80q118 0 209 78h-126l-90 162h-15l-14 -1v-161h-122v476h131q105 0 152 -53q40 -46 40 -106q0 -70 -58 -119zM456 1267v-93h14q37 0 53 10.5t16 34.5q0 26 -16 37t-53 11h-14z" />
    <glyph glyph-name="Circumflex" horiz-adv-x="975" 
d="M487 1589l-179 -170l-199 95l297 314h162l297 -314l-199 -95z" />
    <glyph glyph-name="six.fitted" horiz-adv-x="1147" 
d="M185 773l462 638l213 -156l-248 -342q169 -17 275 -98q178 -133 178 -359q0 -130 -66 -244q-65 -113 -178 -178q-114 -66 -249 -66q-224 0 -371 163q-125 137 -125 324q0 167 109 318zM571 668q-103 0 -169 -73q-55 -59 -55 -148q0 -104 74 -172q62 -56 150 -56
q100 0 165 74q58 65 58 160q0 91 -58 149q-66 66 -165 66z" />
    </font>
</defs>
</svg>
